<svg xmlns="http://www.w3.org/2000/svg" viewBox="0 0 1661.06 966.68"><defs><style>.cls-1{opacity:0.7;}.cls-2{fill:#2f9288;}.cls-3,.cls-5,.cls-7{fill:none;stroke-width:0;}.cls-3{stroke:#2f9288;}.cls-4{fill:#9863dd;}.cls-5{stroke:#9863dd;}.cls-6{fill:#d46e6e;}.cls-7{stroke:#d46e6e;}</style></defs><title>communication.svg</title><g id="Layer_2" data-name="Layer 2"><g id="Layer_5" data-name="Layer 5"><g class="cls-1"><path class="cls-2" d="M65.72,311.39c4,1.14,8,2,12.06,2.78s8,1.45,12,1.92a90.24,90.24,0,0,1,11.92,2.42c3.81,1,7.53,2.08,11.23,3.19l5.56,1.62,2.8.76q1.42.34,2.85.65A83.13,83.13,0,0,0,136,326.48c2.58.2,5.16.41,7.72.67s5.12.61,7.66,1l15.31,2.47,7.72,1.27c2.59.39,5.21.66,7.83,1a119.83,119.83,0,0,0,16,.89l7.48-.14,3.74-.08c1.25,0,2.5-.05,3.75-.15l15-.9c10-.92,20.09-1.79,30.1-3.27l7.51-1,7.48-1.26c5-.85,10-1.49,14.95-2.51,9.95-1.88,19.84-4,29.63-6.37a276.85,276.85,0,0,0,27.08-8c8.78-3.17,17.4-6.62,25.73-10.59a276.26,276.26,0,0,0,47.09-28.2A252.25,252.25,0,0,0,439,253.76a235.6,235.6,0,0,0,19.3-19.89,220.52,220.52,0,0,0,17.12-22.38,210,210,0,0,0,14.48-25,171.16,171.16,0,0,0,12.24-33.1,147.42,147.42,0,0,0,3.62-18.18,132.34,132.34,0,0,0,1.21-19.35,110.72,110.72,0,0,0-2.09-20.18,97.24,97.24,0,0,0-6.3-20,101.18,101.18,0,0,0-23.69-33.16,144.52,144.52,0,0,0-27.41-20.12,172,172,0,0,0-36-15.17A179.7,179.7,0,0,0,375,.42C369.22,0,364.08,0,359.32,0a122.59,122.59,0,0,0-12.64,1H354l3.67,0,3.68.18,7.38.44c1.22.06,2.51.22,3.76.33s2.52.25,3.78.42c5,.6,10.06,1.45,15.05,2.49s10,2.29,14.87,3.76c19.6,5.87,38.53,15.18,54.29,28.3a148.51,148.51,0,0,0-28.83-16.29,189.05,189.05,0,0,0-30.87-10.14A214.57,214.57,0,0,0,369,5.43l-7.89-.52c-1.31-.08-2.63-.18-3.94-.24l-3.95-.1c-2.63-.06-5.26-.15-7.89-.17l-7.89.12c-1.31,0-2.63,0-3.94.09l-3.93.21c-2.62.15-5.24.27-7.85.46L313.85,6c-1.3.14-2.61.23-3.9.4L306.06,7c-2.59.36-5.18.69-7.75,1.09l-7.69,1.37c-1.28.24-2.56.44-3.83.71L283,11c-2.53.57-5.07,1.1-7.58,1.71l-7.49,2c-1.24.34-2.49.65-3.73,1l-3.69,1.14-7.35,2.3-7.23,2.57-3.6,1.3-3.54,1.43-7.05,2.87-6.91,3.14L221.38,32c-1.14.54-2.25,1.13-3.37,1.7a274,274,0,0,1,53.11-19.29C280.28,12,289.6,10.3,299,8.81l7-.9c2.35-.29,4.7-.62,7.06-.78,4.72-.39,9.43-.85,14.17-1l7.09-.27h7.1c4.73-.07,9.46.26,14.18.44,2.36.06,4.71.35,7.07.53s4.7.39,7.06.64c4.77.52,9.5,1.25,14.21,2.09,18.81,3.47,37.22,9.5,54.09,18.88,4.2,2.37,8.3,4.93,12.26,7.71a130.06,130.06,0,0,1,11.35,9.09A112.05,112.05,0,0,1,471.72,55.8a96.4,96.4,0,0,1,8.42,11.9,86.26,86.26,0,0,1,10.41,26.77,98.88,98.88,0,0,1,1.52,27.66,130.4,130.4,0,0,1-4.89,26.25,152,152,0,0,1-9.1,24.37,165.05,165.05,0,0,1-28,41.44,190.76,190.76,0,0,0,16-24.14l1.76-3.26c.59-1.09,1.21-2.17,1.72-3.3l3.23-6.77,2.92-7c.93-2.36,1.74-4.77,2.62-7.17.21-.6.44-1.2.64-1.81l.55-1.84,1.12-3.69c.8-2.46,1.36-5,2-7.5l.92-3.8c.26-1.28.54-2.55.77-3.84.48-2.57.92-5.16,1.25-7.78a106.62,106.62,0,0,0-.24-31.95,82,82,0,0,0-11.95-30.61,98,98,0,0,0-23.08-24.59,138.78,138.78,0,0,0-29.6-17,179.24,179.24,0,0,0-32.69-10.34q-8.39-1.82-16.92-2.92c-2.84-.4-5.67-.61-8.5-.89s-5.66-.57-8.49-.67l-8.5-.43-8.5-.09c-2.83-.07-5.66.06-8.48.15s-5.65.12-8.46.38l-8.42.63c-2.8.28-5.59.63-8.37.95-1.39.17-2.79.31-4.17.52l-4.15.65-4.14.66c-1.38.22-2.76.44-4.12.73l-8.18,1.66c-2.72.56-5.39,1.29-8.08,1.93l-4,1c-1.33.36-2.65.76-4,1.14-2.64.78-5.28,1.52-7.89,2.34-5.18,1.77-10.37,3.42-15.39,5.47l-3.78,1.47-1.88.74-1.85.81-7.36,3.25c-2.44,1.09-4.81,2.33-7.19,3.49l-3.56,1.77c-1.18.59-2.33,1.26-3.49,1.89l-6.89,3.82-6.67,4.08a118.39,118.39,0,0,0-12.78,8.79,50.29,50.29,0,0,0-10.48,11.09,35.14,35.14,0,0,0-5.34,13.56,40,40,0,0,0,.16,13.94,48.09,48.09,0,0,0,10.52,22.12,56.56,56.56,0,0,0,5.09,5.2,63.21,63.21,0,0,1-4.41-4.89c-.72-.85-1.31-1.72-2-2.6s-1.21-1.82-1.83-2.74a49.67,49.67,0,0,1-5.47-12.35,43.77,43.77,0,0,1-1.73-13.83,34.13,34.13,0,0,1,3.51-13.92,39.63,39.63,0,0,1,9.24-11.9,92.67,92.67,0,0,1,12.51-9.32l6.71-4.1,3.39-2,3.48-1.91c2.33-1.26,4.65-2.56,7-3.78l7.2-3.51a251.51,251.51,0,0,1,30.15-12l3.89-1.28,3.94-1.14c2.64-.74,5.27-1.53,7.93-2.21,5.34-1.28,10.69-2.63,16.14-3.6,5.41-1.14,10.91-1.86,16.4-2.69,5.52-.58,11-1.31,16.61-1.59l4.17-.27,2.09-.13,2.09-.05,8.37-.19c2.79,0,5.59.08,8.38.12l4.19.1,4.19.25c2.79.2,5.58.29,8.36.58l8.34.87c5.56.63,11.11,1.54,16.59,2.66a180.36,180.36,0,0,1,32,9.61,141.62,141.62,0,0,1,29,15.76,100.16,100.16,0,0,1,23,22.55,78.39,78.39,0,0,1,13,28.2A94.44,94.44,0,0,1,482,125.92a131.75,131.75,0,0,1-2.27,14.86c-.49,2.45-1.15,4.86-1.75,7.27l-.91,3.6-1.1,3.54a163.5,163.5,0,0,1-10.9,26.87,191.59,191.59,0,0,1-13.63,22.31,203.85,203.85,0,0,1-16.63,20.16,213,213,0,0,1-19,18c-1.7,1.38-3.32,2.83-5.07,4.16l-5.19,4c-3.55,2.56-7.05,5.19-10.74,7.58-29.15,19.52-62.23,33.42-96.71,41.52-2.35.52-4.73.87-7.1,1.33s-4.75.79-7.12,1.15l-3.57.54c-1.2.16-2.42.27-3.64.41l-7.28.82c-2.43.25-4.84.61-7.28.79l-7.33.49-7.32.51c-1.22.11-2.45.11-3.67.15l-3.68.09A482.23,482.23,0,0,1,179.37,304c-20.32-1.92-40.67-4.82-61-8.2-9-1.45-19.79-3.53-31.12-5.69S64,285.56,52.72,283.6c-22.6-3.92-42.85-6.29-51.16-2.59,5.73,1.71,11.88,3.08,18,4.47s12.1,2.78,17.56,4.58c-4.46-.09-9.6-.13-14.76-.74,4.76,1.18,9.92,2.91,14.51,3.4-3.81-.35-7.72-.63-9.42.11,5.63,1.78,14.14,2.2,18.8,2.65,1.37.12,5.24.33,9.19.59s8,.66,9.66,1.29c-9.5,0-21.33-.92-29.31-.25,3.09.86,6.21,1.48,9.18,2.47-4,0-11.42-1.38-13.65-.58,7.78,1.82,14.81,2.82,22.83,4.84,6.52,1.59,12.33,3.26,18.75,4.06-3.86-.32-8.33-1-12.54-1.43a59.82,59.82,0,0,0-11-.45A58.13,58.13,0,0,0,60,308.57a1.39,1.39,0,0,0-.92.42c1.59.35,3.61,1.12,5.27,1.44,0,.31.27.69-.13.93.09-.21.16-.42.24-.63" transform="translate(-1.56)"/><path class="cls-2" d="M59.85,287.75c3.84.85,8.48,1.88,13,3s9,2.17,12.41,3.26" transform="translate(-1.56)"/><path class="cls-3" d="M471.07,176l1.72-4.28c1.19-2.78,2.63-7,4.37-12.44A171.53,171.53,0,0,0,481.88,139a118.09,118.09,0,0,0,1.45-27.1A80.2,80.2,0,0,0,475,80.82c-5.21-10.42-13.39-20.2-23.65-28.45s-22.6-14.94-36-20A180,180,0,0,0,394.54,26a199.8,199.8,0,0,0-21.95-4,277.84,277.84,0,0,0-91.21,4.76,265.16,265.16,0,0,0-81.93,32.94c-6,3.63-11.58,7.43-15.88,11.69a34.12,34.12,0,0,0-5.31,6.72,28.68,28.68,0,0,0-3,7.31,32.57,32.57,0,0,0-.92,7.73,37.65,37.65,0,0,0,.84,7.7,18.41,18.41,0,0,0,.44,1.87c.18.62.3,1.24.51,1.84.42,1.21.77,2.41,1.29,3.57a44.88,44.88,0,0,0,3.3,6.59c.66,1,1.26,2,2,3,.35.47.67.93,1,1.4l1.14,1.4c.74.93,1.59,1.8,2.35,2.67s1.63,1.7,2.5,2.5a84.34,84.34,0,0,0,10.77,8.58A163.92,163.92,0,0,0,223,146.6" transform="translate(-1.56)"/><path class="cls-3" d="M411.39,21.76s-2.43-.89-7-2.29a180.1,180.1,0,0,0-19.94-4.8c-4.31-.8-9.09-1.53-14.3-2.09-2.6-.3-5.27-.45-8.05-.69l-4.23-.33c-1.43-.11-2.9-.12-4.38-.19-3-.09-6-.26-9.15-.26l-9.63.08c-3.29.11-6.64.31-10.07.48-1.71.06-3.44.23-5.18.39l-5.27.49a272.21,272.21,0,0,0-44.45,8.38,264.37,264.37,0,0,0-45.56,17.23q-5.55,2.8-11,5.75L207.73,47c-1.78,1.07-3.62,2-5.35,3.2l-5.24,3.37c-1.74,1.12-3.48,2.25-5.18,3.45a87.57,87.57,0,0,0-9.68,7.7A43.88,43.88,0,0,0,174.66,74a33.21,33.21,0,0,0-4,10.61,39.85,39.85,0,0,0,2.23,21.4" transform="translate(-1.56)"/></g><g class="cls-1"><path class="cls-2" d="M267,130.08c1.22,3.09,2.47,6.2,3.91,9.19s2.78,6,4.25,8.85a54.77,54.77,0,0,1,3.43,9.23c.84,3.08,1.41,6.18,2,9.23s1.08,6.15,1.84,9.2a60.14,60.14,0,0,0,2.85,9.23A80.17,80.17,0,0,1,289,196.94c.87,4.07,1.64,8.16,2.2,12.31l.91,6.23c.28,2.09.57,4.18.9,6.28.7,4.18,1.38,8.42,2.48,12.64,7.68,31.07,14.06,64.11,14.18,96.94.09,31,.17,60.52.25,89.79s-.59,58.27-2.94,88c-2.73,34.61-4.85,73.66-5.69,109.52,0,3.29-.22,7-.43,11s-.43,8.31-.73,12.8l-1,13.95-1.07,14.42c-1.41,19.26-2.68,38-1.64,49.43.53-7.5,1-15.12,1.81-22.74l1.11-11.47,1.25-11.48c.79-7.66,1.78-15.3,2.62-22.88l1.36-11.31,1.29-11.18c-.39,16.31-1.33,32.74-2.39,49.24-.64,8.23-1.18,16.5-2,24.73-.39,4.12-.69,8.25-1.13,12.36l-1.27,12.34c-1.82,16.43-3.75,32.82-6.11,49l-.83,6.08c-.27,2-.62,4-.92,6l-1.8,12.06-1.95,12-.94,6-1,5.93c11-59,18-118.76,24.12-177.87,3.09-29.55,5.86-58.95,8.8-88s6-57.67,9.46-85.69c-2,65.4-6.65,140.51-15.36,214.37-.53,4.62-1.05,9.24-1.67,13.84l-1.74,13.8-1.86,13.74c-.59,4.58-1.33,9.12-2,13.67-2.66,18.17-5.45,36.15-8.57,53.74l-1.11,6.6-1.21,6.54c-.82,4.35-1.52,8.71-2.36,13s-1.65,8.59-2.44,12.85c-.37,2.14-.81,4.26-1.24,6.37l-1.26,6.32c-1.55,8.44-3.43,16.69-5,24.91l-2.57,12.17-1.21,6-1.31,6c-.52,2.4-1,4.88-1.52,7.39s-.94,5-1.47,7.49c-1,4.94-1.86,9.73-2.47,13.93,1.62-8,3.58-16,5.25-24.2.86-4.09,1.85-8.16,2.71-12.29s1.74-8.29,2.66-12.45l.7-3.12.64-3.15,1.31-6.31c.88-4.22,1.85-8.42,2.66-12.7s1.73-8.54,2.65-12.83l2.54-13C299.53,791.44,305.75,755.45,311,719c10.61-72.87,17.31-147.71,20.46-214.81q2.19-46.2,2.41-92.76c.1-31-.15-62.24-2.31-94-.58-17.25-1.74-34.66-3.52-52-1.79-17.83-4.35-35.76-7.89-53.59A406.82,406.82,0,0,0,306,159l-2.14-6-1.14-3.18-1.25-3.26c-.86-2.2-1.71-4.47-2.64-6.76l-2.95-7a230.9,230.9,0,0,0-14.19-27.59c-5.29-8.61-10.9-16.29-16.35-21.91-1.36-1.41-2.68-2.7-4-3.86a40.45,40.45,0,0,0-3.82-3,20,20,0,0,0-6.72-3.31c5.39,8.57,12.44,17.44,16.49,26.37l-4.3-4.32c-1.5-1.51-2.92-3.15-4.38-4.79,1.13,1.72,2.08,3.68,3.15,5.53a43.24,43.24,0,0,0,3.37,5.16c-2-2.5-4.32-4.93-5.9-5.42a46.39,46.39,0,0,0,4.64,6.88c1.74,2.29,3.54,4.42,4.76,6,1.4,1.81,8.48,10.11,9.26,13.1-5.14-6.28-11.47-14.09-16.72-18.34,1.17,2.38,2.55,4.63,3.55,7-2.42-2.34-5.64-7.67-7.67-8.37,3.31,5.63,6.68,10.41,9.6,16.56,1.23,2.46,2.21,4.9,3.32,7.24.55,1.17,1.11,2.33,1.71,3.48s1.17,2.32,1.83,3.47c-3.38-5.42-7.63-12.76-11.27-15.76a48.31,48.31,0,0,0,3.89,8,1.2,1.2,0,0,0-.83-.33c.57,1.19,1,2.88,1.68,4.09-.27.16-.42.56-.82.45.22-.06.43-.14.64-.21" transform="translate(-1.56)"/><path class="cls-2" d="M282.69,112.48c1.55,3.06,3.31,6.82,5,10.54a108.82,108.82,0,0,1,3.92,10.49" transform="translate(-1.56)"/><path class="cls-3" d="M328.39,511.12,328,526.51c-.26,9.87-.69,24.08-1.3,41.44-1.34,34.73-3.57,82.11-8.69,132.51-2.55,25.2-5.81,51.15-9.8,76.67s-8.68,50.59-13.73,74.12-10.42,45.52-15.21,65-9.12,36.53-11.31,50.38" transform="translate(-1.56)"/><path class="cls-3" d="M312.16,668.66l-2.31,22.22c-1.5,14-3.52,33.68-6.41,56.57s-6.42,49-10.79,75.92-9.36,54.66-14.24,81.17" transform="translate(-1.56)"/></g><g class="cls-1"><path class="cls-2" d="M361.46,338.59c3.2,1.43,6.42,2.92,9.69,4.21q2.45,1,4.9,1.87l4.81,1.84c1.69.63,3.31,1.33,4.88,2.08q1.17.56,2.31,1.16c.75.41,1.48.85,2.21,1.28,2.9,1.75,5.65,3.61,8.38,5.46,5.4,3.86,10.77,7.57,17.23,10.47,2,.9,4,1.85,6,2.9s3.82,2.2,5.69,3.37,3.72,2.36,5.53,3.63l5.42,3.87c3.62,2.58,7.19,5.28,10.88,7.87s7.48,5.12,11.5,7.42c29.46,17.05,60.1,35.09,86.74,57.24,25.1,20.89,49.1,40.68,72.34,60.9s45.71,40.87,67.52,63.53c12.64,13.21,26.35,27,40.31,40.88s28.15,27.5,41.85,40.49c10.06,9.48,24.44,24.59,38.26,39.4s27.17,29.3,36.54,36.81c-21.35-23.21-42.75-48.69-63.52-72.2a966.14,966.14,0,0,1,71.07,75.82,809.62,809.62,0,0,1,61,82.53c-16.54-26.71-35.12-52.15-54.66-76.77s-40.1-48.42-61-71.69-42-46.1-62.94-68.66S693.07,559.24,673.26,537c25.14,23.66,51.57,49.65,78.35,77s53.65,56.17,79.05,86,49.31,60.63,70.27,91.82a760.85,760.85,0,0,1,54,93.54c2.37,4.64,4.6,9.66,7,14.45,1.23,2.38,2.25,4.79,3.37,7s2.17,4.43,3.2,6.43A751.25,751.25,0,0,0,919,817.42a958.3,958.3,0,0,0-65.57-93.72c-24-30.47-49.8-60-75.88-88.15-13-14.06-26.15-27.78-39.16-41-6.47-6.68-13-13.17-19.37-19.64s-12.79-12.77-19.15-18.93c-23.27-22.71-47.16-45-72-66.58s-50.5-42.39-77.27-62.22c-14.23-11.18-28.73-22.22-43.42-32.9-30-22-61.51-43.58-95.65-60.89l-12.44-6.1-6.93-3.15c-2.37-1.05-4.75-2.19-7.25-3.17-5-2-10-4.16-15.22-5.9L362,312.37c-2.6-.79-5.2-1.53-7.75-2.25-5.08-1.51-10.15-2.55-14.9-3.46l-3.51-.64c-1.16-.18-2.31-.31-3.43-.44-2.25-.26-4.4-.46-6.44-.6a52.29,52.29,0,0,0-10.9.25,21.26,21.26,0,0,0-7.49,2.13c10.33,2.71,22.2,4.25,31.73,8.29-2-.11-4.16-.21-6.37-.36s-4.54-.21-6.83-.49c2.1.56,4.28,1.24,6.44,1.87a40.76,40.76,0,0,0,6.29,1.62c-3.38-.44-6.81-.87-8.39-.07a51.71,51.71,0,0,0,8.52,2c3,.48,5.93.77,8,1.19,1.2.22,4.62.65,8.12,1.22l2.6.45c.84.19,1.65.38,2.39.58a15.7,15.7,0,0,1,3.41,1.21l-6.61-.94-6.89-.79c-2.28-.24-4.49-.48-6.6-.58s-4.1-.06-5.87.05c1.32.47,2.65.88,4,1.3.66.21,1.31.42,2,.66s1.27.52,1.89.81c-1.74-.13-4.22-.54-6.51-.86s-4.38-.53-5.39-.15c3.3,1,6.48,1.75,9.66,2.61s6.34,1.91,9.7,3.17c1.37.49,2.68,1,4,1.58l3.83,1.57c1.27.5,2.54,1,3.83,1.44l3.94,1.31c-6.54-1.66-15.07-4.37-20-4.07a27.69,27.69,0,0,0,4.3,1.81c1.49.5,3,1,4.5,1.5a1.23,1.23,0,0,0-.86.32c1.3.5,2.9,1.45,4.27,1.92-.08.3.1.7-.28.89.12-.19.22-.39.33-.59" transform="translate(-1.56)"/><path class="cls-2" d="M360.29,314.81c3.38,1.25,7.44,2.85,11.4,4.47a112.54,112.54,0,0,1,10.58,5.13" transform="translate(-1.56)"/><path class="cls-3" d="M703.29,563.13l11.81,11.14c7.57,7.14,18.44,17.46,31.68,30.12,26.41,25.41,62.17,60.45,97.29,100.77,4.42,5,8.74,10.19,13.13,15.34s8.67,10.45,12.9,15.81,8.44,10.75,12.63,16.15l6.15,8.21c2.07,2.72,4,5.53,6,8.28,8,11.07,15.65,22.24,22.77,33.52s13.94,22.48,20.05,33.67l2.33,4.16,2.21,4.18c1.46,2.78,3,5.51,4.37,8.26,2.74,5.53,5.58,10.9,8.06,16.3,5.23,10.68,9.66,21.14,13.93,31,8.26,19.79,14.67,37.5,20.45,51.38" transform="translate(-1.56)"/><path class="cls-3" d="M815.71,686.5l4.09,4.68,4.9,5.54,6.52,7.47c4.85,5.58,10.67,12.33,17.17,20,3.28,3.84,6.63,8,10.23,12.28l5.4,6.67,2.8,3.43,2.79,3.54c15.1,19,31.71,41.18,47.44,65.16,7.86,12,15.66,24.35,22.9,37s14.19,25.46,20.67,38.2" transform="translate(-1.56)"/></g><g class="cls-1"><path class="cls-4" d="M618.79,361a42.45,42.45,0,0,0,7.35-.1,60.81,60.81,0,0,0,7.11-1.19,28.55,28.55,0,0,1,3.6-.61c1.18-.13,2.35-.25,3.51-.29,2.33-.07,4.62-.09,6.93-.09a56,56,0,0,0,6.91-.44,25.09,25.09,0,0,0,6.83-2c5.62-2.57,11.44-4.06,17.32-5.87s11.82-3.9,17.12-7.57a156.74,156.74,0,0,0,12.44-9.74c3.95-3.5,7.8-7.09,11.41-10.9s7.15-7.66,10.47-11.68l1.27-1.49,1.23-1.52,1.44-1.75c.51-.62,1-1.23,1.5-1.87a33.67,33.67,0,0,0,4.89-8.08,21.31,21.31,0,0,0,1.46-9,24.36,24.36,0,0,0-2.6-9.67,24.06,24.06,0,0,0-2.73-4.29,29.59,29.59,0,0,0-3.48-3.77,31.23,31.23,0,0,0-8.75-5.61c-.79-.38-1.63-.65-2.46-1a24.59,24.59,0,0,0-2.58-.8,23.9,23.9,0,0,0-2.33-.57c-.78-.16-1.56-.33-2.34-.42A44.45,44.45,0,0,0,695.73,262a64.87,64.87,0,0,0-16,7.09,134.22,134.22,0,0,0-13.28,9.34c-4.07,3.2-8,6.35-12,9.73a183.73,183.73,0,0,0-23.56,23.19A83.46,83.46,0,0,0,619.25,330c-.8,1.78-1.5,3.61-2.22,5.49l-1,3c-.31,1-.63,2-.85,3.07A61.72,61.72,0,0,0,614,347.8l-.43,3.17-.21,3.19a70.66,70.66,0,0,0,.47,12.87c.36,2.15.68,4.3,1.2,6.45a61.57,61.57,0,0,0,1.87,6.39l1.16,3.16c.45,1,.93,2.08,1.41,3.11a55.43,55.43,0,0,0,3.31,6.06,33.08,33.08,0,0,0,2,2.91c.7,1,1.39,1.9,2.11,2.82s1.59,1.79,2.39,2.67a29.17,29.17,0,0,0,2.53,2.54l2,1.82a26.72,26.72,0,0,0,2.23,1.84l2.48,1.81a27.06,27.06,0,0,0,2.68,1.77,57,57,0,0,0,12.53,5.73,60.53,60.53,0,0,0,28.61,1.83,74.8,74.8,0,0,0,23-8,53.75,53.75,0,0,0,13.95-10.5,88.12,88.12,0,0,1-15.55,9.25,76.06,76.06,0,0,1-18.72,5.94,59.52,59.52,0,0,1-21.49,0c-1.83-.42-3.66-.82-5.44-1.35s-3.54-1.24-5.26-1.93-3.33-1.63-4.95-2.48-3.15-2-4.67-3l2.66,1.45a26.88,26.88,0,0,0,2.69,1.34l2.75,1.11a25.94,25.94,0,0,0,2.78,1l2.85.8a24.28,24.28,0,0,0,2.87.67l2.89.47,1.45.22c.48.06,1,.08,1.44.11a63.13,63.13,0,0,0,21.76-2.16,92,92,0,0,0,18.56-7.4,130.31,130.31,0,0,0,16-10c2.55-1.83,4.81-3.65,7.12-5.47l3.45-2.74,3.35-2.84c4.49-3.76,8.76-7.72,12.95-11.71a272.81,272.81,0,0,0,23-25.2,280.86,280.86,0,0,1-21.56,23,244.61,244.61,0,0,1-24.32,20.47,114.28,114.28,0,0,1-29.38,16.32A72.39,72.39,0,0,1,679,409.26a51.12,51.12,0,0,1-18.95-1.54c-1.55-.47-3.09-1-4.6-1.59s-2.94-1.37-4.38-2.06a42.58,42.58,0,0,1-8-5.5,44.29,44.29,0,0,1-11-14.77,51.79,51.79,0,0,1-4.46-16.55,56.58,56.58,0,0,1,.72-16.26c.29-1.31.55-2.61.89-3.88l1.16-3.77,1.44-3.64c.52-1.18,1.11-2.31,1.66-3.45a68.32,68.32,0,0,1,8.29-12.34,97.87,97.87,0,0,1,21.42-18.55c-7.95,7.06-15.62,15-21.45,24.67a60.34,60.34,0,0,0-6.78,15.72,54.18,54.18,0,0,0-1.54,17.78,48.14,48.14,0,0,0,5,17.94,39.64,39.64,0,0,0,2.45,4.17,21.38,21.38,0,0,0,1.45,2c.51.64,1,1.31,1.54,1.92l1.72,1.78.87.89,1,.8,1.94,1.6c.66.53,1.39.94,2.09,1.41a39.21,39.21,0,0,0,19.28,6.13,58.65,58.65,0,0,0,20-2.69c12.81-3.89,24.23-10.93,34.32-18.51a246.67,246.67,0,0,0,28.3-24.48,261.81,261.81,0,0,0,42.13-55.53A133.17,133.17,0,0,0,804.23,283a256.05,256.05,0,0,1-37.84,57.57,250.41,250.41,0,0,1-26,25.84c-2.39,2-4.73,4-7.2,5.93s-4.92,3.84-7.46,5.67-5.1,3.63-7.72,5.39-5.35,3.43-8.14,5a96.39,96.39,0,0,1-17.49,7.75,57.69,57.69,0,0,1-18.83,3,38.16,38.16,0,0,1-17.93-4.68,32.71,32.71,0,0,1-12.48-12.42,41.45,41.45,0,0,1-5.3-16.15,50.22,50.22,0,0,1,.73-16.36l.19-1,.27-1,.53-1.9c.36-1.26.87-2.46,1.28-3.67s1-2.43,1.59-3.62,1.16-2.35,1.81-3.49a79,79,0,0,1,8.93-12.69,154.93,154.93,0,0,1,21-19.7c3.84-3.07,7.85-6.24,11.62-8.92a67.84,67.84,0,0,1,11.09-6.58,35.9,35.9,0,0,1,5.22-1.92l1.26-.32c.42-.1.76-.13,1.14-.22a20.23,20.23,0,0,1,2.27-.25,21.77,21.77,0,0,1,4.44.17l1,.18q.49.14,1,.24c.16,0,.3.1.46.15l.15.07c.13,0,.28.13.41.19a5.73,5.73,0,0,1,2.49,2.35,3.69,3.69,0,0,1,.25,3.15l-.1.22a8.37,8.37,0,0,1-1.35,1.19l-.08.06,0,0-.16.17-.64.69c-.42.46-.85.92-1.3,1.35l-2.66,2.65A132,132,0,0,1,699.16,307c-16.46,12.45-36,21-56.32,25.66a145.75,145.75,0,0,1-15.77,2.61c-5.79.67-11.89,1.09-17.71,1.41s-11.38.58-16.16,1.23a37.39,37.39,0,0,0-6.52,1.35,14.6,14.6,0,0,0-5,2.49c1.53.54,3.13,1,4.76,1.4s3.33.64,5,.94,3.34.49,5,.8a36.42,36.42,0,0,1,4.72,1,38,38,0,0,1-8.33,1.54c2.66.54,5.59,1.36,8.18,1.11-2.15.27-4.39.62-5.41,1.62a17.09,17.09,0,0,0,5.61.22c2-.24,3.82-.57,5.13-.8.77-.15,2.94-.71,5.12-1.23s4.38-1,5.34-.78C611.71,349.6,605,351,600.39,353c1.81.3,3.63.38,5.37.81-2.3.77-6.68.65-8,1.75a62.25,62.25,0,0,0,6.73.4c2.22,0,4.44,0,6.83.22,3.87.26,7.38.53,11.08-.16-1.1.3-2.3.52-3.54.75l-3.73.7a26.23,26.23,0,0,0-6.42,1.78c2.06.65,4.3.42,6.46.32a1.09,1.09,0,0,0-.49.6c1,0,2.23.3,3.23.24,0,.31.24.61,0,.93,0-.22,0-.44.06-.67" transform="translate(-1.56)"/><path class="cls-4" d="M613.23,339.25c4.05.14,9.78-.13,13.52.29" transform="translate(-1.56)"/><path class="cls-5" d="M648.16,324.08l-.38.52c-.26.34-.61.86-1.05,1.55a68,68,0,0,0-3.65,6.14L642,334.48c-.37.77-.71,1.6-1.09,2.45s-.73,1.76-1.08,2.71a30,30,0,0,0-1,3,49.07,49.07,0,0,0,1.13,31.74,39.17,39.17,0,0,0,2.07,4.36,23.42,23.42,0,0,0,1.23,2.13l1.4,2.06c.46.7,1.06,1.3,1.58,2l.82,1c.27.33.61.6.91.9.62.59,1.23,1.2,1.87,1.78l2.08,1.59a34.24,34.24,0,0,0,20.92,6.11,48.49,48.49,0,0,0,11.76-1.76,70.47,70.47,0,0,0,11.59-4.23,97.92,97.92,0,0,0,11.12-6,123.88,123.88,0,0,0,10.55-7.31L723,373c1.69-1.35,3.35-2.74,5-4.11,3.37-2.7,6.54-5.65,9.77-8.49a309.38,309.38,0,0,0,34-36.86,300.6,300.6,0,0,0,24.69-36.73c6.54-11.62,11.35-22.33,14-31.5" transform="translate(-1.56)"/><path class="cls-5" d="M677.67,404.58l1.16-.08c.77-.05,1.86-.25,3.31-.46A65.35,65.35,0,0,0,694,400.89,92.84,92.84,0,0,0,710.44,393c1.46-.9,3-1.81,4.48-2.83l2.28-1.53,2.28-1.63c3.05-2.21,6-4.61,9.18-7.08a250.52,250.52,0,0,0,37-37.55A264.23,264.23,0,0,0,782,319.51a257.28,257.28,0,0,0,13.62-24.18" transform="translate(-1.56)"/></g><g class="cls-1"><path class="cls-6" d="M843.5,368.22a42.9,42.9,0,0,0,12.9-9.42c3.78-3.91,7.89-6.81,11.74-10s7.45-6.64,9.73-11.4c2.83-5.94,6.38-11.16,9.78-16.59s6.6-11,8.47-17.23q1.29-4.28,2.44-8.58l1.17-4.4c.38-1.52.76-3.05,1.1-4.62a87,87,0,0,0,1.58-9.69,50.14,50.14,0,0,0,.06-10.4c-.09-.89-.26-1.81-.39-2.7s-.4-1.82-.6-2.72-.57-1.83-.87-2.74-.75-1.77-1.13-2.64a27.3,27.3,0,0,0-3-4.84,25.45,25.45,0,0,0-3.91-4.1,37.53,37.53,0,0,0-9.12-5.57c-1.55-.69-3.11-1.3-4.66-1.84s-3.1-1-4.65-1.49a61.11,61.11,0,0,0-18.1-2.38,69.82,69.82,0,0,0-17.79,2.65,89,89,0,0,0-30.87,16.29,107.3,107.3,0,0,0-23.29,26,104.74,104.74,0,0,0-14,34,78.18,78.18,0,0,0-1.54,11.62,69.59,69.59,0,0,0,.59,12.72,60.31,60.31,0,0,0,3.67,13.42,54.07,54.07,0,0,0,7.53,12.91,52.46,52.46,0,0,0,11.34,10.62A55.57,55.57,0,0,0,805.23,382a63.58,63.58,0,0,0,27.57,2.87A88.34,88.34,0,0,0,855,379.51a75.75,75.75,0,0,0,23.56-14.34,82.8,82.8,0,0,0,15.67-19.27c.9-1.61,1.74-3.19,2.53-4.72s1.37-3,2-4.46l.43-1.06c0-.17,0-.18,0-.28l-.15-.5a6.11,6.11,0,0,0-.39-1.1v.2l0,.25-.1.48-.05.23,0,.11v.05a.13.13,0,0,1,0,0l-.07.13-1.1,2.11a88.76,88.76,0,0,1-5,8.32,81.91,81.91,0,0,1-13.2,15.2l-1.91,1.71c-.66.57-1.42,1.16-2.13,1.73s-1.46,1.1-2.2,1.64-1.48,1.06-2.25,1.54a66.21,66.21,0,0,1-9.34,5.12,73.07,73.07,0,0,1-19.62,5.71,77.11,77.11,0,0,0,23-9.77,70.46,70.46,0,0,0,10.15-7.81c1.47-1.42,2.87-2.85,4.29-4.28s2.66-3,4-4.51,2.46-3.12,3.63-4.71,2.26-3.21,3.31-4.85,2.07-3.29,3-5l1.38-2.51.69-1.26.17-.31.05-.12.1-.22.39-.88c.14-.3.27-.6.35-.85.2-.53.42-1.05.6-1.61.39-1.11.76-2.28,1.12-3.53.85-3,1.64-6.38,2.51-10.46l.33-1.56.17-.81s-.09.21-.14.31a5.46,5.46,0,0,0-.37,1.53,7.12,7.12,0,0,0,.59,3.45,13.13,13.13,0,0,0,2.7,4,14.68,14.68,0,0,1-2.71-4.4,9.34,9.34,0,0,1-.62-4.1,7.88,7.88,0,0,1,.39-1.92l.08-.23,0-.11v0l0,.1-.18.78-.36,1.52a108,108,0,0,1-2.94,10.44,47.79,47.79,0,0,1-1.85,4.58c-.36.73-.68,1.42-1.16,2.27l-.33.61-.17.3-.29.5-1.75,2.95a91,91,0,0,1-17.76,21.46c-.45.39-.86.79-1.33,1.18l-1.45,1.17c-1,.8-2,1.48-3,2.22a65.52,65.52,0,0,1-6.24,3.82,66.86,66.86,0,0,1-13.26,5.41,67.81,67.81,0,0,1-13.9,2.47,61.32,61.32,0,0,1-14.06-.67,51.06,51.06,0,0,1-13.45-4.25,42.58,42.58,0,0,1-11.41-8.12,40.22,40.22,0,0,1-11.07-23.45,54.41,54.41,0,0,1,2.61-23.54,66.83,66.83,0,0,1,10.26-19.67,75,75,0,0,0-7.48,19.29A57.22,57.22,0,0,0,789,334.8a39.85,39.85,0,0,0,3.22,10.77,33.94,33.94,0,0,0,6.59,9.54c5.5,5.73,13.31,9.41,21.56,10.84a57.39,57.39,0,0,0,25.3-1.52,60.71,60.71,0,0,0,12.11-4.83,55.18,55.18,0,0,0,10.93-7.48,86,86,0,0,0,16.81-19.91l1.69-2.77c.16-.25.25-.42.34-.59l.29-.51.57-1c.79-1.37,1.44-2.7,2.11-4s1.26-2.69,1.86-4,1.16-2.71,1.66-4.09c2.09-5.44,3.81-11,5.49-17.09l.63-2.29.31-1.14-.26,1a19.53,19.53,0,0,0-.61,3.89,20.9,20.9,0,0,0,1,7.77,28.18,28.18,0,0,0,7.06,11.06,35.85,35.85,0,0,0,3.66,3.21c.33.25.66.52,1,.76l1.15.83c.85.58,1.69,1.16,2.57,1.68A44.83,44.83,0,0,0,927,329.63a48.25,48.25,0,0,0,22.1.71,46,46,0,0,0,14.15-5.24l2-1.17c.63-.4,1.22-.84,1.79-1.24a52.75,52.75,0,0,1-29.33,7.67l-2-.11c-.68-.06-1.35-.17-2-.26l-2.05-.29-2-.42a41.28,41.28,0,0,1-8-2.78,45.45,45.45,0,0,1-7.49-4.41,42,42,0,0,1-5.88-5,31.59,31.59,0,0,1-7.56-12.37,25.07,25.07,0,0,1-1.16-9,23.93,23.93,0,0,1,.68-4.55l.27-1.06-.35,1.22-.7,2.42c-1.88,6.41-3.85,12.46-6.28,18.46-1.09,2.7-2.3,5.37-3.61,8.06-.67,1.34-1.39,2.67-2.1,4l-1.17,2-.59,1c-.2.34-.38.67-.65,1.08A89.48,89.48,0,0,1,871.2,346c-1.29,1.34-2.72,2.53-4.13,3.74-.7.61-1.4,1.21-2.16,1.76s-1.49,1.12-2.26,1.63A56.54,56.54,0,0,1,853,358.4a58.29,58.29,0,0,1-20.86,4.68,45.19,45.19,0,0,1-19.92-3.58,31.17,31.17,0,0,1-14-11.91,32.4,32.4,0,0,1-3.61-8.07,37.05,37.05,0,0,1-1.51-8.63,50.93,50.93,0,0,1,.22-8.77,67.94,67.94,0,0,1,1.57-8.61,72.75,72.75,0,0,1,12.33-25.59,81.08,81.08,0,0,1,20.29-19.15A63.68,63.68,0,0,1,851.72,259a48.38,48.38,0,0,1,12.08-.42c1,.1,2,.26,2.93.38s1.94.34,2.89.6,1.94.46,2.81.75,1.69.57,2.4.87a13.35,13.35,0,0,1,1.85,1.15c.24.18.45.36.61.51s.19.23.29.35a2.14,2.14,0,0,1,.4.75.78.78,0,0,0,.1.17,1.39,1.39,0,0,0,0,.21.75.75,0,0,0,.08.18,1.32,1.32,0,0,0,0,.21.7.7,0,0,0,.06.18.93.93,0,0,0,0,.2.8.8,0,0,0,0,.19,3.1,3.1,0,0,0,0,.34c0,.11,0,.22,0,.34s0,.29,0,.43l0,.43,0,.52a28,28,0,0,1-.81,5.22,62.82,62.82,0,0,1-2.12,6.79c-.45,1.22-.93,2.45-1.45,3.73l-1.71,4.17c-2.28,5.53-4.6,10.9-7,16.05A137.56,137.56,0,0,1,848.52,331c-.71.88-1.5,1.76-2.29,2.71s-1.63,1.76-2.52,2.67a73.94,73.94,0,0,1-5.9,5.29,82.71,82.71,0,0,1-6.71,4.89c-1.18.69-2.33,1.52-3.52,2.15l-1.77,1-1.78.93c-1.17.68-2.36,1.16-3.51,1.78L817.1,354l-6.44,2.72c-1,.38-2,.87-2.95,1.28a26.42,26.42,0,0,0-2.71,1.3,17.47,17.47,0,0,0-4.48,3.07c.78.18,1.58.34,2.38.48l1.22.2,1.25.07c.83,0,1.67.08,2.5.1l2.52-.13a23.75,23.75,0,0,0,2.49-.22l2.46-.25c1.62-.27,3.22-.34,4.78-.53a30.74,30.74,0,0,1-3.5,2.21,19.27,19.27,0,0,1-4.11,1.74c1.39-.13,2.88-.08,4.32-.32.72-.1,1.43-.21,2.12-.37a9.74,9.74,0,0,0,1.94-.71c-.5.26-1,.52-1.48.8s-1,.49-1.4.76a5.49,5.49,0,0,0-2,1.72,15.12,15.12,0,0,0,5.66-1.62,45.09,45.09,0,0,0,4.69-2.65,18.59,18.59,0,0,0,1.74-1.27c.76-.61,1.69-1.24,2.57-2s1.78-1.44,2.58-2a6.15,6.15,0,0,1,2-1.15c-.46.53-.94,1.06-1.44,1.61s-1.06,1-1.61,1.56l-1.7,1.58-1.79,1.49c-1.19,1-2.41,2-3.58,2.89s-2.29,1.82-3.3,2.69a27.23,27.23,0,0,0,2.87-.63,23,23,0,0,1,2.82-.65,14.56,14.56,0,0,1-1.86,1.22,24.34,24.34,0,0,1-2.25,1.18A9.94,9.94,0,0,0,820,372.5c5.06-1,9.16-3,14-4.89l2.86-1.16c.92-.42,1.81-.86,2.69-1.3l1.31-.68q.63-.38,1.25-.79c.82-.54,1.63-1.11,2.42-1.74-.9.81-1.92,1.65-3,2.52s-2.2,1.65-3.27,2.49-2.17,1.58-3.12,2.37c-.48.39-.93.78-1.34,1.17a12.75,12.75,0,0,0-1.13,1.1,11.8,11.8,0,0,0,3.4-1.09,26.6,26.6,0,0,0,3.19-1.71,1.16,1.16,0,0,0-.2.79c.94-.49,2.33-.87,3.29-1.43.17.26.53.42.48.8-.08-.21-.17-.41-.25-.62" transform="translate(-1.56)"/><path class="cls-6" d="M828.37,351.52l1.37-.63,1.44-.76,1.51-.77,1.51-.85,1.51-.81,1.45-.83c1-.52,1.88-1,2.69-1.39" transform="translate(-1.56)"/><path class="cls-7" d="M791.21,317.5s-.21,1.16-.39,3.34a51,51,0,0,0,0,9.43,39.25,39.25,0,0,0,3.91,13.83,31.16,31.16,0,0,0,12.86,13.26c6.12,3.4,14.06,5.11,22.48,4.61a56.74,56.74,0,0,0,25.4-7.76c8.09-4.68,14.89-12.06,20.61-20.26,1.36-2.11,2.75-4.21,4-6.44l.95-1.65c.32-.58.64-1.23,1-1.85.63-1.26,1.3-2.48,1.89-3.78a163.06,163.06,0,0,0,6.54-16.32A138.54,138.54,0,0,0,899,283.83l.87-2.47.44-1.22L900,281.3a24,24,0,0,0-.85,4.94,21.92,21.92,0,0,0,1.41,9.48c1.81,4.7,5.26,8.81,11,12.53l.19.89.09.45c0,.07,0,.16,0,.22l.08.13.66,1,.66,1a8.71,8.71,0,0,0,.73.87,30.1,30.1,0,0,0,3.17,3.14l.86.69.65.48,1.3.88c.88.56,1.76,1.12,2.66,1.6a35.87,35.87,0,0,0,11,4,45.54,45.54,0,0,0,21.67-1.47,52.36,52.36,0,0,0,16.82-8.87,44.79,44.79,0,0,0,10.54-11.56" transform="translate(-1.56)"/><path class="cls-7" d="M867.31,356.57l.89-.7c.58-.47,1.46-1.16,2.46-2.1a74.41,74.41,0,0,0,8.27-8.57A92.18,92.18,0,0,0,889,330.27c.13-.22.17-.3.23-.43l.19-.37.38-.74.78-1.53,1.42-3.13c.91-2.18,1.82-4.52,2.68-7.08,1.59-4.72,3.09-10.15,4.68-16.67l.6-2.5.31-1.29.16-.65.08-.33-.07.2a14.68,14.68,0,0,0-.77,3.4,16.65,16.65,0,0,0,1,7.47,27.53,27.53,0,0,0,7.46,10.65,40.36,40.36,0,0,0,4.29,3.47c.39.29.8.56,1.22.83s.89.61,1.35.89l1.39.85,1.42.78a42.19,42.19,0,0,0,11.9,4.26,57.56,57.56,0,0,0,6.1.69,51.14,51.14,0,0,0,6-.16,46.15,46.15,0,0,0,11.33-2.39" transform="translate(-1.56)"/></g><g class="cls-1"><path class="cls-6" d="M1005.24,235.92a13.52,13.52,0,0,0-3.63,1.42,26.48,26.48,0,0,0-3.16,2.25,9,9,0,0,1-3.41,1.68,30.8,30.8,0,0,1-3.65.86c-2.46.5-5,1-6.75,3.11a14.53,14.53,0,0,1-3.75,3.11c-.35.21-.7.4-1.06.6l-1,.61c-.71.4-1.43.77-2.17,1.15-1.46.75-3,1.49-4.37,2.39a17.69,17.69,0,0,0-3.69,3.41c-2,2.42-3.74,5.13-5.52,7.73l-1.33,1.95-1.24,2q-1.23,2-2.51,4c-.88,1.27-1.63,2.64-2.47,3.94s-1.68,2.57-2.58,3.81-1.7,2.54-2.63,3.76-1.91,2.39-2.91,3.57a97.41,97.41,0,0,0-14.11,23c-.87,2.07-1.76,4.11-2.61,6.22a60.46,60.46,0,0,0-2.21,7,38.43,38.43,0,0,0-1.08,9.15,31.7,31.7,0,0,0,1.5,9.56,33.71,33.71,0,0,0,5,9.45A64.51,64.51,0,0,0,941,359.5a75,75,0,0,0,9.27,7.45c1.66,1.06,3.35,2.15,5.11,3.13s3.58,1.87,5.43,2.7a67.53,67.53,0,0,0,23.24,5.72c5.65.38,14.2,1.09,22.46.22s16.06-3.2,19.9-6.83a51.71,51.71,0,0,1-18.69,3.9,76.31,76.31,0,0,1-18.95-2,116,116,0,0,0,39.52-6.11c12.54-4.41,24.13-11.33,33-20.4A82.7,82.7,0,0,1,1031,365.39a88.49,88.49,0,0,1-8.58,2.41q-2.18.44-4.37.84c-1.45.27-2.94.41-4.4.6a80.77,80.77,0,0,1-17.64.06A78.61,78.61,0,0,1,979,365.49,70.23,70.23,0,0,1,963.88,358a62.13,62.13,0,0,1-12.26-10.64,25.15,25.15,0,0,1-4.18-6.21,12.51,12.51,0,0,1-1.15-6.23,14.56,14.56,0,0,0,3,5.74,24.88,24.88,0,0,0,2.74,2.8,42,42,0,0,0,3.39,2.74,77.49,77.49,0,0,0,16,9.44,83.28,83.28,0,0,0,39.35,6.66,79,79,0,0,0,38.28-12.89c11-7.38,19.4-17.8,23-29a29.33,29.33,0,0,0,1.52-10.6,43.86,43.86,0,0,1-5.11,16.92A54.71,54.71,0,0,1,1057,341.48c-9.53,8.67-22.15,14.51-35.31,16.85a81.08,81.08,0,0,1-38.91-2.59,77.54,77.54,0,0,1-16.65-7.6L964.23,347c-.61-.39-1.2-.83-1.79-1.23-1.18-.83-2.35-1.61-3.44-2.52s-2.22-1.71-3.21-2.6a30.92,30.92,0,0,1-2.64-2.6,5.89,5.89,0,0,1-.6-.76c-.16-.22-.3-.46-.44-.68a11.25,11.25,0,0,1-.72-1.39,8.73,8.73,0,0,1-.73-2.84,8.44,8.44,0,0,1,.4-3.1,9.31,9.31,0,0,1,.54-1.33,18.2,18.2,0,0,0,.73-1.77c.59-1.44,1.25-3.07,2.14-4.86s1.65-3.52,2.48-5.26a190,190,0,0,1,11.85-19.89c.85-1,1.61-2,2.49-2.94s1.76-1.88,2.62-2.83l1.28-1.43c.42-.48.91-.9,1.36-1.36l2.72-2.71c.88-1,1.93-1.78,2.89-2.67l2.9-2.65q1.54-1.22,3.05-2.48c1-.82,2-1.72,3.05-2.47,2.12-1.53,4.1-3.25,6.29-4.67q1.6-1.12,3.18-2.3l3.28-2.14,1.52-1a16.3,16.3,0,0,1,1.67-1c1.17-.66,2.4-1.38,3.66-2.15s2.57-1.48,3.87-2.27q1-.59,1.93-1.22c.64-.42,1.26-.89,1.9-1.27a31.05,31.05,0,0,0,3.6-2.64c.56-.48,1.1-1,1.62-1.5a19.36,19.36,0,0,0,1.49-1.5,14.9,14.9,0,0,0,3.73-7.62,23.26,23.26,0,0,0-5,1.35c-.83.29-1.66.53-2.47.77a9.83,9.83,0,0,1-2.45.49,16,16,0,0,1,3.2-4c-1.38.29-3,.47-4,1.45a5.54,5.54,0,0,0,1.88-3.13c-1.75.22-3.64,2.52-4.69,3.56-.3.33-1.14,1.3-1.95,2.36s-1.68,1.95-2.22,1.92c.84-1.45,1.87-3,2.92-4.51a28.18,28.18,0,0,0,2.8-4.55,16.82,16.82,0,0,1-2.77.66c.8-1.3,2.88-2.36,3.1-3.83a31.48,31.48,0,0,0-3.25,1.5,33,33,0,0,1-3.31,1.44,17,17,0,0,0-5.31,2.44c1.79-1.78,4.48-3.6,5.44-5.95a5.76,5.76,0,0,0-3.19,1.24,1.33,1.33,0,0,0,0-.67c-.47.21-1.19.19-1.66.46a2.49,2.49,0,0,1-.36-.86l.21.64" transform="translate(-1.56)"/><path class="cls-6" d="M1015.78,255c-.93.44-2.06,1-3.21,1.37a16.71,16.71,0,0,1-1.71.53,12.46,12.46,0,0,1-1.56.35" transform="translate(-1.56)"/><path class="cls-7" d="M953.07,341.82l1,.78c.65.52,1.69,1.23,3.07,2.1.69.44,1.44.94,2.29,1.47l2.82,1.56c1,.59,2.13,1.1,3.32,1.65l1.84.86c.64.28,1.3.52,2,.79A77.16,77.16,0,0,0,989.22,356,84.07,84.07,0,0,0,1014,355a85,85,0,0,0,12.77-3.46l1.57-.55,1.55-.63,3.08-1.29c2-1,4-1.88,5.94-3a74.48,74.48,0,0,0,10.83-7.28c1.63-1.39,3.25-2.73,4.71-4.23.73-.74,1.48-1.44,2.16-2.2l2-2.29a46.91,46.91,0,0,0,10-19.22c1.49-6.33,1-12.18-1-16.8" transform="translate(-1.56)"/><path class="cls-7" d="M1004,365h.57c.38,0,.94,0,1.66,0l2.64-.17c1-.08,2.23-.15,3.54-.36a75.34,75.34,0,0,0,20.67-5.67l3-1.36c1-.51,2-1,3-1.58,2.06-1,4-2.37,6.08-3.65a71,71,0,0,0,11.35-9.58,58.85,58.85,0,0,0,9-12.22c.64-1.07,1.14-2.25,1.67-3.38a34.43,34.43,0,0,0,1.41-3.45q.62-1.76,1.14-3.51c.3-1.2.56-2.39.79-3.57" transform="translate(-1.56)"/></g><g class="cls-1"><path class="cls-2" d="M1059.75,95.24a60.78,60.78,0,0,0,.56,13.34c1.28,9.14-3.35,16.77-1.76,25.7,2,11.18-1.88,22.18-.5,33.82,2.52,21.35,6.11,43.3,4.71,64.93-.66,10.2-1.08,20.16-1.4,30l-.06,1.84,0,1,0,1.26-.06,5.09-.1,10.32,0,5.24,0,5.37,0,11.07c-.06,15-.07,30.55-.25,47.94l-.15,13.42-.1,7-.05,3.59,0,1.82v1.26l0-.05.16-.2c3.38-4.37,6.88-8.79,10.56-13.33,8.54-10.54,19.1-24.89,30.41-41.35s23.31-34.89,34.14-52.7l.25-.41h0a0,0,0,0,1,0,0,.06.06,0,0,1,0,0,.06.06,0,0,1,.06,0c.05,0,.11.06.13.13a.21.21,0,0,1,0,.09.41.41,0,0,1,.25-.19.8.8,0,0,1,.4,0,5.11,5.11,0,0,1,.37.66c.15.28.29.57.43.85l.43.84.52,1.17a53.48,53.48,0,0,0,4.33,8.07c-.68-1.77-1.33-3.56-1.95-5.33l-.91-2.65-.44-1.33-.11-.32-.09-.24-.17-.48c-.12-.32-.21-.65-.34-1l-.33-.86-.06-.14,0-.08-.07-.16c-.1-.21-.17-.43-.26-.66a8.14,8.14,0,0,0-.73-1.61,3.14,3.14,0,0,0-1.69-1.34,3.85,3.85,0,0,0-3.08.59,5.87,5.87,0,0,1,2.85-2.83,3.7,3.7,0,0,1,2-.13,4.39,4.39,0,0,1,1.77.93,10.51,10.51,0,0,1,2.49,3.37l.24.5.06.13.08.2.24.63c.18.43.32.88.48,1.32l.23.67.27.82,2.19,6.89c1.47,4.64,3,9.38,4.65,14.15a160,160,0,0,0,12.69,28.5,93.69,93.69,0,0,0,9.3,13.23,79.65,79.65,0,0,0,11.6,11.22A81.39,81.39,0,0,1,1172.13,335q-2.6-3.18-4.88-6.62c-1.53-2.28-2.9-4.56-4.21-6.9a153.87,153.87,0,0,1-12-28.64c-1.52-4.77-2.87-9.49-4.16-14.14l-1.9-6.91-.42-1.46c-.12-.47-.27-.93-.42-1.39l-.53-1.66a17.7,17.7,0,0,0-2.9-5.48,8.06,8.06,0,0,0-2.54-2.09,6.39,6.39,0,0,0-3.25-.61c-2.4.21-4.36,1.78-6.14,3.58-.45.46-.9.94-1.34,1.45l-.68.77-.17.2a2.13,2.13,0,0,0-.23.28l-.74,1-5.8,7.88c-7.61,10.22-14.7,19.25-20.93,26.56s-11.61,12.93-15.81,16.31a18.86,18.86,0,0,1-5.36,3.24,5.72,5.72,0,0,1-1,.24l-.47,0h-.11s0,0,0,0l0-.17,0-.34.15-1.33q.58-5.3,1.22-10.15l-.34,6.71,0,.88,0,.44v.22l.07-.08.6-.67,1.23-1.38c1.67-1.89,3.48-4,5.44-6.3,3.91-4.63,8.4-10.17,13.5-16.7s10.78-14.07,17-22.5l4.72-6.48,2.18-3q1-1.36,2-2.64a29.18,29.18,0,0,1,4.54-4.59,16.66,16.66,0,0,1,2.68-1.68,12.37,12.37,0,0,1,3-1,11.94,11.94,0,0,1,4.32.17,11.74,11.74,0,0,1,3.89,1.9,16.88,16.88,0,0,1,1.65,1.4c.47.55,1,1,1.42,1.61a18.68,18.68,0,0,1,1.24,1.73c.4.58.74,1.19,1.09,1.8a39.29,39.29,0,0,1,3.15,7.59c.94,3,1.77,6.54,2.68,9.93,3.56,13.64,7.47,27.61,14.11,40.48a91.86,91.86,0,0,0,5.48,9.34c1,1.53,2.09,3,3.15,4.4s2.23,2.82,3.45,4.13a67.26,67.26,0,0,0,16.2,13.42,49.16,49.16,0,0,0,19,6.47,37.51,37.51,0,0,0,9.48-.05,34,34,0,0,0,4.46-1c.72-.22,1.43-.42,2.13-.66l2-.84,1.05-.44,1-.55c.68-.37,1.36-.74,2-1.13l1.89-1.34c.31-.23.62-.43.91-.68l.85-.75c.55-.51,1.1-1,1.6-1.49l1.38-1.59.64-.77.54-.82q.52-.81,1-1.55a30.61,30.61,0,0,1-6.26,6.46,35.22,35.22,0,0,1-8.55,4.61,34.09,34.09,0,0,1-10.08,1.94,43.61,43.61,0,0,1-10.83-1.17,51.84,51.84,0,0,1-10.59-4,59.18,59.18,0,0,1-9.74-6.32,66.28,66.28,0,0,1-8.56-8.14,72.26,72.26,0,0,1-7.2-9.55,108.51,108.51,0,0,1-10.37-21.59,232.87,232.87,0,0,1-6.72-22.86l-2.79-11.49c-.46-1.83-1-3.71-1.53-5.31-.26-.84-.6-1.66-.9-2.5s-.67-1.66-1.07-2.47a27.06,27.06,0,0,0-6.4-9.05,13.56,13.56,0,0,0-4.93-2.84,12.9,12.9,0,0,0-5.66-.44,14.21,14.21,0,0,0-5.65,2.3,28.53,28.53,0,0,0-4.68,4.1,61,61,0,0,0-4.12,5l-2,2.62-1.78,2.32c-4.71,6.09-9,11.49-12.9,16.16a231,231,0,0,1-18.06,19.8q-1.08,1-2.05,1.9l-1,.84-.12.1s0,0,0-.1l0-.19.06-.77.12-1.5c.32-4,.65-7.53,1-10.73.65-6.4,1.28-11.3,1.83-15.07l.2-1.4.19-1.55.34-2.86.15-1.32,0-.32a3.54,3.54,0,0,0,0-.54l0-1.91.12-7.64c.12-10.19.12-20.41-.07-30.67.38-11.15.59-22.37.75-33.54.34-22.94.45-46-.31-68.95-.34-10.18-.54-24.33-2-36.94s-4.2-23.68-9.8-27.68c-.51,6.54.71,13.8-.15,20.07a51,51,0,0,1-2.84-8c0,2.68-.43,5.65.19,8.16-.57-2.08-1.25-4.2-2.38-5-.35,3.22,1.25,7.82,1.91,10.37.4,1.49,3,8.37,2.5,10.31-2.1-5.1-4-11.53-6.56-15.71-.11,1.75,0,3.49-.24,5.2-1-2.13-1.34-6.26-2.67-7.36.09,4.37.79,8.24.68,12.77a53.39,53.39,0,0,0,.27,10.48c-1-4.2-1.65-9.85-3.48-12.77a18,18,0,0,0,0,6,1.1,1.1,0,0,0-.62-.44c0,.89-.27,2.06-.2,3-.31,0-.61.22-.93,0l.67.06" transform="translate(-1.56)"/><path class="cls-2" d="M1081.43,89.38c.08,4.33.21,10.46-.45,14.41" transform="translate(-1.56)"/><path class="cls-3" d="M1084.24,304.66,1087,301c1.84-2.44,4.6-6.17,8.29-11.33s8.3-11.76,13.73-19.73l4.21-6.22,4.79-7.17a48.44,48.44,0,0,1,6.44-8,19.1,19.1,0,0,1,8.88-5.18A21.53,21.53,0,0,1,1137,243l1.84.18c.61.08,1.21.28,1.81.42a17.49,17.49,0,0,1,6.45,3.69,27.54,27.54,0,0,1,4.93,5.79,43.68,43.68,0,0,1,3.69,6.84c2.2,4.93,3.28,9.5,4.7,14.2s2.76,9.37,4.27,14a149.9,149.9,0,0,0,11.17,26.81,81.05,81.05,0,0,0,7.82,11.71,67.65,67.65,0,0,0,9.54,9.69c6.83,5.66,14.63,9.45,22.14,10.68l2.79.34c.93.06,1.84.07,2.74.11a27.13,27.13,0,0,0,5.06-.5,29,29,0,0,0,8.94-3.32,26.86,26.86,0,0,0,6.52-5.44,18.39,18.39,0,0,0,3.38-6.1,11.83,11.83,0,0,0,.4-2.83c0-.45,0-.86,0-1.26l-.27-1.16-.13-.53-.25-.51c-.17-.33-.33-.63-.49-.9a9.85,9.85,0,0,0-1.31-1.44" transform="translate(-1.56)"/><path class="cls-3" d="M1141.4,255.08a3.65,3.65,0,0,1,.53.44,13.43,13.43,0,0,1,1.41,1.39,24.21,24.21,0,0,1,3.84,6.1c.33.68.62,1.43.93,2.19l.45,1.19.54,1.58.55,1.79.6,2.06,1.28,4.4c1.79,6.06,3.83,12.93,6.52,20.29a132.23,132.23,0,0,0,10.66,22.88,77.76,77.76,0,0,0,17.92,21c7.29,5.89,16,10.28,25,11.69a36.71,36.71,0,0,0,13-.12,30.17,30.17,0,0,0,11-4.63" transform="translate(-1.56)"/></g><g class="cls-1"><path class="cls-2" d="M1078.29,605.85a69.85,69.85,0,0,0,16.17,9.89c5.89,2.66,10.72,6.08,15.73,9.25s10.15,6.1,16.3,7.53c7.69,1.77,14.88,4.52,22.27,7.1s14.93,5,23,5.86c7.39.82,14.8,1.34,22.27,1.72a128.2,128.2,0,0,0,23.48-.62,70,70,0,0,0,11.9-2.67,84.82,84.82,0,0,0,11.13-4.43,147.91,147.91,0,0,0,20-11.87A120.35,120.35,0,0,0,1277.07,614,122.71,122.71,0,0,0,1291,598c.52-.71,1.07-1.41,1.56-2.13l1.47-2.2c1-1.47,2-2.91,2.87-4.44l2.69-4.54,2.46-4.67a123.61,123.61,0,0,0,12.49-40.42,127.55,127.55,0,0,0,.73-21.62,129.21,129.21,0,0,0-10.06-43.15A102,102,0,0,0,1291,450.83l-2.34-2.8c-.78-.94-1.57-1.88-2.45-2.75l-2.59-2.66c-.87-.89-1.73-1.79-2.69-2.6l-2.83-2.49c-1-.82-1.88-1.68-2.92-2.4q-3-2.26-6.14-4.49a106.24,106.24,0,0,0-56.27-17.34,145.47,145.47,0,0,0-25.12,1.37l-3.56.55c-1.2.2-2.41.35-3.61.64l-7.31,1.64c-2.43.67-4.87,1.42-7.32,2.15-.61.19-1.23.36-1.83.57l-1.8.67-3.59,1.36A111.75,111.75,0,0,0,1133,436.4c-1.78,1.34-3.42,2.74-5,4.07-.79.67-1.56,1.32-2.3,2l-2.06,2c-1.33,1.34-2.56,2.64-3.68,3.89s-2,2.56-2.87,3.74l2-2,1-1,1.08-1q2.16-1.93,4.38-3.83l1.11-.95,1.17-.89,2.35-1.77c1.58-1.15,3.12-2.38,4.81-3.41l5-3.17c.82-.54,1.73-1,2.61-1.48l2.67-1.41a112.44,112.44,0,0,1,10.94-5c1.86-.74,3.76-1.33,5.64-2l2.83-.94c.94-.32,1.91-.52,2.87-.78l5.74-1.45c1.92-.41,3.86-.72,5.79-1.07l2.88-.5c1-.16,1.93-.23,2.9-.34l5.76-.58c1.92-.13,3.84-.15,5.75-.22l2.85-.08c.95,0,1.9,0,2.84.07a128.76,128.76,0,0,0-24.49,3.86l-3,.75c-1,.28-2,.61-3,.92-2,.64-4,1.23-5.93,1.92-3.87,1.53-7.79,2.94-11.53,4.83-3.82,1.68-7.43,3.84-11.09,5.88-1.77,1.09-3.48,2.24-5.22,3.36-.86.57-1.75,1.11-2.58,1.72l-2.49,1.84-2.48,1.85c-.83.61-1.65,1.23-2.43,1.91l-4.71,4c-1.55,1.34-3,2.79-4.49,4.18l-2.22,2.11-2.1,2.22a146.52,146.52,0,0,0-15.25,18.81l-3.33,5-3.07,5.12c-1,1.69-1.95,3.46-2.88,5.2s-1.9,3.47-2.7,5.27l-2.5,5.34c-.8,1.79-1.51,3.61-2.26,5.41l-1.1,2.71-1,2.74c-.64,1.83-1.31,3.65-1.91,5.48a177.26,177.26,0,0,0-5.53,22.23,169.85,169.85,0,0,1,13.31-40.51c.78-1.61,1.55-3.24,2.36-4.84l2.59-4.74c.44-.79.86-1.58,1.31-2.36l1.41-2.31,2.86-4.6,3.09-4.47,1.56-2.23,1.66-2.16,3.35-4.29,3.58-4.12,1.8-2.05,1.91-2,3.84-3.9,4.06-3.69,2-1.83,2.14-1.72,4.3-3.42,4.5-3.16,2.26-1.57,2.35-1.44,4.71-2.84,4.93-2.55,2.47-1.26c.83-.39,1.69-.74,2.53-1.1l5.08-2.14c1.71-.65,3.46-1.21,5.19-1.81,3.43-1.27,7-2.05,10.51-3,1.76-.44,3.56-.71,5.34-1.07s3.55-.72,5.35-.88a111.29,111.29,0,0,1,42.55,2.24c1.71.46,3.42.88,5.1,1.38l5,1.74,2.47.89,2.4,1.07,4.76,2.14,4.56,2.52,2.25,1.26c.74.43,1.44,1,2.16,1.43l4.25,2.9c1.38,1,2.67,2.15,4,3.21a84.7,84.7,0,0,1,7.4,6.87,94.21,94.21,0,0,1,6.33,7.67l1.46,2c.49.65.9,1.37,1.35,2,.87,1.38,1.77,2.72,2.58,4.12l2.29,4.24c.39.69.72,1.42,1,2.15l1,2.17a86.89,86.89,0,0,1,5.76,17.76l.49,2.23.35,2.26c.21,1.51.49,3,.63,4.48l.38,4.47c.14,1.47.09,3,.13,4.44a98.12,98.12,0,0,0-4.66-20.35,96.34,96.34,0,0,0-9.43-19.67,87.82,87.82,0,0,0-14.43-17.5l-2.16-1.95c-.36-.32-.71-.66-1.09-1l-1.16-.89-4.67-3.58-5-3.18-1.26-.8-1.32-.7L1248,441.7l-2.68-1.39-2.78-1.18-2.8-1.17-1.41-.59-1.44-.48-5.82-1.91-6-1.47a111.36,111.36,0,0,0-74,9.63c-15.41,7.68-28.8,19-39.78,31.87a151.78,151.78,0,0,0-25.1,43c-.7,1.92-1.48,3.8-2.09,5.74l-1.85,5.78c-.58,1.93-1.07,3.89-1.59,5.82s-1,3.88-1.37,5.83c-.9,3.88-1.49,7.78-2.12,11.64-.47,3.89-1,7.73-1.22,11.57s-.4,7.65-.5,11.41,0,7.51.27,11.21a181.83,181.83,0,0,0,2.41,21.61,134.87,134.87,0,0,0,6.49,24.59,192.41,192.41,0,0,1-7.79-42.75,186.2,186.2,0,0,1,0-22.85,173.73,173.73,0,0,1,3.11-23.29A154.8,154.8,0,0,1,1097.07,499c2-3.61,4.28-7.05,6.55-10.52l3.66-5,.92-1.25,1-1.21,2-2.42,2-2.41,2.11-2.31c1.43-1.52,2.76-3.12,4.3-4.54s3-2.92,4.5-4.35l4.74-4.09A127.25,127.25,0,0,1,1149.54,447a111.12,111.12,0,0,1,23.15-8.89,106.64,106.64,0,0,1,24.15-3.51,112.79,112.79,0,0,1,12,.21l5.93.64c1,.08,2,.29,2.93.46l2.91.53c1,.19,1.94.32,2.89.56l2.84.74c1.88.52,3.79.91,5.6,1.61s3.66,1.24,5.45,1.91l5.25,2.3a88.09,88.09,0,0,1,18.72,12,86.85,86.85,0,0,1,23.84,34.15,96.19,96.19,0,0,1,6.53,35.92,97.26,97.26,0,0,1-2,17.83,106.22,106.22,0,0,1-5.3,17.16c-.6,1.38-1.11,2.78-1.76,4.14l-1.94,4.06c-1.43,2.65-2.81,5.32-4.42,7.86a119,119,0,0,1-10.55,14.65,129.16,129.16,0,0,1-12.66,12.9l-3.43,2.94-3.56,2.78c-2.39,1.84-4.84,3.54-7.28,5.08a74.89,74.89,0,0,1-8.19,4,52.81,52.81,0,0,1-8,2.56,42.84,42.84,0,0,1-8,1,71.22,71.22,0,0,1-9-.31c-3.27-.3-6.73-.78-10.37-1.34s-7.31-1.19-10.95-1.85q-10.91-2-21.58-4.6a274.22,274.22,0,0,1-41.09-13.36,177.88,177.88,0,0,1-19.19-9.6,188.8,188.8,0,0,1-19.41-12.86c-6.08-4.5-11.46-9.14-16.22-12.92-1.16-1-2.37-1.82-3.46-2.66a38,38,0,0,0-3.25-2.23,18.63,18.63,0,0,0-5.91-2.71,63,63,0,0,0,7.16,10.95l1,1.31,1.05,1.26q1,1.26,2,2.53c.7.82,1.38,1.63,2,2.46l1.9,2.46a47.68,47.68,0,0,1-8.91-6.11c2.18,2.8,4.41,6.11,7.15,8.11-1.17-.79-2.31-1.64-3.37-2.29a7,7,0,0,0-2.85-1.15c2.55,3.59,8,7,10.87,8.81.82.58,3.41,1.87,5.92,3.25,1.29.66,2.57,1.34,3.63,2a11.13,11.13,0,0,1,2.37,1.68c-.82-.3-1.66-.62-2.52-1l-2.56-1.12c-1.75-.75-3.47-1.62-5.2-2.47-3.44-1.69-6.76-3.44-9.62-4.68.79.91,1.61,1.79,2.43,2.65a34.13,34.13,0,0,1,2.41,2.6c-2.81-1.28-7-5.2-9-5.49,4.17,4.53,8.53,7.81,13.21,12a62,62,0,0,0,11.67,8.67c-1.32-.64-2.74-1.38-4.19-2.14l-4.31-2.41a48.9,48.9,0,0,0-7.68-3.8,17.37,17.37,0,0,0,3,3c1.12.89,2.27,1.76,3.46,2.54a1.22,1.22,0,0,0-.88.1c1,.76,2.15,2,3.24,2.76-.16.27-.11.69-.51.78.16-.16.31-.32.46-.49" transform="translate(-1.56)"/><path class="cls-2" d="M1085.46,583.89c1,.83,2.15,1.76,3.39,2.67s2.46,1.91,3.76,2.83l3.72,2.77c1.2.88,2.27,1.78,3.25,2.55" transform="translate(-1.56)"/><path class="cls-3" d="M1285.46,483.23l-.37-.76c-.22-.52-.64-1.23-1.18-2.18l-2-3.5-3-4.58c-.57-.86-1.26-1.69-1.94-2.61s-1.39-1.88-2.2-2.84c-1.67-1.85-3.36-4-5.49-6a87.15,87.15,0,0,0-6.94-6.21l-4.13-3a42.37,42.37,0,0,0-4.52-2.88c-12.47-7.68-29.94-12.87-49.4-12.62a109.73,109.73,0,0,0-29.94,4.59,108.44,108.44,0,0,0-29.14,13.66,124.16,124.16,0,0,0-25,22.11,145.45,145.45,0,0,0-18.94,27.84,156.65,156.65,0,0,0-12.13,30.82,170.32,170.32,0,0,0-5.53,31.28,192.73,192.73,0,0,0,3.76,56.41,172.51,172.51,0,0,0,6.49,22.67,126,126,0,0,0,8,17.9" transform="translate(-1.56)"/><path class="cls-3" d="M1166.52,434.12l-5.26,1.8c-1.67.68-3.71,1.57-6.1,2.6-.59.27-1.22.51-1.84.83l-1.92,1-4.19,2.2c-1.48.77-2.91,1.75-4.47,2.68s-3.19,1.92-4.77,3.1l-5,3.58L1127.9,456a135.52,135.52,0,0,0-20.28,21.73,149.87,149.87,0,0,0-17.07,29.34,156.33,156.33,0,0,0-10.61,34.72,167.9,167.9,0,0,0-2.64,36.72,184.26,184.26,0,0,0,4.75,35.44" transform="translate(-1.56)"/></g><g class="cls-1"><path class="cls-6" d="M1333.27,541.94a13.79,13.79,0,0,0,.71,6.46c.71,2.2-.05,4.23-.72,6.29s-1.29,4.13-.35,6.24q.11.25.21.5a3.36,3.36,0,0,1,.18.58q.18.71.31,1.42a27.62,27.62,0,0,1,.35,2.8c.16,1.87.07,3.83.09,5.83a54.17,54.17,0,0,0,.19,6.08c.1,1,.24,2,.43,2.95a13.7,13.7,0,0,0,.91,2.56c.34.72.67,1.46,1,2.14l1.11,1.91a37.45,37.45,0,0,0,2.24,3.54,59,59,0,0,0,5,6.08,50.52,50.52,0,0,0,5.77,5.38,23.65,23.65,0,0,0,7.49,4.06,14,14,0,0,0,7.86,0,19.11,19.11,0,0,0,6.21-3.22,34,34,0,0,0,2.63-2.2c.43-.4.85-.8,1.28-1.23l1.26-1.43,2.58-2.87c.82-1.14,1.64-2.37,2.48-3.56,3.34-4.78,6.46-10.73,9.79-16.69l2.37-4.42.62-1.13.3-.55.23-.39,1-1.58,2-3.16q1-1.6,2-3.2c.83-1.24,1.59-2.53,2.34-3.86s1.52-2.7,2.16-4l1.91-4a2.67,2.67,0,0,1,.75-.05c.85.06,1.1.65.89.24-.1-.2,0-.05.11.14s.1.3-.07-.27a18.8,18.8,0,0,1-.6-4.15c-.23.54-.34.59-.68,0-.14-.26-.32-.63-.56-1.14-.06-.12-.13-.28-.18-.38l-.12-.13-.27-.29a3.87,3.87,0,0,0-1.5-1l-.11-3.11,0-.82v-.42s.1.1.15.14l.64.71a12.35,12.35,0,0,0,4.83,2.95c.54.22,1.19.36,1.86.55l.52.14c.07,0,0,0,0,0l0-.08.71.3,2.86,1.16a49.83,49.83,0,0,0,5.8,1.89c1,.26,1.93.56,2.92.75s2,.37,3,.54l-3-.67c-1-.24-1.94-.58-2.92-.88a49.86,49.86,0,0,1-5.76-2.11l-2.82-1.25c-.19-.08-.6-.29-.46-.18l0,0-.13,0-.53-.21a14.1,14.1,0,0,1-1.94-.89c-2.4-1.33-4.22-3.17-6.31-6.43-.72-1.07-2-3.91-2-2.29a16.84,16.84,0,0,1-1.26,2c-1,1.45-2.49,3.24-4.53,6-.52.68-1.06,1.43-1.64,2.25s-1.24,1.69-1.91,2.65l-.51.74-.58.91-1.18,1.81c-.79,1.2-1.61,2.39-2.48,3.56s-1.72,2.32-2.62,3.44-1.84,2.22-2.78,3.3-1.94,2.12-2.93,3.15l-1.5,1.53c-.49.43-1,.76-1.42,1.11l.82-1.23.93-1.63c.62-1.1,1.27-2.2,1.88-3.33,1.22-2.26,2.48-4.58,3.66-7,.61-1.19,1.21-2.4,1.77-3.64s1.16-2.43,1.73-3.77l1.67-4,1.52-3.72c1.92-4.81,3.48-9,4.61-12.64.56-1.85,1.08-3.58,1.45-5.25l.29-1.24.07-.31,0-.15.14.23.57.92,2.17,3.52a53.9,53.9,0,0,0,9,10.44,36.74,36.74,0,0,0,5,3.48l1.31.75.65.35.25.1.5.24q2,1,4,1.85c10.81,4.37,22.54,5.15,32.31,1.66a25.07,25.07,0,0,0,8.28-4.72,37.43,37.43,0,0,1-16.8,5.73,46.49,46.49,0,0,1-18.68-2.35c-1.52-.56-3.07-1.08-4.56-1.76l-2.21-1.08-2.13-1.09c-.2-.09-.51-.3-.78-.46l-.82-.52-1.63-1.06a32.83,32.83,0,0,1-3.14-2.41,65,65,0,0,1-12-14.09l-2.21-3.66-1.16-1.92c-.13-.28-.12-.06-.15,0l-.08.29-.16.59-.65,2.41c-.26.82-.51,1.69-.82,2.48l-4.37,11.74-1.28,3.55-1.44,3.71c-.46,1.29-1,2.58-1.56,3.9l-1.65,4c-2.07,4.16-4.13,8.1-6.29,11.83-1.1,2-2.31,4-3.46,5.92l-.22.37a1.68,1.68,0,0,1-.18.24l-.34.41-.66.79a11.42,11.42,0,0,1-1.21,1.33,16.84,16.84,0,0,1-3.7,2.68,9.53,9.53,0,0,1-2.57,1,4.07,4.07,0,0,1-2.79-.53,12.07,12.07,0,0,1-.82-4.18,23.12,23.12,0,0,0,0-2.59,4.16,4.16,0,0,0-.26-1,.31.31,0,0,0,0-.09s0,0,0-.07l-.06-.46-.23-1.83-.49-3.65c-.6-4.34-1-10.37-2.42-15.87s-3.92-10.56-9.38-12.93c-.68,2.94.39,6.32-.52,9.12a17.53,17.53,0,0,1-2.73-3.82c-.06,1.24-.5,2.59.08,3.78a5,5,0,0,0-2.32-2.46c-.37,1.49,1.14,3.71,1.8,4.91.37.72,2.95,3.93,2.5,4.8-2.12-2.36-4-5.4-6.5-7.5a14.5,14.5,0,0,1-.28,2.44c-1-1-1.28-3-2.59-3.61,0,2.09.71,4,.58,6.11-.08,1.74-.33,3.31.3,5-1-2-1.67-4.7-3.51-6.17a4.16,4.16,0,0,0,0,2.89,1.46,1.46,0,0,0-.62-.23c0,.43-.27,1-.2,1.44a3,3,0,0,1-.93,0l.67,0" transform="translate(-1.56)"/><path class="cls-6" d="M1354.94,539.62c.09,1.9.24,4.58-.37,6.31" transform="translate(-1.56)"/><path class="cls-7" d="M1380.5,554.36l.46-1,1.23-2.91c.54-1.26,1.15-2.84,1.82-4.68.66-1.62,1.49-4.47,2.33-7.21a175.14,175.14,0,0,0,4.23-19.08l.82-5.29.69-5.43.27-2.76.13-1.4.06-.7,0-.35,0-.17.09.1,3,3.38c1.51,1.95,3,3.87,4.53,5.74s3.23,3.64,4.93,5.33l2.59,2.46a29.31,29.31,0,0,0,2.65,2.35l2.73,2.16c.46.36.91.74,1.38,1.07l1.45.88,2.94,1.76c.5.29,1,.59,1.58.88l1.35.61,2.68,1.18c.89.39,1.83.66,2.74,1l2.73.89c.92.26,1.85.44,2.77.66l2.73.58c.92.13,1.84.23,2.74.33a38.91,38.91,0,0,0,19.49-2.52,40.71,40.71,0,0,0,3.8-2,33.53,33.53,0,0,0,3.21-2.5,16.54,16.54,0,0,0,2.57-2.85,21.87,21.87,0,0,0,1.93-3.11" transform="translate(-1.56)"/><path class="cls-7" d="M1399.06,522l0-.18c.11.16.3.48.52.84.45.74,1.1,1.76,1.87,3,.68.91,1.46,1.92,2.31,3a36.93,36.93,0,0,0,3,3,26.05,26.05,0,0,0,4,2.78,19.29,19.29,0,0,0,2.46,1.27l1.38.59.72.3a3.2,3.2,0,0,0,.66.23,3.12,3.12,0,0,1,.48.17l.57.22,1.15.44,2.33.86c1.57.55,3.24.92,4.87,1.33a38.32,38.32,0,0,0,5,.88l2.54.29c.86.06,1.73.06,2.58.08a40,40,0,0,0,19.6-4.36" transform="translate(-1.56)"/></g><g class="cls-1"><path class="cls-2" d="M1400.75,167.86a202,202,0,0,0,.57,24.57c1.22,16.82-3.29,30.93-1.71,47.37,2.09,20.6-1.71,40.9-.05,62.35l1.13,14.81,1.27,14.89,1.23,15,1.17,15c.79,10,1.44,20,1.86,30.06s.86,20,.86,30q0,3.53,0,7l.12,7,.28,13.89.32,13.76c.11,4.57.35,9.11.53,13.64l1.19,27,1.6,26.76c.45,8.9,1.21,17.76,1.81,26.64s1.12,17.77,1.92,26.67,1.39,17.84,2,26.84,1.5,18,2.14,27.15l.6,8,.32,4.06.42,4.07q.86,8.18,1.83,16.55c.65,5.58,1.31,11.18,2,16.87s1.82,11.75,3,17.7a190.29,190.29,0,0,0,10.86,35.92c5,11.88,11.89,23.72,21.55,33.95A93.86,93.86,0,0,0,1472.87,787a79.19,79.19,0,0,0,18.57,9.93,88.25,88.25,0,0,0,11,3.24q2.89.52,5.83,1c2,.29,3.93.37,5.91.53a84.48,84.48,0,0,0,23.34-2.08,92.32,92.32,0,0,0,20.85-7.73c1.57-.85,3.18-1.62,4.66-2.54l4.4-2.73c1.43-.93,2.77-1.95,4.12-2.91.67-.49,1.34-1,2-1.47l1.87-1.55A88.43,88.43,0,0,0,1588.06,768a72.2,72.2,0,0,0,7.82-12l-1.11,1.68-1.19,1.64-2.42,3.27-2.7,3.24-1.37,1.61c-.47.53-1,1-1.45,1.54l-2.95,3c-1,1-2.07,1.91-3.12,2.86-2.06,1.94-4.34,3.63-6.57,5.39-1.11.88-2.32,1.64-3.49,2.45s-2.33,1.64-3.58,2.34c-2.47,1.45-4.91,2.93-7.53,4.16a90.78,90.78,0,0,1-16.25,6.26c-11.33,3-23.64,4-35.58,1.58-1.48-.32-3-.55-4.43-1l-4.34-1.32a43,43,0,0,1-4.19-1.52c-.68-.28-1.37-.53-2-.84l-2-.93a73.87,73.87,0,0,1-14.66-9.21,75.24,75.24,0,0,0,16.48,8.94c1.45.6,3,1.05,4.44,1.57s3.07.84,4.61,1.25l2.32.58c.78.19,1.57.27,2.35.41,1.57.25,3.14.49,4.72.71a81,81,0,0,0,18.75-.4c1.54-.18,3-.54,4.54-.81l2.26-.45c.75-.16,1.47-.38,2.21-.58l4.4-1.22,4.27-1.51c1.44-.48,2.81-1.08,4.18-1.68s2.77-1.16,4.09-1.85l4-2.05c1.34-.66,2.56-1.49,3.84-2.24,2.58-1.47,5-3.22,7.38-4.9,1.19-.87,2.33-1.81,3.49-2.71l1.73-1.38c.56-.47,1.1-1,1.66-1.46l3.28-3,3.1-3.15c1.05-1,2-2.15,3-3.27s2-2.23,2.85-3.37a130.28,130.28,0,0,0,9.72-14.1A155,155,0,0,0,1612,715.41c.89-2.57,1.6-5.15,2.38-7.72s1.43-5.15,2-7.72c1.3-5.14,2.35-10.27,3.33-15.37s1.79-10.17,2.5-15.23l1.09-7.57c.33-2.52.6-5.05.89-7.57s.58-5,.83-7.55l.63-7.54c.46-5,.69-10,.93-15A470.18,470.18,0,0,1,1620,680a271,271,0,0,1-6.59,28,169.59,169.59,0,0,1-10.8,27.52,120.81,120.81,0,0,1-16.88,25.32,96,96,0,0,1-24,19.8l-3.4,1.93-3.52,1.72c-2.31,1.2-4.8,2.09-7.22,3.08-1.21.49-2.49.84-3.74,1.26l-1.88.6a18.35,18.35,0,0,1-1.9.54,79.22,79.22,0,0,1-23.75,2.63l-4-.39-2-.21-2-.37-4-.78c-1.31-.33-2.6-.74-3.9-1.12a67.63,67.63,0,0,1-27-15.86,87.58,87.58,0,0,1-17.48-24,137.79,137.79,0,0,1-9.95-26.31,217.5,217.5,0,0,1-5.38-26.65c-.62-4.43-1.16-8.86-1.57-13.26l-1.12-13.14-1-13.07c-.31-4.35-.72-8.67-.88-13q-.63-13-1.1-25.85l-.23-6.41c-.07-2.13-.06-4.27-.09-6.41q0-6.39-.08-12.75l1.2,14.85c.18,2.5.44,5,.7,7.51l.77,7.57,1.54,15.33.78,7.75c.26,2.59.62,5.18.93,7.79,1.3,10.41,2.57,21,4,31.63a264.67,264.67,0,0,0,6.32,31.88,141.84,141.84,0,0,0,12.06,31,87.68,87.68,0,0,0,9.57,14.09,75.31,75.31,0,0,0,5.93,6.3A67.34,67.34,0,0,0,1485,774a59.75,59.75,0,0,0,33.35,11.14,65.7,65.7,0,0,0,17.83-1.92,44.32,44.32,0,0,0,4.33-1.16c1.42-.46,2.86-.88,4.26-1.39l4.16-1.66c1.39-.56,2.7-1.26,4.06-1.89a90.58,90.58,0,0,0,28.18-21.72,118.51,118.51,0,0,0,10.47-14.26,141.19,141.19,0,0,0,8.17-15.47,188.83,188.83,0,0,0,10.88-32.48c1.36-5.47,2.48-10.95,3.51-16.4.53-2.73,1-5.45,1.4-8.18l1.3-8.15c6.29-43.46,5.74-86.12-.8-124.38-1.07-5.8-2.17-11.9-3.65-17.7-.71-2.9-1.4-5.74-2.16-8.44s-1.57-5.25-2.33-7.6c10,37,14.3,78.7,11.36,121.72l-.58,8.08-.81,8.1c-.5,5.42-1.28,10.82-2,16.26-.35,2.72-.81,5.43-1.27,8.14l-1.39,8.15c-1,5.43-2.13,10.87-3.41,16.3s-2.78,10.84-4.47,16.22-3.67,10.69-5.9,15.92A123.45,123.45,0,0,1,1582,750.63c-.93,1.1-1.79,2.24-2.78,3.3l-3,3.17c-1,1-2.08,2-3.12,3s-2.14,1.93-3.25,2.84c-2.17,1.9-4.54,3.54-6.85,5.23-2.43,1.54-4.81,3.14-7.36,4.46a76.81,76.81,0,0,1-15.8,6.59c-.68.2-1.36.43-2,.61l-2.09.47c-1.4.29-2.76.7-4.18.85l-4.21.61-4.24.27a61.85,61.85,0,0,1-16.74-1.69,71.27,71.27,0,0,1-7.9-2.68c-1.29-.5-2.51-1.16-3.77-1.74s-2.43-1.31-3.61-2a62.53,62.53,0,0,1-12.69-10.25,76.27,76.27,0,0,1-9.76-12.85,121.72,121.72,0,0,1-12.53-29.32,233.57,233.57,0,0,1-6.62-30.85c-.39-2.58-.75-5.17-1.09-7.75l-.92-7.83-1.82-15.52c-.58-5.14-1.25-10.23-1.75-15.32l-1.45-15.14c-1.94-18.37-3.17-36.85-4.71-55.31-1.12-18.52-2.51-37-3.37-55.62l-.79-13.95c-.31-4.65-.43-9.32-.66-14l-1.36-28-2.44-56.36-.29-15.4q-.09-7.72-.19-15.45c-.14-10.3-.37-20.6-.42-30.9-.5-42.26-.63-84.87-1.43-127.2-.77-37.57-.61-104.68-11.79-119.15-.51,12.08.73,25.45-.16,37.05-1-4.4-2.18-9.45-2.84-14.66,0,4.95-.43,10.43.18,15.05-.56-3.82-1.24-7.73-2.37-9.21-.35,6,1.24,14.39,1.9,19.08.39,2.75,3,15.38,2.49,19-2.09-9.37-4-21.21-6.55-28.86-.11,3.23,0,6.44-.24,9.58-1-3.9-1.34-11.52-2.67-13.51.08,8,.79,15.17.67,23.51-.09,6.76-.35,12.84.24,19.32-1-7.73-1.61-18.12-3.46-23.47a60.8,60.8,0,0,0,0,11,1.39,1.39,0,0,0-.62-.81c0,1.63-.28,3.79-.21,5.49-.31,0-.61.42-.93.08.22,0,.44.07.67.1" transform="translate(-1.56)"/><path class="cls-2" d="M1422.45,156.69c.08,8,.17,19.34-.47,26.64" transform="translate(-1.56)"/><path class="cls-3" d="M1440.53,637.77l.55,4.78c.32,3.13,1,7.71,1.82,13.59l3.09,21.34c1.16,8.32,2.75,17.56,5.14,27.63a171.46,171.46,0,0,0,10.62,31.7,101.52,101.52,0,0,0,9.11,15.91,79,79,0,0,0,5.95,7.41,71,71,0,0,0,7.06,6.65,62.68,62.68,0,0,0,8.2,5.53,59.28,59.28,0,0,0,9.23,4.08,55.21,55.21,0,0,0,20.49,2.77c14.17-.74,28.38-6.57,40.28-15.6s21.29-21.6,28.08-35.37,11.13-28.84,14.32-43.94c.8-3.78,1.52-7.57,2.19-11.37s1.23-7.61,1.83-11.39l.45-2.84.37-2.84.73-5.67c.23-1.89.5-3.77.7-5.65l.56-5.64a430.62,430.62,0,0,0,2.23-44.08,389.15,389.15,0,0,0-7.58-78.13c-1.09-5.73-2.51-11.21-3.81-16.45s-2.89-10.2-4.34-14.91-3.15-9.12-4.77-13.24-3.36-7.94-5-11.47" transform="translate(-1.56)"/><path class="cls-3" d="M1530.16,786.93l2-.32c.65-.13,1.49-.2,2.43-.45l3.28-.8a82.36,82.36,0,0,0,20.09-8.25l3.08-1.79,3.11-2.07,1.6-1.08c.53-.37,1-.79,1.57-1.18l3.22-2.48A100.51,100.51,0,0,0,1583.17,756a126.87,126.87,0,0,0,20.15-35.52c5.24-13.69,8.79-28.8,11.33-44.46a439.41,439.41,0,0,0,5-48.65,405.93,405.93,0,0,0-.73-50.1,359.65,359.65,0,0,0-7.08-48.47" transform="translate(-1.56)"/></g><g class="cls-1"><path class="cls-2" d="M1285.32,438.48a30,30,0,0,0,9.08-2.26c6.07-2.39,12.12,1.21,18-1.42,7.37-3.31,15.6-.81,23.4-3.49,14.31-4.94,28.9-10.87,44.11-11.7,28.67-1.58,54.18-6.08,82.24-5.4,16.31.4,34.55-.89,50.91-4.5,12-2.63,36.75-4.83,46.14-11.67-13.5,4.34-28.38,5.34-42.34,5.84,29.6-6.65,60.68-12.42,89.08-22.53-53.57,17.07-110.23,21.94-163.64,14.4,30.14-1.63,64.94-2.85,99-7.18s67.53-11.77,94.82-25.73a76.93,76.93,0,0,0,12-7.46c-26.57,16.28-59.22,24.47-92.94,28.84s-68.52,5-99.48,6.16c-28.43,1.12-56.94,2.77-85.32,7.79-7.81.78-15.62,1.8-23.41,2.87-16,2.21-32,4.8-47.7,8.39-14,3.19-39,7.93-42.5,20,4.59-.37,9.37-2.57,13.84-2.54a31,31,0,0,1-5,3.86c1.85-.36,4-.34,5.58-1.27-1.33.83-2.67,1.78-3,3,2.28-.09,5.16-2.26,6.8-3.24,1-.58,5.24-4,6.67-3.81-3.15,2.73-7.24,5.46-9.67,8.51a27.3,27.3,0,0,1,3.62-.45c-1.29,1.25-4.07,2.14-4.59,3.59,3-.66,5.53-1.86,8.66-2.33a26.76,26.76,0,0,0,7.17-1.61c-2.72,1.51-6.49,2.88-8.18,5.07a8.88,8.88,0,0,0,4.12-.74,1.19,1.19,0,0,0-.2.66c.61-.13,1.46,0,2.08-.18.07.3.26.57.19.91l-.08-.67" transform="translate(-1.56)"/><path class="cls-2" d="M1277.49,417.89c3-.65,7.19-1.55,10-1.41" transform="translate(-1.56)"/><path class="cls-3" d="M1459.37,393s40.53-3.4,86.23-11.94,96.51-22.17,117-41.64" transform="translate(-1.56)"/><path class="cls-3" d="M1533.06,392.08a315.17,315.17,0,0,0,36.08-6.64c20.8-5,47.11-13.4,69.14-26.81" transform="translate(-1.56)"/></g></g></g></svg>