<svg xmlns="http://www.w3.org/2000/svg" viewBox="0 0 392.43 410.63"><defs><style>.cls-1{opacity:0.24;}.cls-2{opacity:0.7;}.cls-3{fill:#7980b8;}.cls-4{fill:none;stroke:#7980b8;stroke-width:0;}</style></defs><title>heart</title><g id="Layer_2" data-name="Layer 2"><g id="Layer_5" data-name="Layer 5"><g class="cls-1"><g class="cls-2"><path class="cls-3" d="M129.86,316.32c-4.42-2.71-8.6-5.87-12.89-8.77s-8.31-6.07-12.31-9a149.38,149.38,0,0,1-11.76-9.8c-3.77-3.22-7.11-6.74-10.51-10.16-1.68-1.73-3.43-3.39-5.06-5.17L72.43,268l-5-5.41q-2.44-2.84-5-5.71C53.59,247.4,46.27,236.82,39.17,226c-6.7-11.05-13.15-22.45-19-34.46a148.24,148.24,0,0,1-7-17A88.87,88.87,0,0,1,9.1,156.81a63.63,63.63,0,0,1,.26-18.15,51.77,51.77,0,0,1,2.23-8.81,54.83,54.83,0,0,1,3.66-8.38,67.22,67.22,0,0,1,25.61-26A67.75,67.75,0,0,1,76.1,86c16,.25,31.33,5.8,44.2,14.41A97.11,97.11,0,0,1,151.15,134a117.34,117.34,0,0,1,13.51,43.11,149.56,149.56,0,0,1-1.73,45.14l7.67,1.17a414.93,414.93,0,0,1,19.71-80.93c4.36-12.43,9.49-25.06,15.22-37.68,2.92-6.27,5.91-12.56,9.24-18.69,1.6-3.11,3.39-6.1,5.1-9.16l2.72-4.48,1.36-2.24,1.43-2.19,2.87-4.39,3-4.27c.51-.71,1-1.43,1.52-2.13l1.59-2.07c1.07-1.37,2.1-2.78,3.2-4.12,2.24-2.64,4.4-5.36,6.79-7.84l1.75-1.9.87-1,.92-.9,3.67-3.6c1.21-1.21,2.54-2.27,3.8-3.41s2.53-2.27,3.89-3.28l4-3.12c1.37-1,2.76-1.9,4.14-2.86l2.07-1.42,2.15-1.27c1.43-.84,2.84-1.72,4.28-2.53l4.41-2.23c.73-.36,1.46-.77,2.2-1.09l2.2-1a77.16,77.16,0,0,1,15.06-4.55,87.76,87.76,0,0,1,18.41-1.58c13,.22,27.19,3.6,38.91,10.62A58.29,58.29,0,0,1,365.31,24c.64.53,1.28,1.06,1.87,1.64s1.21,1.12,1.79,1.7c1.12,1.19,2.27,2.35,3.26,3.61s2,2.53,2.91,3.79l1.27,2,.63,1,.56,1c.37.68.76,1.34,1.11,2l1,2.07c.34.67.62,1.38.9,2.08s.56,1.39.8,2.1a72.78,72.78,0,0,1,3.73,16.56A131.07,131.07,0,0,1,385.89,78c.35-11.21-.62-22.51-4.47-32.64a53.62,53.62,0,0,0-7.88-14,59.57,59.57,0,0,0-11.74-11.21A75.77,75.77,0,0,0,331.33,7.59a89.43,89.43,0,0,0-32.9.14,88,88,0,0,1,17.84-1.92,86,86,0,0,1,18,1.72A84.78,84.78,0,0,1,343,9.77a78.24,78.24,0,0,1,8.4,3.25,72,72,0,0,1,7.92,4.21,64.63,64.63,0,0,1,7.21,5.25,54.62,54.62,0,0,1,11.58,13.31l.59.93.53,1,1.06,1.94c.62,1.34,1.28,2.66,1.83,4a59.09,59.09,0,0,1,2.75,8.51,84.55,84.55,0,0,1,2.26,18.1,126.57,126.57,0,0,1-1,18.65c-.35,3.12-.62,6.25-1.22,9.33l-.79,4.64c-.27,1.55-.49,3.1-.88,4.62l-2.11,9.18-2.59,9.05a261.59,261.59,0,0,1-13.82,35,360.3,360.3,0,0,1-18,33c-6.5,10.68-13.31,21.12-20.34,31.32,13.17-19.11,25.73-38.65,36.09-59.25l3.81-7.75,3.51-7.87.88-2c.28-.66.53-1.33.8-2l1.58-4,1.59-4c.51-1.34.94-2.7,1.42-4.05l1.4-4.06c.45-1.36,1-2.69,1.34-4.08l2.39-8.23c.44-1.36.68-2.77,1-4.15l1-4.17c.31-1.39.68-2.77.94-4.17l.73-4.21c2-11.19,3.26-22.64,2.74-33.77S384.63,45.24,379.12,36a59.94,59.94,0,0,0-23.4-22,82.29,82.29,0,0,0-31.45-9.32,91,91,0,0,0-32.79,2.84,78.67,78.67,0,0,0-15.33,6.05A113.37,113.37,0,0,0,261.88,22a136.33,136.33,0,0,0-24.61,22.34,202.68,202.68,0,0,0-19.68,26.86,299.52,299.52,0,0,0-15.8,29.2q-7.11,15-13.05,30.31a459.22,459.22,0,0,0-19.17,62.21,439.68,439.68,0,0,1,22.74-74.42,369.5,369.5,0,0,1,17.1-36.75c.78-1.52,1.65-3,2.49-4.49s1.67-3,2.56-4.46c1.81-2.92,3.52-5.91,5.46-8.76A205.35,205.35,0,0,1,232.1,47.23c8.83-10.7,18.86-20.7,30.58-28.47l2.19-1.47,1.09-.73,1.14-.66,4.56-2.64A24.49,24.49,0,0,1,274,12l2.37-1.16c1.59-.76,3.14-1.6,4.78-2.23a86,86,0,0,1,20.26-5.71A92.27,92.27,0,0,1,343.21,6,76.9,76.9,0,0,1,353,9.87c1.61.71,3.14,1.58,4.69,2.4.77.42,1.51.9,2.26,1.34s1.5.91,2.22,1.41a62.49,62.49,0,0,1,15.3,14.21,61.08,61.08,0,0,1,5.5,8.86c.4.77.73,1.58,1.09,2.37s.72,1.58,1,2.4.63,1.62.9,2.45.56,1.65.8,2.49a81.68,81.68,0,0,1,3.13,20.7,128.49,128.49,0,0,1-1.14,21.07l-.61,5.25c-.25,1.74-.6,3.47-.89,5.2l-.92,5.19c-.13.87-.33,1.73-.54,2.58l-.6,2.56a229.59,229.59,0,0,1-13.13,39.79,326.22,326.22,0,0,1-18.92,36.91c-14,23.69-29.69,45.73-45,67.15-7.65,10.71-15.2,21.29-22.45,31.8s-14.13,21-20.55,31.49c-1.9,3.2-3.93,6.45-5.81,9.8s-3.81,6.68-5.57,10-3.48,6.61-5,9.78l-4.26,9c5.14-11,11-21.88,17.43-32.73s13.43-21.59,20.74-32.35c14.62-21.51,30.62-42.94,46.09-65.29,7.74-11.17,15.34-22.58,22.44-34.4a358.27,358.27,0,0,0,19.5-36.7,239.41,239.41,0,0,0,14.07-39.44L386,110.1c.39-1.71.87-3.4,1.13-5.14.6-3.46,1.29-6.91,1.81-10.38l1.25-10.48c.31-3.5.51-7,.57-10.53a93.22,93.22,0,0,0-1.86-20.93,59.44,59.44,0,0,0-21.57-35.09,74.58,74.58,0,0,0-8.73-5.91,80,80,0,0,0-9.51-4.58,91.56,91.56,0,0,0-41.46-6A90.3,90.3,0,0,0,287,5.14a75.33,75.33,0,0,0-9.77,3.92l-4.73,2.3c-1.55.81-3,1.73-4.57,2.59l-2.27,1.31c-.75.44-1.46,1-2.19,1.44l-4.36,2.91c-1.41,1-2.78,2.11-4.17,3.16l-2.08,1.59-2,1.7-4,3.41-3.75,3.61-1.87,1.81-1.78,1.89L236,40.57A209.9,209.9,0,0,0,212.13,74a330,330,0,0,0-17.9,36c-5.21,12.18-9.89,24.42-13.88,36.69s-7.53,24.78-10.47,37.42-5.31,25.45-7.13,38.35l8,1.21a156.76,156.76,0,0,0,1.11-52.89,128.49,128.49,0,0,0-6.82-26,111.34,111.34,0,0,0-12.67-24,105.37,105.37,0,0,0-18.45-20.11,97.62,97.62,0,0,0-23.26-14.62,88,88,0,0,0-26.81-7.2l-1.74-.18-.87-.09-.88,0-3.51-.1-1.76,0c-.59,0-1.18,0-1.77,0-1.18,0-2.36.1-3.54.21a75.92,75.92,0,0,0-13.91,2.48,80.37,80.37,0,0,0-36.1,21.1A72,72,0,0,0,7.17,119.52,63.14,63.14,0,0,0,.68,140.07,73.17,73.17,0,0,0,0,151a85.37,85.37,0,0,0,.95,10.84,107.83,107.83,0,0,0,5.36,20.68,175.44,175.44,0,0,0,8.32,19.23c1.54,3.1,3.25,6.09,4.87,9.13L22,215.48c.42.75.8,1.53,1.25,2.26l1.35,2.2L30,228.76l1.35,2.2,1.46,2.13,2.93,4.26,2.94,4.25c1,1.42,1.94,2.84,3,4.19L48,254c2,2.77,4.34,5.33,6.57,8s4.44,5.25,6.76,7.79l7.1,7.46c1.19,1.23,2.35,2.5,3.57,3.7l3.73,3.54L82.63,291c2.47,2.21,5.11,4.41,7.78,6.72l4.08,3.49c1.37,1.19,2.86,2.25,4.31,3.4l8.94,6.89,9.5,6.58c1.61,1.08,3.16,2.25,4.83,3.26l5,3.06,5,3,2.47,1.51c.84.48,1.69.93,2.54,1.39l10,5.43c13.43,6.72,26.4,12.23,37.36,15.57,2.73.87,5.31,1.67,7.71,2.39s4.7,1.15,6.76,1.62a91.48,91.48,0,0,0,9.75,1.73c-7.32-2.4-15.16-4.52-22.66-7.44-7.63-2.57-14.86-5.94-21.63-8.94l8.42,3.06,4.48,1.67c.76.28,1.51.6,2.29.85l2.35.77c-3-1-6-2.47-9-3.74s-6-2.53-8.68-3.64a102.4,102.4,0,0,0,11,3.91c-1.72-.77-3.64-1.59-5.64-2.4l-3-1.23-1.54-.61-1.5-.68L153,333.94c-1.64-.63-6-2.84-10.49-5.11-2.24-1.15-4.54-2.27-6.47-3.35s-3.5-2.09-4.45-2.74c5.16,3,11.32,5.83,17.09,8.7l2.16,1.05,2.18.93,4.22,1.77c2.73,1.14,5.28,2.17,7.53,3-3.65-1.84-7.31-3.6-10.84-5.44,4.57,1.88,13.21,6.1,15.76,6.53l-3.46-1.47c-1.14-.49-2.22-1.06-3.33-1.57l-6.54-3.13c-4.41-2-8.64-4.41-13.23-7-1.85-1.06-3.68-2.05-5.44-3.1l-5.13-3.24-5.09-3.17-2.57-1.57-2.53-1.69c1,.65,2.06,1.4,3.2,2l3.45,2,7,4.12c2.27,1.4,4.6,2.5,6.68,3.55s4,1.94,5.5,2.62c-1.92-1.16-3.93-2.31-6-3.43l-3.06-1.68c-1-.55-2-1.2-3-1.78a3.11,3.11,0,0,0,1,.36c-1.74-1.09-4-2.61-5.81-3.73,0-.12-.34-.45.07-.32a1.18,1.18,0,0,0-.22.13"/><path class="cls-3" d="M138.4,330c-1.12-.63-2.32-1.27-3.52-2l-3.68-2.3-7.71-4.84c-.64-.41-1.29-.81-1.93-1.23l-1.85-1.31-3.58-2.55-6.38-4.62"/><path class="cls-4" d="M184.65,136.9l2.06-5.79,2.6-7c1-2.74,2.3-5.87,3.72-9.39,2.88-7,6.54-15.52,11.28-25.12A256.43,256.43,0,0,1,222.46,58.3c1.93-2.74,3.85-5.57,6-8.31,1.08-1.38,2.1-2.82,3.26-4.18l3.47-4.15c1.14-1.42,2.45-2.71,3.69-4.1s2.5-2.76,3.88-4.06l4.08-4,4.37-3.83c1.44-1.33,3-2.49,4.59-3.72s3.12-2.48,4.82-3.57,3.32-2.31,5.05-3.4L271,11.85c.88-.55,1.83-1,2.76-1.45L276.59,9c.95-.45,1.87-1,2.84-1.38l2.93-1.25a91.54,91.54,0,0,1,12.32-3.87A93.73,93.73,0,0,1,348.12,5.6a73.06,73.06,0,0,1,24.19,14.67A59.37,59.37,0,0,1,388.14,44.4c3.28,9.26,4.34,19.21,4.29,29.07a126.47,126.47,0,0,1-1,14.8l-.83,7.39L389.36,103l-.64,3.67c-.26,1.22-.56,2.42-.83,3.64l-1.69,7.27c-.66,2.4-1.37,4.78-2.06,7.18l-1,3.59c-.36,1.19-.8,2.36-1.2,3.54l-2.43,7.06c-.87,2.33-1.82,4.63-2.73,6.94l-1.37,3.46c-.46,1.15-1,2.27-1.5,3.41l-3,6.79a424.14,424.14,0,0,1-29.07,51c-10.61,16.12-21.65,31.5-32.33,46.36s-21,29.24-30.4,43.25-17.8,27.63-24.87,40.77A295,295,0,0,0,237,378.46a220,220,0,0,0-9,32.16"/><path class="cls-4" d="M355.21,11.88l2,1.07c.66.34,1.44.85,2.38,1.4s2,1.26,3.18,2.06,2.43,1.79,3.84,2.82,2.81,2.32,4.26,3.77a57.54,57.54,0,0,1,8.82,10.78,58.74,58.74,0,0,1,6.87,15.67,84.12,84.12,0,0,1,2.78,20c.1,3.62,0,7.37-.22,11.22l-.2,2.9c-.08,1-.21,2-.32,2.94l-.67,6c-.12,1-.2,2-.36,3L387,98.63,386,104.84l-.28,1.57-.36,1.56-.73,3.15c-.49,2.11-1,4.24-1.49,6.38a265.13,265.13,0,0,1-20.5,52.36,518.18,518.18,0,0,1-31.69,52.43c-11.7,17.35-24.16,34.59-36.2,51.88s-23.61,34.68-33.69,52.12"/></g></g></g></g></svg>