<svg xmlns="http://www.w3.org/2000/svg" viewBox="0 0 1726 1258.24"><defs><style>.cls-1{opacity:0.7;}.cls-2{fill:#2f9288;}.cls-3{fill:none;stroke:#2f9288;stroke-width:0;}</style></defs><title>hope</title><g id="Layer_2" data-name="Layer 2"><g id="Layer_4" data-name="Layer 4"><path d="M535.1,185.84a1.5,1.5,0,0,0,0-3,1.5,1.5,0,0,0,0,3Z" transform="translate(-1.73)"/><path d="M535.1,185.84a1.5,1.5,0,0,0,0-3,1.5,1.5,0,0,0,0,3Z" transform="translate(-1.73)"/><path d="M535.1,185.84a1.5,1.5,0,0,0,0-3,1.5,1.5,0,0,0,0,3Z" transform="translate(-1.73)"/></g><g id="Layer_5" data-name="Layer 5"><g class="cls-1"><path class="cls-2" d="M26.34,319.25c3.24,5.49,6.76,11,10.13,16,7.18,10.83,11.59,20.9,18.67,31.43,8.87,13.21,15.94,27.22,25,41.09,16.5,25.49,33.76,51.64,49.2,78.24,29.09,50.13,56.31,95.21,83.42,144.07,15.76,28.4,34.12,60.41,51.69,89.5,12.86,21.29,37.85,64.93,50.12,82.43-15-24.29-29.93-50.45-43.68-74.92,31.84,52.72,64.5,108,96.5,159.45C307.94,789.87,250.8,690.31,201.89,598.07c30.37,52.88,64.86,113.86,99.88,174.23S372.37,892.4,405.06,942.7c5,7.62,10.58,16,15,22.29-33.11-49.51-68.23-108.06-102.85-167.8s-68.73-120.66-99.64-175c-28.37-49.86-57.3-99.88-87.79-150-8.11-13.73-16.34-27.49-24.6-41.19C88.23,402.88,71,374.66,53.6,346.87c-15.44-24.68-42.84-68.76-51.87-76.2,4.79,8,10.6,16.56,15.09,24.34-2.07-2.71-4.47-5.81-6.78-9.1,2,3.25,4.14,6.92,6.2,9.84a42.13,42.13,0,0,0-4.42-5.61c2.33,4,6.22,9.22,8.32,12.18,1.23,1.73,7.11,9.56,8.44,12-4.41-5.78-9.78-13.2-13.61-17.76,1.29,2.14,2.64,4.22,3.84,6.33-1.87-2.38-5.07-7.31-6.26-8.38,3.31,5.26,6.41,9.81,9.77,15.3,2.73,4.45,5.14,8.49,7.93,12.63-3.41-4.91-7.83-11.6-10.53-14.78,1.32,2.43,2.92,4.85,4.48,7.23a1.34,1.34,0,0,0-.5-.42c.67,1.07,1.47,2.53,2.18,3.64-.07.08,0,.38-.23.22a1.51,1.51,0,0,0,.23-.06" transform="translate(-1.73)"/><path class="cls-2" d="M27.87,308c3.29,5.23,7.93,12.68,10.72,17.6" transform="translate(-1.73)"/><path class="cls-3" d="M219.93,628.3l26.69,45.81,28.52,48.65,34.31,58.18c24.12,40.67,49.91,83.87,73.31,121.85s44.32,70.76,58.77,90.53" transform="translate(-1.73)"/><path class="cls-3" d="M292.09,757.27l10.59,18.13c6.68,11.4,16.19,27.44,27.39,46,22.4,37.22,51.6,84.71,79,125.69" transform="translate(-1.73)"/></g><g class="cls-1"><path class="cls-2" d="M21,904.76c.73-6.24,1.21-12.62,1.59-18.63a162.52,162.52,0,0,1,2.36-18c.48-2.89,1-5.76,1.38-8.69.21-1.47.4-2.95.58-4.45s.39-3,.55-4.58c.82-7.8,2-15.48,3.42-23.2s3-15.49,4.14-23.56c4.51-29.57,10-60,18.06-89.31,7.58-27.57,15.25-53.75,23.74-79.4s17.4-50.88,27.71-76.42c11.93-29.71,25.79-63.32,38.49-94.31,2.27-5.69,5.34-12.75,8.65-20.5s7-16.13,10.58-24.43,7.17-16.49,10.27-23.85c1.55-3.68,3-7.16,4.26-10.33s2.41-6,3.31-8.51c-11.1,25.92-23.59,52.83-34.92,78.1,23.15-56.18,49.78-113.71,74.34-168.26l-35,76.47Q167,401.1,150.11,439c-11.3,25.18-22.2,50.23-32.8,74.92-2.62,6.19-5.32,12.31-7.88,18.46l-7.71,18.33-7.52,18.2-3.74,9-3.62,9c10.38-28.32,22.3-58.44,35.26-89.29S149,435.18,163.26,403.8c28.48-62.77,58-124.74,81.73-179.1,3.58-8.25,7.48-17.45,10.25-24.47-22.89,54.23-52,115.08-80.69,177-14.36,30.93-28.62,62.13-42,92.82s-26,60.9-37.15,89.73c-2.52,6.63-5.13,13.24-7.59,19.92l-7.34,20.06c-4.72,13.46-9.45,27-13.8,40.62-8.8,27.3-16.89,55-23.77,83.33-2,7.66-3.77,15.38-5.65,23.1-1,3.85-1.79,7.74-2.64,11.62L32,770c-6.76,31.86-12.2,64.27-15.84,96.63l-1.32,11.7c-.43,4.18-.78,8.59-1.18,13.11l-1.13,13.75c-.27,4.62-.48,9.22-.68,13.69s-.34,8.79-.44,12.85.05,7.88.16,11.3c.22,6.84.69,12.13,1.5,14.91.6-9.22.56-19.45,1.35-28.3.07,3.37.38,7.25.4,11.22l.3-5.84c.08-2,.17-3.89.21-5.65a34.67,34.67,0,0,0,.42,7.05c.25-4.54.26-11,.27-14.57,0-2.1-.17-11.79.18-14.53.2,7.2.21,16.25.65,22.11.21-2.46.33-4.9.59-7.29.13,3-.18,8.78.18,10.32.38-6.12.54-11.55,1-17.88l.56-7.42c.18-2.41.41-4.79.54-7.26a178.15,178.15,0,0,0-.25,17.9c.35-2.7.47-5.57.6-8.37a1.32,1.32,0,0,0,.16.63l.37-4.16c.11,0,.23-.3.32,0a1.52,1.52,0,0,0-.22-.09" transform="translate(-1.73)"/><path class="cls-2" d="M13.12,912.8c.32-6.13,1.17-14.79,1.91-20.35" transform="translate(-1.73)"/><path class="cls-3" d="M98.51,554.11l1.32-3.44,3.8-9.8c1.66-4.24,3.61-9.43,6-15.39l8-20.17,9.89-24.14,11.5-27.34c8.21-19.09,17.17-39.85,26.75-61.16,19-42.69,40.06-87.75,58.45-127.81s34.2-75.1,42.68-97.77" transform="translate(-1.73)"/><path class="cls-3" d="M156.78,420.22l8.48-18.92L187,353c8.8-19.56,19-41.85,29.24-64.88s20.79-46.76,30.23-69.22" transform="translate(-1.73)"/></g><g class="cls-1"><path class="cls-2" d="M74,69.35c2.7,4.66,5.67,9.27,8.52,13.56,6.07,9.15,9.59,17.77,15.56,26.67,7.45,11.19,13.1,23.2,20.63,35,6.82,10.86,13.79,21.87,20.64,33s13.39,22.49,19.59,33.9c5.87,10.74,11.46,21.32,17.06,31.69l8.34,15.47c2.77,5.13,5.44,10.27,8.14,15.39,5.37,10.24,10.76,20.42,16,30.73s10.38,20.74,15.53,31.35c6,12.35,12.3,25.56,18.94,38.78s13.24,26.65,19.89,39.35c2.44,4.64,5.38,10.54,8.57,17l10.16,20.4,5.17,10.22c1.68,3.34,3.32,6.56,4.89,9.6,3.15,6.07,6,11.37,8.39,15.22-2.78-5.35-5.54-10.81-8.26-16.31l-8.1-16.61c-5.38-11.09-10.59-22.2-15.59-32.95,23.83,46.22,47.49,95,70.49,140.71-10.57-21.51-21.28-43-31.69-64.57q-7.93-16.11-15.66-32.22l-15.46-32-15.18-31.79-14.85-31.43q-7.38-15.58-14.45-31t-14.08-30.39c23.37,45.95,49.15,99.26,74.67,152.4s50.89,106.09,74.3,151.09c3.61,6.79,7.6,14.36,10.81,20-23.83-44.39-48.68-96.41-73.72-149.1s-50.19-106.07-73.72-153.37l-16.38-32.57L196.24,264c-2.82-5.43-5.73-10.83-8.66-16.23l-8.81-16.21c-3-5.4-5.9-10.83-8.94-16.21l-9.18-16.16-9.85-17.72c-3.31-5.9-6.71-11.76-10.07-17.63-6.92-12-13.84-24.12-21-36.06L109,109.86l-5.4-8.92-5.49-8.85-11.24-18-6.29-9.93c-2.15-3.3-4.32-6.58-6.44-9.74C65.62,41.76,57.76,31,53.69,28c4,6.77,9,13.95,12.82,20.53-1.8-2.26-3.89-4.83-5.88-7.59,1.72,2.74,3.5,5.85,5.28,8.29A30.34,30.34,0,0,0,62,44.56c2,3.35,5.34,7.74,7.15,10.21,1.06,1.45,6.17,8,7.28,10.06C72.65,60,68,53.81,64.64,50c1.09,1.81,2.24,3.56,3.25,5.34-1.63-2-4.37-6.13-5.43-7,2.81,4.43,5.48,8.25,8.33,12.88,2.32,3.75,4.36,7.16,6.72,10.66-2.89-4.14-6.7-9.75-9.06-12.38,1.1,2.06,2.47,4.1,3.8,6.1a1,1,0,0,0-.45-.34c.57.9,1.24,2.14,1.84,3.07-.07.08,0,.34-.23.21l.22-.07" transform="translate(-1.73)"/><path class="cls-2" d="M76.23,59.28c2.82,4.4,6.71,10.72,9,14.91" transform="translate(-1.73)"/><path class="cls-3" d="M231.14,334.35l20.26,40,21.37,42.61L285,441.77c4.25,8.55,8.64,17.35,13,26.33l13.39,27.22,13.41,27.51,6.71,13.63,6.55,13.49c4.34,8.91,8.64,17.64,12.84,26.08s8.17,16.65,12.08,24.44,7.72,15.15,11.22,22.08c7.06,13.82,13.44,25.62,18.78,34.52" transform="translate(-1.73)"/><path class="cls-3" d="M284.54,447.26l7.77,15.95c4.84,10.06,11.82,24.17,20,40.62,16.27,32.89,37.23,75.06,57.09,111.74" transform="translate(-1.73)"/></g><g class="cls-1"><path class="cls-2" d="M304.44,261.88a21.16,21.16,0,0,0,4.32,7c1.89,2.08,3.53,4.06,5.48,5.85a16,16,0,0,0,7.11,4,34.83,34.83,0,0,0,5.46.82,11.93,11.93,0,0,0,1.39,0c.46,0,.93,0,1.4,0a20.32,20.32,0,0,0,2.72-.34l2.59-.51c.86-.22,1.69-.53,2.54-.82l1.27-.46,1.2-.61a23.38,23.38,0,0,0,2.35-1.36A44.42,44.42,0,0,0,355,261a93,93,0,0,0,4.3-8.41c1.24-2.87,2.47-5.73,3.56-8.64,1.09-2.72,2-5.48,2.76-8.23l1.1-4.1,1-4.11A133.13,133.13,0,0,0,370.3,211a104.67,104.67,0,0,0-2.13-33.9c-.43-1.67-.9-3.37-1.44-5.07s-1.14-3.41-2-5.11l-1.17-2.58c-.43-.84-.9-1.66-1.36-2.5a54.16,54.16,0,0,0-3.06-4.86,56.82,56.82,0,0,0-16.67-15.65c-1.16-.74-2.56-1.45-4-2.28s-3.18-1.53-4.93-2.32l-2.77-1-1.42-.51-1.49-.4c-1-.26-2-.54-3-.79l-3.11-.52c-.52-.08-1-.18-1.56-.22l-1.57-.1c-1-.05-2.08-.13-3.1-.14l-3,.17c-.5,0-.92,0-1.63.13l-2.35.39-4.42.77a4.16,4.16,0,0,0-1,.24l-.38,1-.72,1.93c-.46,1.25-.88,2.45-1.26,3.55l-.14.41-.06.19,0,.11-.11.44-.19.84c.29-.87,1.56-4,2.51-6.34l.38-.93.19-.46.1-.23c0-.08.05-.17.15-.16l2-.3,4-.59,1-.14a7,7,0,0,1,.9-.1l1.3,0,2.49-.07c1.66,0,3.3.22,4.95.36A47.29,47.29,0,0,1,338,140.69a49.67,49.67,0,0,0-19.46-5.53L315.9,135c-.86,0-1.73.06-2.6.09l-1.3.06-.72,0c-.29,0-.64.09-1,.13l-3.87.58-1.93.29a1.52,1.52,0,0,0-.24,0l-.09.23-.19.45-.38.9-1.51,3.63-1,2.55c-.29.74-.55,1.49-.82,2.23a144.56,144.56,0,0,0-5.41,18.12c-.74,3-1.28,6.11-1.82,9.16s-.91,6.1-1.15,9.14c.26-2.84.73-5.66,1.15-8.49.24-1.41.53-2.81.79-4.22l.41-2.11.49-2.09a140.61,140.61,0,0,1,4.86-16.47l1.52-4c.25-.67.53-1.33.81-2l1.14-2.67,1.33-3.07c.11-.25.21-.52.34-.75l.83-.11,1.66-.22,3.3-.44c.27,0,.56-.08.81-.1l.64,0,1.15,0a43.63,43.63,0,0,1,17.67,3.32,54.08,54.08,0,0,1,31.47,37.13,65.41,65.41,0,0,1,1.87,15.35,70.49,70.49,0,0,0-3.84-17.81,55.69,55.69,0,0,0-25.13-30l-2.34-1.17-1.17-.59c-.4-.18-.81-.33-1.22-.5l-2.45-1c-.83-.3-1.68-.52-2.53-.78a42.3,42.3,0,0,0-5.19-1.18c-.87-.18-1.77-.2-2.65-.3a22.34,22.34,0,0,0-2.67-.17l-2.69,0h-.7c-.26,0-.53.06-.79.09l-1.6.2-1.6.2-.8.1c-.13,0-.29,0-.38.08l-.16.37-1.3,3-1.14,2.61c-.35.79-.64,1.6-1,2.41-.61,1.61-1.3,3.2-1.83,4.84a133.45,133.45,0,0,0-5.4,19.64,126.74,126.74,0,0,0-2.33,19.45,118.13,118.13,0,0,0,.69,18.41c.21,1.78.54,3.65.86,5.44s.78,3.49,1.16,4.95a102.16,102.16,0,0,1-2.35-18,114.83,114.83,0,0,1,.71-19.22,130.8,130.8,0,0,1,3.83-19.63A141.8,141.8,0,0,1,305,144l1.18-2.62.59-1.31.15-.32.36,0,.72-.08,2.87-.33a8.29,8.29,0,0,1,1.37-.07h1.3a40.24,40.24,0,0,1,10.22,1.31,49.13,49.13,0,0,1,17.79,9.23,57,57,0,0,1,12.57,14.56c.81,1.34,1.5,2.74,2.23,4.09s1.28,2.78,1.8,4.21,1.08,2.84,1.47,4.29l.64,2.15c.2.72.35,1.45.52,2.16,2.49,10.57,2.5,21.58,1.14,32.45a153.54,153.54,0,0,1-3,16.27l-1,4c-.38,1.31-.69,2.64-1.11,3.93s-.79,2.6-1.25,3.88-.92,2.55-1.4,3.81a61.53,61.53,0,0,1-8.69,14.75,37.72,37.72,0,0,1-5.95,5.67,26.85,26.85,0,0,1-6.9,3.59,17.12,17.12,0,0,1-1.86.51l-.93.24a5.94,5.94,0,0,1-.8.13,12.33,12.33,0,0,1-1.54.12,13.36,13.36,0,0,1-1.57-.15,15.2,15.2,0,0,1-6.35-2.66,21.65,21.65,0,0,1-2.8-2.35,26.31,26.31,0,0,1-2.67-3.2,21.26,21.26,0,0,1-3.4-7.65,13.9,13.9,0,0,1-.28-3.48,10.54,10.54,0,0,1,.6-2.89c.62-1.78,1.76-3.26,2.19-4.58a9.74,9.74,0,0,0-3.79,3.17,13.39,13.39,0,0,0-1.92,4.37,10.74,10.74,0,0,1,0-2,7.8,7.8,0,0,1,.55-2.12,12.7,12.7,0,0,0-1,2,6.62,6.62,0,0,0-.41,2.1v-.84c0-.27,0-.54,0-.79a5.69,5.69,0,0,0-.07-1.21,7,7,0,0,0-.61,3,12.78,12.78,0,0,0,.31,2.71,6.46,6.46,0,0,0,.28,1,15.4,15.4,0,0,0,.56,1.54c.2.54.44,1.07.64,1.52a10,10,0,0,1,.4,1.1,20.43,20.43,0,0,1-3-8.29,8.8,8.8,0,0,0-.19,1.54c-.06.51,0,1-.08,1.52a6.71,6.71,0,0,1-.23-1.12l-.09-1.32a11.06,11.06,0,0,0-.09-2.1,15.18,15.18,0,0,0-.34,2c0,.66-.07,1.31,0,1.95s.07,1.28.18,1.92l.13,1,.19,1a17.36,17.36,0,0,0,2.14,5.85c-.36-.51-.68-1.11-1-1.72s-.64-1.27-.93-1.91c-.57-1.28-1-2.54-1.47-3.42a11.34,11.34,0,0,0,.82,3.68.47.47,0,0,0-.27-.21,17.28,17.28,0,0,0,.54,1.79c-.09.05-.14.21-.28.14l.22,0" transform="translate(-1.73)"/><path class="cls-2" d="M310.3,256.55a33.16,33.16,0,0,0,2.53,6.21" transform="translate(-1.73)"/><path class="cls-3" d="M361.13,178.56l-.44-1.36-.53-1.64c-.22-.65-.53-1.37-.84-2.19A51.82,51.82,0,0,0,352,160.48a53.91,53.91,0,0,0-16.32-14.25,45,45,0,0,0-11.78-4.66c-1.06-.29-2.16-.4-3.25-.61a24.54,24.54,0,0,0-3.33-.36l-1.69-.12-1.7,0a24.12,24.12,0,0,0-3.31.22l-1.58.22c-.5.12-1.19,0-1.26.65l-1.25,3c-.95,2.15-1.7,4.4-2.55,6.61s-1.52,4.49-2.23,6.75-1.35,4.54-1.88,6.84a143,143,0,0,0-4.11,27.08,116.47,116.47,0,0,0,1.1,23.87,73.85,73.85,0,0,0,4.7,17.3" transform="translate(-1.73)"/><path class="cls-3" d="M322.32,138.3l-2.26-.43c-.74-.11-1.66-.16-2.74-.25l-1.73-.13-2,0-2.23.07-3,.41-1.59.22-.82.11c-.09,0-.1.07-.13.13l-.08.19-.17.39-1.37,3.23-1.17,2.8-1,2.75L301,150.72l-1,3a132.53,132.53,0,0,0-5.77,28.07,115.33,115.33,0,0,0,1,30.12" transform="translate(-1.73)"/></g><g class="cls-1"><path class="cls-2" d="M506.32,92.1a124.37,124.37,0,0,0,10.19-18.34,119.74,119.74,0,0,0,6.73-19.41,143.29,143.29,0,0,0,3.65-20.28l.48-5.72c0-.15-.06-.26-.13-.39L527,27.6l-.42-.75-.82-1.46a21.43,21.43,0,0,0-1.4-2.2,38.29,38.29,0,0,0-3.21-4.09l-1.83-1.85c-.61-.62-1.31-1.14-2-1.71a38.42,38.42,0,0,0-8.82-5.4,46.57,46.57,0,0,0-9.89-3,54,54,0,0,0-20.88.53,69.78,69.78,0,0,0-24.45,10.49,59.42,59.42,0,0,0-10.18,8.77l-2.21,2.57-2.05,2.72c-.64.94-1.25,1.91-1.87,2.86s-1.07,2-1.61,2.93a81.79,81.79,0,0,0-8.72,25.27,109.26,109.26,0,0,0-1.16,27c1.26,16.61,5.15,32.84,9.83,48.71l7.46,23.69.93,3,1,2.93,2.08,5.87L451,186.15c11.39,31.22,24.56,61.84,38.69,91.66,13.23,28.16,27.78,54.88,42.83,80.79,7.44,13,15.32,25.63,23.05,38.26l11.92,18.68,3,4.66,3,4.6,6.08,9.2c16.24,24.5,32.92,48.53,50.07,72.39l6.41,9,6.49,8.93c4.35,5.95,8.61,12,13,17.89l26.51,35.91c2.59,3.5,5.15,7.07,7.84,10.58L698,599.31,714.55,621c11.05,14.66,22.75,29.25,34.38,44l8.76,11.07q4.37,5.55,8.84,11L784.37,709l17.77,21.64,17.78,21.1c8.63,10.17,19.3,23.07,31.27,36.95l18.49,21.62,9.56,11.16L889,832.56l19.19,21.87c6.27,7.12,12.35,14,18.2,20.44,11.66,12.88,22,24.15,29.92,32.42C915,862,873.06,813,834.66,766.64,877.51,816.88,922,867.58,967,917.43s90.55,98.78,135.29,145.78l-15.69-16.55L1070.94,1030c-10.39-11.12-20.81-22.21-31.14-33.38L1008.89,963q-7.74-8.38-15.36-16.86l-15.29-16.91L963,912.36l-15.11-17c-10-11.36-20.11-22.65-30-34L888.2,827.1l-7.37-8.55-7.29-8.6L859,792.78l-14.48-17.15c-4.81-5.72-9.52-11.5-14.27-17.24C820.8,746.89,811.32,735.45,802,724c-18.52-23.1-37-46-54.76-69.07-18-22.91-35.24-46.1-52.4-68.95-8.49-11.49-16.79-23-25.1-34.45l-12.39-17.11-12.11-17.15c4.82,6.58,9.61,13.28,14.57,19.94l15,20.15,15.25,20.47c2.54,3.45,5.15,6.87,7.79,10.29l7.9,10.31,16,20.82,8.05,10.51L738,640.18l16.59,21.08,8.36,10.61c2.79,3.55,5.59,7.1,8.45,10.62,45.22,56.7,93.38,114.09,142.44,170.5C1012,965.81,1114,1074.44,1204.2,1165.81c13.66,13.86,29,29.13,40.66,40.54-90.19-89.93-191-196-289.05-306.77-49-55.38-97.31-111.94-143.2-168.18s-89.48-112-129.51-165.58c-36.86-49.08-72.81-99.11-106.54-150.94q-25.18-38.94-48.14-79.5l-5.66-10.18c-1.88-3.4-3.83-6.77-5.59-10.23L506.3,294.29c-3.5-7-6.9-14-10.36-21l-2.59-5.25-2.44-5.32L486,252.12a854.87,854.87,0,0,1-36.23-95.32L446,144.26c-1.24-4.18-2.55-8.36-3.62-12.55-2.22-8.37-4.16-16.78-5.55-25.22a152,152,0,0,1-2.19-25.3,93.48,93.48,0,0,1,3.17-24.56c.56-2,1.26-3.87,1.87-5.82s1.58-3.74,2.35-5.61l2.84-5.36,1.55-2.42c.58-.77,1.13-1.56,1.73-2.32a51.4,51.4,0,0,1,18.62-14.24,55.4,55.4,0,0,1,23.06-5.2c7.81,0,15.49,2,21.39,6.33a27.43,27.43,0,0,1,6.89,7.35l.34.58,0,.07v0l0,0s.1.12.11.2l-.11,1.65c-.09,2.08-.4,4.19-.64,6.32a114.29,114.29,0,0,1-6.73,26.13A129.21,129.21,0,0,1,498,89.58a138.1,138.1,0,0,1-18.26,21.74,138.87,138.87,0,0,1-20.94,16.62A135.67,135.67,0,0,1,438,138.86a136.2,136.2,0,0,1-17.79,6.06c-1.27.39-2.51.65-3.66.94l-3.27.82c-2.05.43-3.81.85-5.25,1.24a110.52,110.52,0,0,0,29.7-6.68,137.19,137.19,0,0,0,26.7-13.5,115.41,115.41,0,0,1-20.65,12.21,115,115,0,0,0,21.72-11.85c-5.09,3.7-10.65,6.95-12.64,8.4a104.32,104.32,0,0,0,14.1-8.67l3.35-2.52c1.09-.83,2.09-1.71,3.08-2.51,2-1.59,3.67-3.2,5.12-4.47.87-.73,2.36-2.27,4.28-4.14,1-.92,1.93-2,3-3.15l1.61-1.72,1.58-1.83c2.16-2.42,4.17-5,5.94-7.24s3.18-4.16,4-5.36a134.28,134.28,0,0,1-15.5,19.27,163.48,163.48,0,0,1-17,15.16c1.12-.74,2.2-1.54,3.3-2.31l1.64-1.16,1.58-1.22,3.15-2.43,3-2.51a110.4,110.4,0,0,1-9.54,8L467,129.6l-2.35,1.65c-1.43,1-2.57,1.88-3.25,2.38a133.84,133.84,0,0,0,15.82-11.38,146.71,146.71,0,0,0,14.31-13.72L493,107l1.36-1.58c.89-1.05,1.8-2.08,2.66-3.13,1.67-2.14,3.36-4.21,4.87-6.4a114.68,114.68,0,0,0,8.43-13.55,137.71,137.71,0,0,1-11.23,17.87c-4.21,5.71-8.52,10.73-11.54,14.07,2.22-2,4.31-4.32,6.41-6.62s4-4.78,5.88-7.28a5.49,5.49,0,0,0-.67,1.19c.83-1.1,1.88-2.31,2.82-3.62s1.92-2.61,2.74-3.79c.13,0,.56-.48.34,0a1.13,1.13,0,0,0-.1-.26" transform="translate(-1.73)"/><path class="cls-2" d="M489.29,102.6a133.57,133.57,0,0,0,12.94-17.51,139,139,0,0,0,9.65-18.57" transform="translate(-1.73)"/><path class="cls-3" d="M690.57,577.42l1.22,1.63c.81,1.07,2,2.68,3.59,4.74l13.9,18,21.87,28.3,29.25,36.82c43.37,54.19,104,127.07,171.11,202.87,134,151.88,293.16,316.13,368.47,388.46" transform="translate(-1.73)"/><path class="cls-3" d="M888.15,824.6l29.49,34c18.69,21.27,45.17,51.19,76.53,85.57,62.58,68.91,145,155.39,219.57,230" transform="translate(-1.73)"/></g><g class="cls-1"><path class="cls-2" d="M585.52,42.78a75.21,75.21,0,0,0,8.43,13c1.74,2,3.19,4.11,4.82,6l2.32,2.89,2.41,2.76a70.1,70.1,0,0,0,5.11,5.29,36.61,36.61,0,0,0,2.86,2.44c1,.78,2,1.6,3.09,2.31,2.8,1.77,5.29,3.7,8.43,5.37a21.87,21.87,0,0,0,5.18,2,14.91,14.91,0,0,0,6,.22,18.65,18.65,0,0,0,10-5.67,28.61,28.61,0,0,0,5.85-9.21,40.67,40.67,0,0,0,2.59-19.46,51.28,51.28,0,0,0-5.88-18.42,59,59,0,0,0-11.72-15.14,57.76,57.76,0,0,0-7.52-5.94,55,55,0,0,0-8.46-4.54,42.51,42.51,0,0,0-8.65-2.67,47.67,47.67,0,0,0-8.9-.92,55.74,55.74,0,0,0-17.4,2.52,69.85,69.85,0,0,0-29,18.08,74.85,74.85,0,0,0-17.8,29.11,94.57,94.57,0,0,0-4.4,34.3,114.53,114.53,0,0,0,10.23,41.33,125.86,125.86,0,0,0,10.71,19.28,111.59,111.59,0,0,0,14,16.82,110.36,110.36,0,0,0,14.91,12.21A75.71,75.71,0,0,0,604,186.89a62.16,62.16,0,0,0,11.87,2.2l2.94.17,1.45.08c.48,0,1,0,1.44,0,1.91-.11,3.78-.13,5.58-.34a55.28,55.28,0,0,0,17.32-5,62.57,62.57,0,0,1-18.34,4.46,60.73,60.73,0,0,1-19.17-1.7,66.42,66.42,0,0,1-17.41-7.18,86.24,86.24,0,0,1-7.69-5l-3.55-2.77-.88-.69-.83-.74-1.66-1.47c9.85,8.31,21.84,14.9,35.15,17.44,1.67.25,3.33.6,5,.74l5.08.32c1.7,0,3.4-.11,5.09-.17a21.82,21.82,0,0,0,2.53-.23l2.52-.32a72,72,0,0,0,19.05-6C661.43,175,671.61,167,681.14,159s18.67-16.28,27.37-24.75q-12.31,11.81-25.4,22.82c-8.7,7.32-17.78,14.57-28.12,20.24a81.54,81.54,0,0,1-16.41,6.88c-1.43.43-2.91.74-4.37,1.1s-3,.56-4.46.76l-2.25.25-1.13.12-1.13,0-4.53.11a64.56,64.56,0,0,1-17.64-3.14,75.09,75.09,0,0,1-15.85-7.66l-3.62-2.43c-1.18-.84-2.3-1.75-3.45-2.63-.56-.45-1.15-.87-1.7-1.34L576.84,168c-1.06-1-2.19-1.86-3.19-2.88a109.68,109.68,0,0,1-11.31-12.71,122.69,122.69,0,0,1-9.12-14.1,142,142,0,0,1-7-15,129.23,129.23,0,0,1-4.89-15.58c-.34-1.31-.57-2.64-.86-4l-.41-2c-.12-.66-.21-1.33-.32-2-.2-1.33-.42-2.65-.6-4l-.4-4a90.23,90.23,0,0,1,0-15.77l.16-1.94.27-1.93c.2-1.28.33-2.56.58-3.82.53-2.52,1-5,1.77-7.45a81.77,81.77,0,0,0-2.3,18,101.56,101.56,0,0,0,1.47,18.8,122.35,122.35,0,0,0,13,37.15,109.11,109.11,0,0,0,25.51,32,80.26,80.26,0,0,0,17.64,11.41A61,61,0,0,0,617.35,184a56.39,56.39,0,0,0,21.21-2.17,83.67,83.67,0,0,0,19.27-8.66,162.37,162.37,0,0,0,17-11.95c2.69-2.12,5.31-4.29,7.9-6.47s5.16-4.37,7.69-6.57a453.18,453.18,0,0,0,53.36-54.83c4.61-5.59,9.44-12,12.9-17a426.87,426.87,0,0,1-50.06,56.49c-9.58,9.13-19.74,18-30.35,26.51a173.47,173.47,0,0,1-16.73,12,102.61,102.61,0,0,1-9.09,5.05,82.75,82.75,0,0,1-9.66,4,64.33,64.33,0,0,1-10.18,2.43c-.86.17-1.73.22-2.6.32a25.63,25.63,0,0,1-2.61.2c-1.75,0-3.49.1-5.23,0a57.45,57.45,0,0,1-20.18-4.66A75.94,75.94,0,0,1,582.39,168,99.41,99.41,0,0,1,568,153.81a120.31,120.31,0,0,1-19.64-34.1,117.62,117.62,0,0,1-5.39-18.26,104.57,104.57,0,0,1-2.11-18.29A82.07,82.07,0,0,1,542,66.69c.39-2.72,1.11-5.37,1.76-8,.83-2.6,1.58-5.23,2.63-7.71a68.18,68.18,0,0,1,19-25.86c8.22-6.93,18.12-11.91,28.5-13.51a45,45,0,0,1,7.8-.57,41.7,41.7,0,0,1,7.7.74,38.55,38.55,0,0,1,7.3,2.19,45.56,45.56,0,0,1,6.84,3.61,48.82,48.82,0,0,1,12.15,11.88,46.93,46.93,0,0,1,7.19,15.26,34.82,34.82,0,0,1,.3,16.6,30.49,30.49,0,0,1-2.94,7.6,18.33,18.33,0,0,1-4.66,5.6A8.61,8.61,0,0,1,633,75.86a5.27,5.27,0,0,1-2.32.22c-1.64-.17-3.91-1.28-6.39-2.94A99.09,99.09,0,0,1,610,61.52c-1-1-2-2-3-3.07L604,55l-3-3.83c-1-1.31-2-2.74-3-4.13a111.22,111.22,0,0,1-10.11-18.31,148.92,148.92,0,0,1-6.25-17.46l-1-3.61c-.32-1.13-.68-2.17-.92-3.13A23.29,23.29,0,0,0,578,0c.26,7.34,2.15,15.27,4,22.06l-1.63-4L579.91,17l-.35-1.1-.68-2.27.47,2.27.23,1.16.3,1.14c.41,1.52.83,3,1.31,4.33a27.31,27.31,0,0,0-2.26-5.23,55.26,55.26,0,0,0,1.84,5.88c.82,2,1.63,3.81,2.21,5.12l2.58,5a59.31,59.31,0,0,1,2.82,5.26c-1.53-2.41-3.27-5.17-4.7-8l-1.11-2c-.36-.67-.66-1.35-1-2-.64-1.3-1.26-2.51-1.83-3.57.6,1.91,1.28,3.78,1.83,5.66-.55-1.09-1.22-2.75-1.87-4.27a33.49,33.49,0,0,0-1.54-3.47A117.05,117.05,0,0,0,583.3,34.7c.89,1.91,1.68,3.76,2.58,5.53s1.86,3.48,3,5.17c-.71-1-1.35-2.13-2.06-3.26s-1.45-2.3-2.06-3.48c-1.28-2.32-2.54-4.47-3.4-5.93a41.33,41.33,0,0,0,2.83,6.35c-.17-.23-.31-.35-.4-.37.22.47.45,1,.7,1.57s.54,1.09.8,1.55c-.08.07-.06.33-.25.19l.23-.05" transform="translate(-1.73)"/><path class="cls-2" d="M588.93,33.39a152.8,152.8,0,0,0,7.45,13.88" transform="translate(-1.73)"/><path class="cls-3" d="M540.15,88.22l.06.74c.05.49.06,1.22.21,2.16.27,1.89.57,4.68,1.32,8.22A116.68,116.68,0,0,0,545,112a132.35,132.35,0,0,0,6.48,16A119.55,119.55,0,0,0,562.11,146a104.16,104.16,0,0,0,15.83,17.57,81.15,81.15,0,0,0,21.72,13.87,57.82,57.82,0,0,0,26.78,4.31c9.31-.82,18.39-4.2,26.71-8.87a162.46,162.46,0,0,0,23.42-16.58C684,150.21,691.14,144,698,137.68s13.44-12.68,19.66-19c24.88-25.29,43.52-50,53.34-66.7" transform="translate(-1.73)"/><path class="cls-3" d="M602.86,181.7l1.1.41,3.28.91c.72.19,1.51.44,2.4.63l2.94.52a56.39,56.39,0,0,0,7.31.77c1.37.08,2.82,0,4.33-.06.76,0,1.53,0,2.32-.1l2.4-.27c.82-.07,1.64-.22,2.48-.38s1.69-.29,2.55-.48c1.7-.43,3.48-.81,5.25-1.41a87.52,87.52,0,0,0,22-10.74,217,217,0,0,0,22-17.06c7.34-6.3,14.8-13.06,22.11-20.16A442.55,442.55,0,0,0,746,89" transform="translate(-1.73)"/></g><g class="cls-1"><path class="cls-2" d="M292.87,1098.76c10.12-11.39,20.25-23.16,29.69-34.27,10.09-11.8,19.78-22.28,29.37-32.73L366.32,1016c4.85-5.3,9.74-10.74,14.71-16.46,12.47-14.34,25.13-28.3,38.2-42.15s26.07-28,39.52-42.49C507.68,861.35,559.22,807,612.87,756.76,663.51,709.53,713.25,666,764.2,625l19.15-15.28,9.57-7.63c3.23-2.49,6.51-4.92,9.76-7.38l39.16-29.39c26.8-18.71,53.3-38.18,81.6-55.6,32.76-20.46,68.77-40.69,106.7-57.65s77.69-30.69,116.95-38.36a372.28,372.28,0,0,1,52.58-6.35,314.38,314.38,0,0,1,63,3.4c5.32.69,10.52,1.9,15.72,2.89,2.61.46,5.15,1.17,7.69,1.78l7.58,1.87c2.49.69,4.94,1.46,7.37,2.17s4.86,1.39,7.22,2.19l13.76,4.85c17.7,6.77,32.61,14.51,43.7,20.34a345.52,345.52,0,0,0-45.88-21.76l-12-4.33L1295.5,417c-4.12-1.16-8.28-2.13-12.42-3.21-2.06-.57-4.17-.93-6.27-1.38l-6.29-1.29a309.46,309.46,0,0,0-50.82-5.29,352.26,352.26,0,0,0-50.21,2.55A342.37,342.37,0,0,1,1224,405.3a298.71,298.71,0,0,1,54.56,6.36c36,7.51,70.29,22.72,101.48,42.58,3.86,2.55,7.77,5,11.59,7.64l11.32,8,11,8.42c1.86,1.38,3.62,2.88,5.42,4.33l5.38,4.39c14.25,11.81,27.88,24.32,41,37.23s25.84,26.24,38.21,39.73c6.2,6.73,12.26,13.56,18.37,20.3l9,10.23c3,3.4,6,6.79,8.93,10.23-22.13-25.62-44.79-50.9-68.61-74.9q-17.82-18-36.9-34.67c-6.3-5.6-12.87-10.87-19.39-16.19l-10-7.68c-1.65-1.31-3.37-2.51-5.08-3.73l-5.12-3.66c-1.72-1.21-3.4-2.47-5.14-3.63l-5.25-3.46c-3.51-2.29-7-4.68-10.58-6.77s-7.14-4.36-10.78-6.43l-11-6a322.4,322.4,0,0,0-46-19.43c-31.61-10.4-64.92-14.86-98-14.44a367.81,367.81,0,0,0-49.34,4.06,439.67,439.67,0,0,0-48.28,10.21c-15.86,4.26-31.47,9.29-46.8,14.92s-30.35,12-45.11,18.7a873.25,873.25,0,0,0-85.3,45.18c-13.7,8.18-27.11,16.67-40.32,25.31-6.64,4.27-13.08,8.79-19.56,13.22l-19.36,13.26,22.57-15.91c3.81-2.65,7.57-5.4,11.46-8s7.77-5.27,11.72-7.85c15.75-10.42,32-20.62,48.76-30.44,33.52-19.62,69.14-37.78,106.87-52.49a536.8,536.8,0,0,1,58.07-19,414,414,0,0,1,60.66-11.46,344.29,344.29,0,0,1,62.06-1.28,291.32,291.32,0,0,1,61.19,10.86,304.82,304.82,0,0,1,57.45,23.44,389.23,389.23,0,0,1,52,33.4c32.85,24.8,62.08,53.52,89.37,82.89S1549.78,612,1574,641.73c12.2,14.79,23.87,29.66,35.31,44.31s22.38,29.3,32.94,43.79c3.19,4.4,6.54,8.87,9.8,13.43l9.78,13.61c3.23,4.48,6.3,8.93,9.31,13.14s5.86,8.23,8.44,12a2096.07,2096.07,0,0,0-138.14-179.69c-3.19-3.78-6.5-7.48-9.76-11.23s-6.52-7.52-9.86-11.23c-6.66-7.44-13.31-14.94-20.13-22.33-13.61-14.81-27.62-29.43-42.28-43.54a593.38,593.38,0,0,0-46.11-40.29,405.21,405.21,0,0,0-51.12-34.29,310.52,310.52,0,0,0-56.45-24.83A298.86,298.86,0,0,0,1245.38,402l-3.83-.43-3.85-.26-7.69-.53c-2.56-.23-5.13-.2-7.7-.29l-7.7-.2c-2.57,0-5.13.07-7.7.1s-5.13,0-7.69.17l-7.68.43c-2.56.15-5.12.25-7.66.53a409.56,409.56,0,0,0-60.32,9.79c-39.5,9.39-77.19,23.81-112.71,40.65s-69,36.22-100.45,56.48A2051,2051,0,0,0,743.75,631.07Q663.3,697,587.68,770.6L567,790.47c-6.86,6.67-13.59,13.49-20.39,20.23L526.25,831c-3.41,3.36-6.74,6.81-10.07,10.25l-10,10.31C451.35,907.86,397.92,966.23,346,1025.08c-23,26.11-54.92,62.6-82.71,95.47s-51.65,62-58.9,73.25C219.13,1177,234.91,1158,249.17,1142c-5.07,6.35-10.84,13.67-16.94,21.08,6-6.93,12.69-14.52,18.12-21.09-4.48,5.45-9,11.06-10.5,13.36,7.26-8.26,17.07-20.37,22.57-27.06,3.22-3.91,17.82-22.12,22.32-27-10.81,13.52-24.61,30.46-33.2,41.66,3.94-4.49,7.78-9,11.65-13.34-4.46,5.65-13.57,16.36-15.63,19.42,9.71-11.26,18.13-21.35,28.24-33,8.18-9.43,15.64-17.84,23.35-27l-15,17.87c-5,6-9.58,11.64-12.57,15.57,4.44-4.88,8.93-10.19,13.33-15.38a6.52,6.52,0,0,0-.82,1.26l6.71-7.6c.13,0,.66-.45.35.08a1.11,1.11,0,0,0-.06-.28" transform="translate(-1.73)"/><path class="cls-2" d="M273.67,1109.83c9.63-11.21,23.46-27,32.5-37.05" transform="translate(-1.73)"/><path class="cls-3" d="M923.92,500.93l7.58-4.72c2.47-1.56,5.57-3.41,9.21-5.61l5.88-3.55,6.74-3.93c9.5-5.58,21.25-12.14,35-19.37s29.61-15,47.43-22.75A568.26,568.26,0,0,1,1095,418.92a439.64,439.64,0,0,1,70-15.9,343.4,343.4,0,0,1,78.37-2.28l10.14,1.08c1.7.15,3.38.44,5.07.7l5.08.78,5.1.78,5.07,1,5.09,1c1.69.36,3.41.63,5.09,1.1a316.79,316.79,0,0,1,40.21,12.39l9.81,4.12,4.92,2.07,4.82,2.32,9.65,4.66,9.45,5.12c1.57.87,3.17,1.68,4.72,2.59l4.62,2.77c3.07,1.87,6.19,3.66,9.23,5.6,6,4,12.12,7.82,17.93,12.11,11.84,8.28,23.12,17.38,34.18,26.7l8.19,7.11c2.74,2.36,5.35,4.85,8,7.27,5.38,4.82,10.53,9.88,15.74,14.84,10.27,10.1,20.35,20.31,30.06,30.76,4.91,5.17,9.66,10.45,14.46,15.66L1524.13,579c18.62,21,36.42,42,53.26,62.72s32.72,41.08,47.53,60.79,28.49,38.79,41.12,56.77c25.14,36,45.85,67.8,61.69,92.4" transform="translate(-1.73)"/><path class="cls-3" d="M1256.21,405.08l3.34.52c2.19.36,5.45.82,9.66,1.55a300.42,300.42,0,0,1,35.55,8.86,310.19,310.19,0,0,1,51.5,21.75,407.83,407.83,0,0,1,59.45,39.12c2.58,2,5,4.08,7.61,6.14l3.84,3.13c1.29,1,2.58,2.09,3.83,3.2,5,4.39,10.25,8.75,15.29,13.45,2.54,2.33,5.13,4.63,7.67,7l7.63,7.27c2.58,2.41,5.09,4.92,7.63,7.44s5.1,5,7.64,7.6c20.26,20.59,40.5,42.84,60.59,65.78s39.91,46.71,59,70.7,37.53,48.23,54.9,72" transform="translate(-1.73)"/></g></g></g></svg>