<?xml version="1.0" encoding="utf-8"?>
<!-- Generator: Adobe Illustrator 21.0.2, SVG Export Plug-In . SVG Version: 6.00 Build 0)  -->
<svg version="1.1" id="Layer_1" xmlns="http://www.w3.org/2000/svg" xmlns:xlink="http://www.w3.org/1999/xlink" x="0px" y="0px"
	 viewBox="0 0 191.3 250" style="enable-background:new 0 0 191.3 250;" xml:space="preserve">
<style type="text/css">
	.st0{fill:#3797a4;}
</style>
<title>logo</title>
<ellipse class="st0" cx="180" cy="54.4" rx="11.3" ry="11.3"/>
<path class="st0" d="M96.2,9.6c-0.4-5.1-13.4-14-19.6-7C58.3,25,122,60.8,150.6,73c12,5.1,20.9,6.8,19.5,14.5
	c-2.4,13.6-16.7,36.1-21.4,49.5c-5.2,14.9-3.3,49.9,13.4,77.3S180,250,180,250"/>
<path class="st0" d="M149.5,231.3c-5.6-64.3-5.6-74.4-1.2-96.6s28.6-48.1-1.7-62.7C119.7,59,113.2,59,89,35.5"/>
<path class="st0" d="M165.6,83l-2.8-3.5"/>
<ellipse class="st0" cx="11.3" cy="54.4" rx="11.3" ry="11.3"/>
<path class="st0" d="M95.1,9.6c0.4-5.1,13.4-14,19.6-7C133,25,69.3,60.8,40.7,73c-12,5.1-20.9,6.8-19.5,14.5
	c2.3,13.6,16.7,36.1,21.4,49.5c5.2,14.9,3.3,49.9-13.4,77.3S11.3,250,11.3,250"/>
<path class="st0" d="M41.8,231.3c5.6-64.3,5.6-74.4,1.2-96.6S14.4,86.6,44.6,72c26.9-13,33.5-13,57.6-36.5"/>
<path class="st0" d="M25.7,83l2.8-3.5"/>
</svg>
