<svg id="Layer_1" data-name="Layer 1" xmlns="http://www.w3.org/2000/svg" viewBox="0 0 162.1 199.81"><defs><style>.cls-1{fill:#ff7b89;}.cls-2{fill:#2889af;}</style></defs><title>Untitled-2</title><path class="cls-1" d="M67.84,63.4a10.38,10.38,0,0,1-.67,4,9.55,9.55,0,0,1-2.25,3.38,10.15,10.15,0,0,1-7.37,2.81,10,10,0,0,1-7-3.22,9.86,9.86,0,0,1,.28-13.64,9.93,9.93,0,0,1,17,6.68Zm-2.53,0a8.1,8.1,0,0,0-13.84-6.08,8.2,8.2,0,0,0,.28,11.88,8.07,8.07,0,0,0,5.8,2.07,7.94,7.94,0,0,0,5.39-2.47A8.51,8.51,0,0,0,65.31,63.4Z" transform="translate(-47.98 -19.77)"/><path class="cls-1" d="M124.32,27.63a6.61,6.61,0,0,1,2-3.62,15,15,0,0,1,3.33-2.58,13,13,0,0,1,4-1.51,7.55,7.55,0,0,1,4.26.33,6.4,6.4,0,0,1,1.84,1.19,5.34,5.34,0,0,1,.73.81,8.23,8.23,0,0,1,.63.87,11.16,11.16,0,0,1,1.65,4,14,14,0,0,1-1.3,8.44,32.52,32.52,0,0,1-4.62,7.17A65.13,65.13,0,0,1,131,48.87,124.51,124.51,0,0,1,117.74,59.4a231.55,231.55,0,0,1-29.1,17.13C86.12,77.78,83.57,79,81,80.13s-5.24,2.15-7.74,3.24a27,27,0,0,0-3.49,1.78,6.34,6.34,0,0,0-2.25,2.12,3,3,0,0,0-.32,1.26,6.93,6.93,0,0,0,.18,1.66,34.51,34.51,0,0,0,1,3.86,127,127,0,0,0,6.43,15.25c2.4,5,4.94,10,7.17,15.26.55,1.31,1.08,2.63,1.55,4a31.67,31.67,0,0,1,1.13,4.22,53.82,53.82,0,0,1,.89,8.53A87.6,87.6,0,0,1,84.3,158.2,91.62,91.62,0,0,1,73,189.86c-2.94,4.78-5.86,9.54-8.54,14.45-1.34,2.46-2.64,4.93-3.84,7.46-.59,1.27-1.17,2.54-1.69,3.84a26.34,26.34,0,0,0-1.33,4,26.38,26.38,0,0,1,1.25-4c.49-1.31,1-2.6,1.61-3.88,1.14-2.56,2.39-5.07,3.68-7.56,2.57-5,5.42-9.82,8.22-14.66a90.42,90.42,0,0,0,10.35-31.53,85.72,85.72,0,0,0,.76-16.57,51.63,51.63,0,0,0-1.07-8.14,29.12,29.12,0,0,0-1.15-3.86c-.48-1.27-1-2.54-1.6-3.79-2.31-5-5-9.94-7.54-14.94a129.69,129.69,0,0,1-7-15.5,38,38,0,0,1-1.22-4.23,10.39,10.39,0,0,1-.31-2.5,6.82,6.82,0,0,1,.64-2.8,8.81,8.81,0,0,1,3.64-3.7,30.49,30.49,0,0,1,4-1.93c2.67-1.07,5.29-2,7.85-3s5.11-2.14,7.64-3.29a229,229,0,0,0,29.27-16,122.72,122.72,0,0,0,13.35-10,63.7,63.7,0,0,0,5.91-5.83,31.38,31.38,0,0,0,4.67-6.76A13.14,13.14,0,0,0,142,27.26a10.44,10.44,0,0,0-1.43-3.77,7.66,7.66,0,0,0-.57-.85,4.81,4.81,0,0,0-.64-.77,5.85,5.85,0,0,0-1.64-1.13,7.09,7.09,0,0,0-4-.42,12.63,12.63,0,0,0-3.9,1.35,14.78,14.78,0,0,0-3.37,2.44A6.55,6.55,0,0,0,124.32,27.63Z" transform="translate(-47.98 -19.77)"/><path class="cls-1" d="M81.83,204.65l1.49-24c.42-8,1-16,1.09-23.94.08-4,0-8-.23-11.92A114.54,114.54,0,0,0,82.77,133c-.33-1.95-.71-3.93-1.1-5.85A48.89,48.89,0,0,0,80,121.55c-1.3-3.73-2.88-7.39-4.4-11.1a110.72,110.72,0,0,1-4.17-11.38A36.61,36.61,0,0,1,70.21,93a17.73,17.73,0,0,1,.38-6.38A11.87,11.87,0,0,1,73.92,81a16,16,0,0,1,5.5-3.3,27.7,27.7,0,0,1,3-.9c1-.24,2-.43,3-.63,1.95-.39,3.87-.84,5.79-1.34a49.86,49.86,0,0,0,11-4.1,43,43,0,0,0,9.32-7.16c2.87-2.77,5.82-5.52,8.92-8.07a107.81,107.81,0,0,1,9.68-7.12c-3.17,2.45-6.26,5-9.2,7.68s-5.67,5.59-8.47,8.46A42.38,42.38,0,0,1,103,72.22a49.94,49.94,0,0,1-11.32,4.56c-1.95.54-3.91,1-5.88,1.47-1,.22-2,.43-2.89.67a25.48,25.48,0,0,0-2.73.88,14.22,14.22,0,0,0-4.7,2.86,9.5,9.5,0,0,0-2.65,4.57,16,16,0,0,0-.29,5.54,34.31,34.31,0,0,0,1.12,5.68,108.69,108.69,0,0,0,4,11.17c1.49,3.7,3,7.41,4.35,11.24a51,51,0,0,1,1.66,5.89c.39,2,.75,4,1.07,6A114.3,114.3,0,0,1,86,156.8c-.16,4-.41,8-.7,12s-.63,8-1,12C83.53,188.74,82.73,196.7,81.83,204.65Z" transform="translate(-47.98 -19.77)"/><path class="cls-1" d="M70.47,84.3c-10.81,7,.19,20.09,4.35,27.81L77,110.81A40.69,40.69,0,0,1,69.16,91l-2.51.34a61.61,61.61,0,0,1,2.72,9.32c.25,1.18,2.3,1.26,2.47,0a25.79,25.79,0,0,0-1.12-12.25c-.53-1.55-3-.88-2.47.68A23,23,0,0,1,69.36,100h2.47a61.61,61.61,0,0,0-2.72-9.32c-.47-1.23-2.69-1.21-2.51.34a43.1,43.1,0,0,0,8.22,21.13A1.28,1.28,0,0,0,77,110.81c-3.29-6.1-13.69-18.86-5.27-24.3,1.38-.89.1-3.11-1.29-2.21Z" transform="translate(-47.98 -19.77)"/><path class="cls-1" d="M70.25,100.07a21.47,21.47,0,0,0,3,5.85c1,1.32,3.18,0,2.21-1.29a19.23,19.23,0,0,1-2.72-5.24c-.52-1.56-3-.89-2.47.68Z" transform="translate(-47.98 -19.77)"/><path class="cls-1" d="M184.47,63.4a8.51,8.51,0,0,0,2.36,5.39,7.94,7.94,0,0,0,5.39,2.47A8.07,8.07,0,0,0,198,69.2a8.2,8.2,0,0,0,.28-11.88,8.11,8.11,0,0,0-13.84,6.08Zm-2.53,0a9.94,9.94,0,0,1,17-6.68,9.86,9.86,0,0,1,.28,13.64,10,10,0,0,1-7,3.22,10.15,10.15,0,0,1-7.37-2.81,9.55,9.55,0,0,1-2.25-3.38A10.38,10.38,0,0,1,181.94,63.4Z" transform="translate(-47.98 -19.77)"/><path class="cls-1" d="M125.45,27.63a6.55,6.55,0,0,0-2.11-3.52A14.78,14.78,0,0,0,120,21.67a12.63,12.63,0,0,0-3.9-1.35,7.09,7.09,0,0,0-4,.42,5.85,5.85,0,0,0-1.64,1.13,4.8,4.8,0,0,0-.64.77,7.65,7.65,0,0,0-.57.85,10.44,10.44,0,0,0-1.43,3.77,13.14,13.14,0,0,0,1.47,7.85A31.38,31.38,0,0,0,114,41.87a63.71,63.71,0,0,0,5.91,5.83,122.72,122.72,0,0,0,13.35,10,229,229,0,0,0,29.27,16C165,74.84,167.56,76,170.13,77s5.18,1.94,7.85,3a30.49,30.49,0,0,1,4,1.93,8.81,8.81,0,0,1,3.64,3.7,6.82,6.82,0,0,1,.64,2.8,10.39,10.39,0,0,1-.31,2.5,38,38,0,0,1-1.22,4.23,129.69,129.69,0,0,1-7,15.5c-2.56,5-5.23,9.92-7.54,14.94-.57,1.26-1.11,2.52-1.6,3.79a29.12,29.12,0,0,0-1.15,3.86,51.63,51.63,0,0,0-1.07,8.14,85.72,85.72,0,0,0,.76,16.57,90.42,90.42,0,0,0,10.35,31.53c2.8,4.83,5.64,9.68,8.22,14.66,1.28,2.49,2.54,5,3.68,7.56.56,1.28,1.12,2.57,1.61,3.88a26.37,26.37,0,0,1,1.25,4,26.33,26.33,0,0,0-1.33-4c-.52-1.3-1.1-2.57-1.69-3.84-1.2-2.53-2.5-5-3.84-7.46-2.69-4.91-5.61-9.67-8.54-14.45a91.62,91.62,0,0,1-11.34-31.66,87.6,87.6,0,0,1-1.24-16.91,53.83,53.83,0,0,1,.89-8.53,31.67,31.67,0,0,1,1.13-4.22c.47-1.36,1-2.68,1.55-4,2.23-5.22,4.76-10.22,7.17-15.26A127,127,0,0,0,181.42,94a34.51,34.51,0,0,0,1-3.86,6.93,6.93,0,0,0,.18-1.66,3,3,0,0,0-.32-1.26A6.34,6.34,0,0,0,180,85.15a27,27,0,0,0-3.49-1.78c-2.5-1.09-5.14-2.1-7.74-3.24s-5.15-2.35-7.68-3.6A231.55,231.55,0,0,1,132,59.4a124.51,124.51,0,0,1-13.23-10.53A65.13,65.13,0,0,1,113,42.72a32.52,32.52,0,0,1-4.62-7.17,14,14,0,0,1-1.3-8.44,11.16,11.16,0,0,1,1.65-4,8.23,8.23,0,0,1,.63-.87,5.34,5.34,0,0,1,.73-.81,6.4,6.4,0,0,1,1.84-1.19,7.55,7.55,0,0,1,4.26-.33,13,13,0,0,1,4,1.51A15,15,0,0,1,123.44,24,6.61,6.61,0,0,1,125.45,27.63Z" transform="translate(-47.98 -19.77)"/><path class="cls-1" d="M167.94,204.65c-.9-8-1.69-15.91-2.46-23.88-.38-4-.73-8-1-12s-.54-8-.7-12A114.3,114.3,0,0,1,165,132.7c.32-2,.68-3.95,1.07-6a51,51,0,0,1,1.66-5.89c1.31-3.84,2.87-7.54,4.35-11.24a108.68,108.68,0,0,0,4-11.17,34.31,34.31,0,0,0,1.12-5.68,15.94,15.94,0,0,0-.29-5.54,9.5,9.5,0,0,0-2.65-4.57,14.22,14.22,0,0,0-4.7-2.86,25.48,25.48,0,0,0-2.73-.88c-.92-.24-1.89-.44-2.89-.67-2-.43-3.93-.93-5.88-1.47a49.94,49.94,0,0,1-11.32-4.56,42.38,42.38,0,0,1-9.39-7.74c-2.8-2.87-5.52-5.78-8.47-8.46s-6-5.23-9.2-7.68a107.81,107.81,0,0,1,9.68,7.12c3.1,2.55,6,5.3,8.92,8.07a43,43,0,0,0,9.32,7.16,49.86,49.86,0,0,0,11,4.1c1.91.5,3.84,1,5.79,1.34,1,.2,2,.39,3,.63a27.7,27.7,0,0,1,3,.9,16,16,0,0,1,5.5,3.3,11.87,11.87,0,0,1,3.33,5.65,17.73,17.73,0,0,1,.38,6.38,36.61,36.61,0,0,1-1.24,6.07,110.72,110.72,0,0,1-4.17,11.38c-1.52,3.71-3.1,7.37-4.4,11.1a48.9,48.9,0,0,0-1.64,5.63c-.39,1.92-.77,3.9-1.1,5.85a114.53,114.53,0,0,0-1.41,11.8c-.25,4-.3,7.94-.23,11.92.12,8,.67,16,1.09,23.94Z" transform="translate(-47.98 -19.77)"/><path class="cls-1" d="M178.74,86.72c1.33,7.93-4,15.11-5.25,22.73-.2,1.15,1.2,2.28,2.14,1.25,5.91-6.5,5.71-14.95,5-23.22l-1.93,1.11,2,5,2.39.65A13.36,13.36,0,0,0,181,84.91a1.28,1.28,0,0,0-2.21,1.29c1.39,3.27,2.22,6.22.36,9.56-.75,1.34-1.78,2.5-2.58,3.8-1.55,2.53-2.09,9-4.39,10-1.51.65-.21,2.86,1.29,2.21,2.16-.93,2.59-2.16,3.16-4.31a28.37,28.37,0,0,1,4-9.28c3-4.62,2.45-8.31.35-13.24l-2.21,1.29a11.34,11.34,0,0,1,1.73,8c-.16,1.26,1.85,1.74,2.39.65,1.62-3.35.56-6.94-2.93-8.47-.8-.35-2,0-1.93,1.11.62,7.48,1.14,15.46-4.27,21.41l2.14,1.25c1.4-8.25,6.7-15.47,5.25-24.09-.27-1.62-2.74-.93-2.47.68Z" transform="translate(-47.98 -19.77)"/><path class="cls-1" d="M181.67,85.38l-2.24-2.77a1.29,1.29,0,0,0-1.81,0,1.31,1.31,0,0,0,0,1.81l2.24,2.77a1.29,1.29,0,0,0,1.81,0,1.31,1.31,0,0,0,0-1.81Z" transform="translate(-47.98 -19.77)"/><path class="cls-2" d="M70.51,122.83v16.08H68.87V126l-6.32,10.82h-.8l-6.32-10.75v12.79H53.81V122.83h1.4l7,11.92,6.91-11.92Z" transform="translate(-47.98 -19.77)"/><path class="cls-2" d="M97.63,122.83l-5.42,16.08H90.42l-4.71-13.71L81,138.91H79.21l-5.42-16.08h1.75l4.64,13.83L85,122.83h1.58l4.73,13.9L96,122.83Z" transform="translate(-47.98 -19.77)"/><path class="cls-2" d="M110.33,134.61h-9l-1.93,4.3H97.68L105,122.83h1.68l7.35,16.08h-1.79Zm-.62-1.38-3.86-8.64L102,133.23Z" transform="translate(-47.98 -19.77)"/><path class="cls-2" d="M127.81,130.87h1.63V137a7.85,7.85,0,0,1-2.66,1.52,9.89,9.89,0,0,1-3.24.53A8.88,8.88,0,0,1,119.2,138a7.79,7.79,0,0,1-3-2.93,8.52,8.52,0,0,1,0-8.38,7.8,7.8,0,0,1,3-2.93,8.93,8.93,0,0,1,4.36-1.06,9.42,9.42,0,0,1,3.38.59,6.71,6.71,0,0,1,2.6,1.73l-1.06,1.08a6.61,6.61,0,0,0-4.85-1.88,7.22,7.22,0,0,0-3.53.86,6.33,6.33,0,0,0-2.47,2.39,6.92,6.92,0,0,0,0,6.81,6.46,6.46,0,0,0,2.46,2.39,7.08,7.08,0,0,0,3.51.87,7,7,0,0,0,4.2-1.24Z" transform="translate(-47.98 -19.77)"/><path class="cls-2" d="M135.85,137.25A7.17,7.17,0,0,1,134.1,132v-9.21h1.7V132a6,6,0,0,0,1.26,4.18,5.56,5.56,0,0,0,7.33,0,6,6,0,0,0,1.26-4.18v-9.14h1.65V132a7.2,7.2,0,0,1-1.73,5.21,7.5,7.5,0,0,1-9.73,0Z" transform="translate(-47.98 -19.77)"/><path class="cls-2" d="M152.43,122.83h1.7v14.61h9v1.47h-10.7Z" transform="translate(-47.98 -19.77)"/><path class="cls-2" d="M176.09,134.61h-9l-1.93,4.3h-1.77l7.35-16.08h1.68l7.35,16.08H178Zm-.62-1.38-3.86-8.64-3.86,8.64Z" transform="translate(-47.98 -19.77)"/><path class="cls-2" d="M184.17,124.3v6.32h8.31v1.47h-8.31v6.82h-1.7V122.83h11v1.47Z" transform="translate(-47.98 -19.77)"/><path class="cls-2" d="M198.62,137.25a7.17,7.17,0,0,1-1.75-5.21v-9.21h1.7V132a6,6,0,0,0,1.26,4.18,5.56,5.56,0,0,0,7.33,0,6,6,0,0,0,1.26-4.18v-9.14h1.65V132a7.2,7.2,0,0,1-1.73,5.21,7.5,7.5,0,0,1-9.73,0Z" transform="translate(-47.98 -19.77)"/></svg>