<?xml version="1.0" encoding="utf-8"?>
<!-- Generator: Adobe Illustrator 21.0.2, SVG Export Plug-In . SVG Version: 6.00 Build 0)  -->
<svg version="1.1" id="Layer_1" xmlns="http://www.w3.org/2000/svg" xmlns:xlink="http://www.w3.org/1999/xlink" x="0px" y="0px"
	 viewBox="0 0 541 250" style="enable-background:new 0 0 541 250;" xml:space="preserve">
<style type="text/css">
	.st0{fill:#3797A4;}
	.st1{fill:none;stroke:#000000;stroke-miterlimit:10;}
	.st2{fill:none;stroke:#98C9D0;stroke-width:0.798;stroke-miterlimit:10;}
	.st3{fill:none;stroke:#98C9D0;stroke-width:0.6384;stroke-miterlimit:10;}
	.st4{fill:none;stroke:#98C9D0;stroke-width:0.75;stroke-linecap:round;stroke-miterlimit:10;}
	.st5{fill-rule:evenodd;clip-rule:evenodd;fill:none;stroke:#50A4B0;stroke-width:1.3679;}
	.st6{fill-rule:evenodd;clip-rule:evenodd;fill:none;stroke:#50A4B0;stroke-width:1.1872;}
</style>
<title>logo</title>
<ellipse class="st0" cx="180" cy="54.4" rx="11.3" ry="11.3"/>
<path class="st0" d="M96.2,9.6c-0.4-5.1-13.4-14-19.6-7C58.3,25,122,60.8,150.6,73c12,5.1,20.9,6.8,19.5,14.5
	c-2.4,13.6-16.7,36.1-21.4,49.5c-5.2,14.9-3.3,49.9,13.4,77.3S180,250,180,250"/>
<path class="st0" d="M149.5,231.3c-5.6-64.3-5.6-74.4-1.2-96.6s28.6-48.1-1.7-62.7C119.7,59,113.2,59,89,35.5"/>
<path class="st0" d="M165.6,83l-2.8-3.5"/>
<ellipse class="st0" cx="11.3" cy="54.4" rx="11.3" ry="11.3"/>
<path class="st0" d="M95.1,9.6c0.4-5.1,13.4-14,19.6-7C133,25,69.3,60.8,40.7,73c-12,5.1-20.9,6.8-19.5,14.5
	c2.3,13.6,16.7,36.1,21.4,49.5c5.2,14.9,3.3,49.9-13.4,77.3S11.3,250,11.3,250"/>
<path class="st0" d="M41.8,231.3c5.6-64.3,5.6-74.4,1.2-96.6S14.4,86.6,44.6,72c26.9-13,33.5-13,57.6-36.5"/>
<path class="st0" d="M25.7,83l2.8-3.5"/>
<g>
	<g>
		<path class="st1" d="M442,251"/>
	</g>
</g>
<g>
	<path class="st2" d="M225.9,113.1"/>
</g>
<g>
	<path class="st3" d="M342.8,59.7"/>
</g>
<g>
	<path class="st4" d="M361.7-6.3"/>
</g>
<g>
	<g>
		<g>
			<g>
				<g>
					<g>
						<g>
							<g>
								<g>
									<g>
										<path class="st5" d="M264.6,56.7c0,2.3,0,4.7-0.1,7l0.5,0c1.2,3.8,2,7.7,2,11.7c0.6-2.4,1.1-4.8,1.5-7.2
											c-0.6-3.9-1.8-7.8-3.4-11.5L264.6,56.7z"/>
										<path class="st5" d="M264.5,63.7c0.1-2.3,0.1-4.7,0.1-7l-0.5,0c-1.5,3.7-2.9,7.4-4,10.9c0.1,2.3,0.1,4.5,0,6.8
											c1.1-3.5,2.5-7,3.9-10.7L264.5,63.7z"/>
									</g>
									<g>
										<path class="st5" d="M264.5,63.7c-0.1,2.3-0.2,4.7-0.5,7l0.4,0c0.8,3.8,1,7.8,0.2,11.7c1-2.3,1.7-4.7,2.4-7
											c0-3.9-0.8-7.8-2-11.7L264.5,63.7z"/>
										<path class="st5" d="M264,70.7c0.2-2.3,0.4-4.7,0.5-7l-0.5,0c-1.5,3.7-2.9,7.2-3.9,10.7c0,2.3-0.1,4.5-0.3,6.8
											c1-3.4,2.3-6.9,3.8-10.5L264,70.7z"/>
									</g>
									<g>
										<path class="st5" d="M264,70.7c-0.2,2.3-0.5,4.7-0.9,7l0.3,0.1c0.1,1.9,0,3.9-0.4,5.8c-0.4,1.9-1.1,3.8-2.3,5.4
											c1.8-2,2.9-4.2,3.9-6.5c0.8-3.9,0.6-7.8-0.2-11.7L264,70.7z"/>
										<path class="st5" d="M263.1,77.7c0.4-2.3,0.7-4.6,0.9-7l-0.4,0c-1.5,3.6-2.8,7.1-3.8,10.5c-0.2,2.2-0.5,4.5-1.2,6.5
											c0.7-1.5,1.3-3.2,2-4.9c0.7-1.7,1.4-3.4,2.2-5.2L263.1,77.7z"/>
									</g>
									<path class="st5" d="M264.6,58c0-1.8,0-3.6-0.1-5.4l-0.1-2.2c-0.1-1.2-0.1-2.4-0.2-3.6c-0.2-2.4-0.4-4.8-0.8-7.1
										c-0.7-4.7-1.6-9.5-3.4-13.9c-0.9-2.2-2-4.4-3.9-6c-0.9-0.7-2.1-1.2-3.3-1.1c-1.2,0.1-2.4,0.5-3.4,1
										c-2.1,1.1-3.9,2.8-5.5,4.6c-1.6,1.8-3,3.8-4.2,5.8c-2.5,4.1-4.5,8.5-5.7,13.1c-0.6,2.3-1,4.7-0.6,7.1
										c0.2,1.2,0.8,2.4,1.9,2.8c0.6,0.2,1.2,0.3,1.8,0.3c0.6,0,1.2-0.2,1.7-0.5c1-0.7,1.3-2,1.4-3.2c0-1.2-0.2-2.4-0.5-3.6
										c-0.6-2.3-1.5-4.6-2.5-6.7c-1.4-3-3.1-5.8-5-8.5c-1.9-2.7-4-5.3-6.4-7.5c-1.2-1.1-2.5-2.1-4-2.9c-1.4-0.7-3.2-1.2-4.8-0.6
										c-1.5,0.8-2.7,2-3.6,3.3c-1,1.3-1.7,2.8-2.4,4.3c-1.3,3.1-2,6.3-2.6,9.6c-0.5,3.3-0.8,6.6-1,9.9c-0.3,6.6,0,13.2,0.6,19.8
										c0.3,2.9,0.6,5.8,1.1,8.7c0.5,2.9,1,5.8,1.8,8.6"/>
									<g>
										<path class="st5" d="M212.9,89.4c-0.4-0.4-0.7-1-0.9-1.5c-0.2-0.5-0.4-1.1-0.6-1.6c-0.4-1.1-0.7-2.2-1-3.4l-0.2,0.1
											c-1.7-3.5-3.7-7-6-10.5c0.7,2.3,1.4,4.7,2.2,7c1.1,1.7,2.2,3.5,3.2,5.2l1.5,2.5C211.7,87.9,212.2,88.8,212.9,89.4
											L212.9,89.4z"/>
										<path class="st5" d="M210.4,82.9c0.3,1.1,0.6,2.3,1,3.4c0.2,0.6,0.4,1.1,0.6,1.6c0.2,0.5,0.5,1.1,0.9,1.5l0.1-0.1
											c-0.5-0.7-0.7-1.7-0.9-2.6c-0.1-0.9-0.2-1.9-0.2-2.8c0-1.9,0.3-3.8,0.7-5.8c0-2.3,0-4.6,0-6.9c-1.3,3.8-2.1,7.7-2,11.5
											L210.4,82.9z"/>
									</g>
								</g>
							</g>
						</g>
					</g>
				</g>
			</g>
		</g>
	</g>
</g>
<g>
	<g>
		<g>
			<g>
				<g>
					<g>
						<g>
							<g>
								<g>
									<g>
										<path class="st6" d="M284.9,80.9c-1,0-2-0.1-3-0.6c-0.9-0.5-1.7-1.1-2.3-1.9l-0.2,0.2c-0.3-0.3-1.2-0.3-1.5-0.6
											c-0.4-0.3-0.8-0.6-1.1-1c-0.6-0.7-1.4-1.5-1.8-2.3c-0.5-0.8-1-1.7-1.4-2.5c-0.4-0.9-0.8-1.8-1-2.6
											c-0.1,1.1-0.1,2.3-0.1,3.5c0,0.6,0.1,1.2,0.2,1.8c0.1,0.6,0.1,1.2,0.3,1.9c0.3,0.5,0.7,0.9,1,1.4c0.4,0.5,0.8,0.9,1.2,1.3
											c0.1,0.1,0.2,0.2,0.5,0.2c0.2,0,0.6-0.1,1-0.1c0.3,0,0.7-0.1,1-0.2c0.3,0,0.4,0,0.5,0.1l0.6,0.5l0.7,0.4
											c1.8,1,3.8,1.1,5.4,0.8L284.9,80.9z"/>
										<path class="st6" d="M279.6,78.4c0.6,0.8,1.4,1.5,2.3,1.9c0.9,0.4,2,0.6,3,0.6l0-0.2c-1.6-0.2-3-1.2-3.5-2.4l-0.2-0.4
											l-0.1-0.5c0-0.1,0-0.2,0.2-0.4c0.2-0.2,0.4-0.4,0.6-0.7l0.4-0.3l0.2-0.2l0.1-0.1c0.2-0.2,0.2-0.2,0.2-0.3l0.1-0.9l0.2-0.9
											c-0.2-0.3-0.3-0.7-0.5-1c-0.1-0.4-0.3-0.7-0.4-1.1c-0.2-0.8-0.6-1.6-0.8-2.6c-0.2,0.8-0.3,1.5-0.5,2.2
											c-0.2,0.8-0.3,1.5-0.5,2.3c-0.2,0.8-0.3,1.5-0.4,2.3c0,0.4,0,0.8-0.1,1.2c0,0.2-0.1,0.5-0.2,0.7c-0.1,0.3-0.1,0.5,0,0.7
											L279.6,78.4z"/>
									</g>
									<g>
										<path class="st6" d="M279.6,78.5c-1.2-1.6-1.8-3.6-2.2-5.6l-0.5,0.1c-2-3-3.1-6.5-3.3-9.9c-0.5,2.1-0.9,4.3-1.1,6.5
											c0.2,0.9,0.6,1.8,1,2.6c0.4,0.8,0.9,1.7,1.4,2.5c0.5,0.8,1.2,1.6,1.8,2.3c0.4,0.4,0.8,0.7,1.1,1c0.3,0.3,1.2,0.3,1.5,0.6
											L279.6,78.5z"/>
										<path class="st6" d="M277.4,72.8c0.4,2,1,4,2.2,5.6l0.2-0.2c-0.1-0.2-0.1-0.4,0-0.7c0.1-0.3,0.2-0.6,0.2-0.7
											c0-0.4,0-0.8,0.1-1.2c0.1-0.8,0.2-1.5,0.4-2.3l0.9-4.5c-0.5-1.8-0.9-3.7-1.3-5.7c-0.2,3.1-1.3,6.1-2.1,9.5L277.4,72.8z"/>
									</g>
									<g>
										<path class="st6" d="M277.4,72.8c-0.2-1-0.3-2-0.4-3c-0.1-1-0.1-2-0.2-3l-0.4,0c-0.6-1.6-1-3.3-1.1-4.9
											c-0.1-0.8-0.1-1.7,0-2.5c0.1-0.8,0.2-1.6,0.5-2.4c-0.9,2-1.5,4-2.1,6.1c0.1,3.4,1.2,6.9,3.3,9.9L277.4,72.8z"/>
										<path class="st6" d="M276.8,66.8c0,1,0.1,2,0.2,3c0.1,1,0.2,2,0.4,3l0.5-0.1c0.8-3.4,1.9-6.4,2.1-9.5c-0.4-2-0.9-4-1.3-6
											c0.1,0.8,0.1,1.6,0.1,2.4c0,0.8-0.1,1.6-0.2,2.4c-0.3,1.6-0.7,3.2-1.3,4.8L276.8,66.8z"/>
									</g>
									<path class="st6" d="M283.7,80.9c0.4,0,0.9,0.1,1.3,0.1c0.4,0,0.9,0,1.3-0.1c0.4-0.1,0.9-0.1,1.3-0.3
										c0.4-0.2,0.8-0.4,1.2-0.6c1.1-0.7,1.9-1.6,2.6-2.6c0.7-1,1.3-2.1,1.8-3.3c1-2.3,1.7-4.7,1.9-7.2c0.1-1.2,0.1-2.5-0.3-3.7
										c-0.2-0.6-0.6-1.1-1.2-1.3c-0.2,0-0.3-0.1-0.5-0.1l-0.5,0c-0.2,0-0.3,0-0.5,0.1c-0.2,0-0.3,0.1-0.4,0.1
										c-0.6,0.2-1,0.7-1.2,1.3c-0.2,0.6-0.2,1.2-0.2,1.9c0.1,1.2,0.4,2.5,0.9,3.6c0.9,2.3,2.2,4.5,3.7,6.5
										c1.5,1.9,3.3,3.8,5.7,4.8c0.3,0.1,0.6,0.2,0.9,0.3c0.3,0,0.6,0.1,0.9,0.1c0.6,0,1.3,0,1.9-0.1c1.2-0.1,2.5-0.5,3.5-1.3
										c1-0.8,1.6-2,1.8-3.2c0.3-1.2,0.3-2.5,0.3-3.7c-0.1-2.5-0.6-5-1.2-7.5c-0.6-2.5-1.3-4.9-2.1-7.3"/>
									<g>
										<path class="st6" d="M305,52.6c0.7,1.9,1.4,3.8,2,5.8l0.3-0.1c2,2.8,4.6,5.4,7.3,8.6c-0.7-2.2-1.7-4.2-2.7-6.1
											C309.1,58,306.6,55.5,305,52.6L305,52.6z"/>
										<path class="st6" d="M307,58.4c-0.6-1.9-1.3-3.9-2-5.8l-0.1,0c0.7,3.2,0.4,6.8-0.6,10.3c0.1,2,0.1,3.9,0.1,5.8
											c1.6-3.2,2.4-6.9,2.4-10.2L307,58.4z"/>
									</g>
								</g>
							</g>
						</g>
					</g>
				</g>
			</g>
		</g>
	</g>
</g>
<g>
	<path class="st0" d="M343,62.9c-0.8-1.4-1.5-2.8-2.5-4.1c-1-1.2-2.2-2.3-3.7-2.6c-1.5-0.4-3.1-0.4-4.5,0.1
		c-1.4,0.4-2.7,1.4-3.7,2.6c-2.1,2.3-3.6,5.2-4.5,8.3c-0.4,1.5-0.7,3.1-0.7,4.7c0,0.8,0.1,1.6,0.3,2.3c0.2,0.7,0.7,1.4,1.4,1.6
		c0.7,0.2,1.5,0.3,2.3,0.3c0.7,0,1.5-0.3,2.2-0.5c1.4-0.5,2.7-1.5,3.8-2.6c2.2-2.2,3.5-5.2,5.2-8c0.5-0.7,1-1.4,1.7-1.9
		c0.7-0.6,1.8-0.9,2.8-0.6c0.5,0.2,0.9,0.5,1.2,0.9c0.3,0.4,0.5,0.7,0.7,1.1c0.4,0.8,0.6,1.5,0.9,2.3c1,3.1,1.8,6.2,2.7,9.3
		c0,0,0,0.1,0,0.1c0,0-0.1,0-0.1,0c-1.1-3-2.2-6.1-3.3-9.1c-0.3-0.7-0.6-1.5-1-2.2c-0.4-0.7-0.8-1.3-1.3-1.5c-0.6-0.2-1.2,0-1.8,0.5
		c-0.5,0.4-1,1.1-1.4,1.7c-1.7,2.6-3.1,5.7-5.5,8c-1.2,1.2-2.6,2.1-4.2,2.6c-0.8,0.3-1.6,0.5-2.5,0.5c-0.9,0-1.7-0.2-2.5-0.5
		c-0.9-0.3-1.4-1.2-1.6-2c-0.2-0.8-0.3-1.6-0.3-2.5c0-1.6,0.3-3.2,0.7-4.8c0.9-3.1,2-6.2,4.1-8.8c1.1-1.2,2.4-2.4,4.1-2.9
		c1.7-0.5,3.4-0.4,5,0c1.7,0.4,3,1.8,3.9,3.1C341.9,59.8,342.5,61.4,343,62.9L343,62.9C343.1,62.9,343.1,62.9,343,62.9
		C343,62.9,343,62.9,343,62.9z"/>
</g>
<g>
	<g>
		<g>
			<g>
				<g>
					<g>
						<g>
							<g>
								<g>
									<g>
										<path class="st6" d="M410.8,80.6c0.5,0.2,1,0.2,1.5,0.2c0.5,0,1,0,1.5,0c1-0.1,2-0.4,2.8-1l-0.1-0.1
											c1.1-1.1,1.5-2.7,2-4.2c0.4-1.5,0.8-3.1,1.4-4.7c-0.9,1.9-1.6,3.8-2.5,5.5c-0.5,1.4-1,2.6-2.2,3.3c-1.1,0.7-2.8,1-4.4,0.9
											L410.8,80.6z"/>
										<path class="st6" d="M416.7,79.8c-0.8,0.6-1.8,0.9-2.8,1c-0.5,0-1,0-1.5,0c-0.5,0-1-0.1-1.5-0.2l-0.1,0.2
											c0.8,0.4,1.6,0.5,2.5,0.7c0.9,0.1,1.8,0.1,2.7-0.1c0.9-0.2,1.9-0.8,2.6-1.5c0.7-0.7,1.3-1.5,1.7-2.2
											c0.9-2,1.4-3.9,2.1-5.8c-0.7,1.4-1.4,2.9-2.3,4.3c-0.8,1.4-1.8,3-3.3,3.8L416.7,79.8z"/>
									</g>
									<g>
										<path class="st6" d="M416.7,79.9c0.8-0.6,1.4-1.5,1.9-2.3c0.5-0.9,0.9-1.8,1.2-2.8l-0.1-0.1c0.8-3.2,1.7-6.4,3.2-9.3
											c-1.1,1.8-2.1,3.6-2.9,5.5c-0.5,1.6-0.9,3.2-1.4,4.7c-0.5,1.5-0.9,3-2,4.2L416.7,79.9z"/>
										<path class="st6" d="M419.8,74.7c-0.4,0.9-0.8,1.9-1.2,2.8c-0.5,0.9-1.1,1.8-1.9,2.3l0.1,0.1c1.5-0.8,2.5-2.4,3.4-3.8
											c0.8-1.5,1.5-2.9,2.3-4.3c0.7-1.9,1.4-3.7,2.3-5.5c-1.7,2.7-3.2,5.5-4.7,8.4L419.8,74.7z"/>
									</g>
									<g>
										<path class="st6" d="M419.8,74.7c0.7-1.9,1.5-3.8,2.3-5.6L422,69c1-3.1,2.5-6.1,4.5-8.7c-1.3,1.6-2.6,3.3-3.7,5
											c-1.5,3-2.4,6.2-3.2,9.3L419.8,74.7z"/>
										<path class="st6" d="M422.2,69.1c-0.9,1.8-1.6,3.7-2.3,5.6l0.1,0.1c1.6-2.9,3-5.8,4.7-8.4c0.9-1.8,1.9-3.5,3-5.2
											c-2,2.5-3.8,5.2-5.5,8L422.2,69.1z"/>
									</g>
									<path class="st6" d="M412,80.8c-0.8-0.1-1.6-0.3-2.3-0.8c-0.7-0.5-1.1-1.2-1.5-1.9l-0.2-0.3l-0.1-0.1l-0.2-0.4
										c-0.1-0.2-0.2-0.4-0.3-0.6c-0.8-1.7-1.3-3.6-2-5.3c-0.7-1.8-1.4-3.6-2.4-5.1c-1-1.6-2.5-3-4.2-3.7
										c-1.8-0.7-3.7-0.8-5.6-0.6c-1.9,0.2-3.7,0.9-5.3,1.9c-3.3,2-5.8,4.9-8.3,7.7c-2.5,2.9-4.8,5.9-7.6,8.5
										c-1.4,1.3-2.8,2.5-4.5,3.5c-1.6,1-3.4,1.7-5.3,2c-1.9,0.3-3.8,0.2-5.6-0.6c-1.8-0.7-3.2-2.1-4.2-3.8
										c-1-1.6-1.6-3.5-1.9-5.3c-0.3-1.9-0.5-3.8-0.4-5.7c0.1-1.9,0.4-3.8,0.8-5.6c0.5-1.8,1.1-3.6,2.1-5.3
										c0.5-0.8,1.1-1.6,1.7-2.3c0.7-0.7,1.5-1.2,2.4-1.6c1.8-0.6,3.7-1.1,5.6-1.1c1.9,0,3.8,0.4,5.5,1.3c1.7,0.9,3.1,2.2,4.3,3.7
										c2.3,3,4.1,6.4,5.5,10c2.8,7.1,4.4,14.6,5.3,22.1c0.9,7.5,1,15.2,0.5,22.8c-0.5,7.6-1.8,15.1-3.8,22.4
										c-2,7.3-4.9,14.4-8.7,21c-3.8,6.6-8.8,12.4-14.7,17.2c-3,2.3-6.2,4.5-9.6,6.1c-0.9,0.4-1.7,0.9-2.6,1.3
										c-0.9,0.4-1.7,0.8-2.6,1.1c-1.8,0.7-3.6,1.3-5.4,1.9c-7.3,2.2-14.9,3.3-22.5,3.4c-7.6,0.2-15.2-0.5-22.7-2
										c-7.4-1.5-14.7-3.8-21.6-7c-3.4-1.6-6.8-3.5-9.9-5.6c-3.1-2.2-6-4.6-8.5-7.6c-2.4-2.9-4.3-6.4-4.7-10.2
										c-0.2-1.9,0-3.8,0.5-5.6c0.5-1.8,1.5-3.5,2.8-4.9c2.7-2.7,6.1-4.6,9.6-6.1c3.5-1.4,7.2-2.5,10.9-3.2
										c7.5-1.4,15.1-1.7,22.7-1.3c7.6,0.4,15.1,1.6,22.5,3.3c7.4,1.7,14.7,4.1,21.7,6.8c3.6,1.3,7,2.9,10.5,4.4
										c3.4,1.6,6.9,3.2,10.2,5c6.8,3.4,13.3,7.4,19.7,11.4l4.7,3.1l2.4,1.6l2.3,1.7l5.4,3.8l3.9,3l3.9,3l3.8,3.1"/>
									<g>
										<path class="st6" d="M408.1,188.4l-4.7-3.9l-0.1,0.1c-2.7-1.8-5.7-3.3-8.7-4.6l5.1,3.3
											C402.5,184.9,405.4,186.5,408.1,188.4L408.1,188.4z"/>
										<path class="st6" d="M403.3,184.5l4.7,3.9l0-0.1c-2.4-2.2-4.6-4.7-6.7-7.2l-4.6-4.1C398.9,179.6,401.2,182,403.3,184.5
											L403.3,184.5z"/>
									</g>
								</g>
							</g>
						</g>
					</g>
				</g>
			</g>
		</g>
	</g>
</g>
<g>
	<g>
		<g>
			<g>
				<g>
					<g>
						<g>
							<g>
								<g>
									<g>
										<path class="st6" d="M426.8,33.7c0.3-2,0.6-4,1-6l-0.6-0.1c-1-3.5-1.9-7.1-2-10.7c-0.8,2-1.5,4-2,6
											c0.7,3.6,2.2,7.3,3.2,10.7L426.8,33.7z"/>
										<path class="st6" d="M427.8,27.7c-0.4,2-0.7,4-1,6l0.4,0.1c1.8-3,4.5-5.7,6.6-8.5c0.3-1.9,0.6-3.9,0.9-5.8
											c-1.8,2.8-4.2,5.4-6.4,8.3L427.8,27.7z"/>
									</g>
									<g>
										<path class="st6" d="M427.8,27.7c0.4-2,0.8-4,1.3-6l-0.5-0.1c-0.7-3.5-1.1-7.1-0.4-10.4c-0.6,0.9-1.1,1.8-1.6,2.8
											c-0.5,1-0.9,1.9-1.3,2.9c0.1,3.5,1,7.1,2,10.7L427.8,27.7z"/>
										<path class="st6" d="M429,21.7c-0.5,2-0.9,4-1.3,6l0.5,0.1c2.2-2.9,4.6-5.6,6.4-8.3c0.2-2,0.4-4,0.5-6
											c-1.2,2.9-3.3,5.6-5.6,8.4L429,21.7z"/>
									</g>
									<g>
										<path class="st6" d="M429,21.7c0.5-2,1-3.9,1.6-5.9l-0.5-0.1c-0.3-3.5,0-6.9,1.9-9.7c-0.8,0.8-1.5,1.7-2.1,2.5
											c-0.6,0.9-1.3,1.8-1.8,2.7c-0.7,3.3-0.3,6.9,0.4,10.4L429,21.7z"/>
										<path class="st6" d="M430.6,15.8c-0.6,2-1.1,3.9-1.6,5.9l0.5,0.1c2.3-2.8,4.4-5.5,5.6-8.4c0.1-2,0.1-4.1,0-6.3
											c-0.1,1.7-0.7,3.2-1.4,4.6c-0.7,1.4-1.7,2.8-2.8,4.2L430.6,15.8z"/>
									</g>
									<path class="st6" d="M426.9,32.5c-0.1,0.9-0.3,1.8-0.4,2.7l-0.3,2.7c-0.4,4.4-0.6,8.8-0.3,13.2c0.2,4.4,0.8,8.8,2,13
										c1.2,4.2,3,8.3,5.6,11.8c1.3,1.7,2.9,3.3,4.7,4.6c1.8,1.3,3.8,2.3,5.8,3c1.2,0.4,2.4,0.7,3.7,0.9c0.6,0.1,1.3,0.2,1.9,0.2
										c0.6,0.1,1.3,0.1,1.9,0c1.3,0,2.5-0.2,3.8-0.4c1.2-0.2,2.5-0.6,3.7-0.9"/>
									<g>
										<path class="st6" d="M463.6,81.2c-1.8,1-3.7,1.8-5.6,2.3l0.1,0.3c-2.8,1.9-6.1,4.2-10.4,5.8c2.5,0,5-0.5,7.3-1.3
											C458.5,85.9,461,83.2,463.6,81.2L463.6,81.2z"/>
										<path class="st6" d="M458,83.6c1.9-0.6,3.8-1.4,5.6-2.3l0-0.1c-3.1,1.2-6.8,0.8-9.7-0.9c-1.7-0.3-3.3-0.7-4.8-1.2
											c2.1,2.5,5.5,4.1,8.9,4.2L458,83.6z"/>
									</g>
								</g>
							</g>
						</g>
					</g>
				</g>
			</g>
		</g>
	</g>
</g>
<g>
	<path class="st3" d="M495.3,59.7"/>
</g>
<g>
	<path class="st0" d="M480.2,67.3c-0.8-1.4-1.5-2.8-2.5-4.1c-1-1.2-2.2-2.3-3.7-2.6c-1.5-0.4-3.1-0.4-4.5,0.1
		c-1.4,0.4-2.7,1.4-3.7,2.6c-2.1,2.3-3.6,5.2-4.5,8.3c-0.4,1.5-0.7,3.1-0.7,4.7c0,0.8,0.1,1.6,0.3,2.3c0.2,0.7,0.7,1.4,1.4,1.6
		c0.7,0.2,1.5,0.3,2.3,0.3c0.7,0,1.5-0.3,2.2-0.5c1.4-0.5,2.7-1.5,3.8-2.6c2.2-2.2,3.5-5.2,5.2-8c0.5-0.7,1-1.4,1.7-1.9
		c0.7-0.6,1.8-0.9,2.8-0.6c0.5,0.2,0.9,0.5,1.2,0.9c0.3,0.4,0.5,0.7,0.7,1.1c0.4,0.8,0.6,1.5,0.9,2.3c1,3.1,1.8,6.2,2.7,9.3
		c0,0,0,0.1,0,0.1c0,0-0.1,0-0.1,0c-1.1-3-2.2-6.1-3.3-9.1c-0.3-0.7-0.6-1.5-1-2.2c-0.4-0.7-0.8-1.3-1.3-1.5c-0.6-0.2-1.2,0-1.8,0.5
		c-0.5,0.4-1,1.1-1.4,1.7c-1.7,2.6-3.1,5.7-5.5,8c-1.2,1.2-2.6,2.1-4.2,2.6c-0.8,0.3-1.6,0.5-2.5,0.5c-0.9,0-1.7-0.2-2.5-0.5
		c-0.9-0.3-1.4-1.2-1.6-2c-0.2-0.8-0.3-1.6-0.3-2.5c0-1.6,0.3-3.2,0.7-4.8c0.9-3.1,2-6.2,4.1-8.8c1.1-1.2,2.4-2.4,4.1-2.9
		c1.7-0.5,3.4-0.4,5,0c1.7,0.4,3,1.8,3.9,3.1C479.1,64.3,479.7,65.8,480.2,67.3L480.2,67.3C480.3,67.3,480.3,67.3,480.2,67.3
		C480.3,67.3,480.2,67.3,480.2,67.3z"/>
</g>
<g>
	<g>
		<g>
			<g>
				<g>
					<g>
						<g>
							<g>
								<g>
									<g>
										<path class="st6" d="M492,29.7c0.9-1.8,2.2-3.4,3.9-4.6l-0.3-0.3c2-3,5.3-5.2,9.1-5.9c-2.4-0.1-4.8,0.2-7.2,1
											c-1.7,1.1-3.1,2.6-4.2,4.3c-1.1,1.7-1.7,3.6-1.8,5.4L492,29.7z"/>
										<path class="st6" d="M495.8,25.1c-1.6,1.2-3,2.8-3.9,4.6l0.4,0.2c1.3-1.2,2.7-1.9,4-2.3c1.4-0.5,2.7-0.7,4.1-0.9
											c1.4-0.8,3-1.5,4.6-1.8c-2.7-0.3-5.7-0.4-9,0.5L495.8,25.1z"/>
									</g>
									<g>
										<path class="st6" d="M495.8,25.1c1.6-1.2,3.5-2.1,5.5-2.6l-0.1-0.4c2.9-1.8,6.8-2.7,10.4-1.5c-2.1-1.1-4.5-1.7-6.9-1.8
											c-3.8,0.7-7.1,3-9.1,5.9L495.8,25.1z"/>
										<path class="st6" d="M501.3,22.5c-2,0.6-3.8,1.4-5.5,2.6l0.2,0.3c3.2-0.9,6.3-0.8,9-0.6c1.6-0.3,3.4-0.5,5.1-0.2
											c-2.5-1-5.4-1.7-8.8-1.9L501.3,22.5z"/>
									</g>
									<g>
										<path class="st6" d="M501.3,22.5c2-0.5,4-0.8,6-0.6l0-0.3c1.7-0.3,3.5-0.1,5.1,0.5c1.7,0.6,3.2,1.8,4.2,3.3
											c-1-2.1-2.9-3.8-5-4.9c-3.7-1.2-7.5-0.3-10.4,1.5L501.3,22.5z"/>
										<path class="st6" d="M507.3,21.9c-2-0.2-4.1,0.1-6,0.6l0.1,0.3c3.3,0.1,6.3,0.8,8.8,1.9c1.7,0.3,3.3,0.9,4.8,2.1
											c-2-2.1-4.5-3.6-7.6-4.7L507.3,21.9z"/>
									</g>
									<path class="st6" d="M492.5,28.7l-1.8,3.5c-0.2,0.3-0.3,0.6-0.4,0.9l-0.9,2.2c-0.5,1.1-0.8,2.2-1.1,3.4l-0.5,1.7
										c-0.1,0.6-0.2,1.2-0.4,1.7c-1,4.6-1.3,9.4-1,14.1c0.2,4.7,0.8,9.4,1.6,14.1c3.5,18.6,10.3,36.4,14.2,54.9
										c1,4.6,1.8,9.3,2.2,14c0.1,1.2,0.2,2.4,0.3,3.5l0.1,3.5c-0.1,2.4-0.1,4.7-0.4,7.1c-0.5,4.7-1.6,9.4-3.5,13.7
										c-1,2.1-2,4.3-3.3,6.2c-0.6,1-1.4,1.9-2.1,2.9c-0.7,0.9-1.5,1.8-2.3,2.7c-3.2,3.5-7,6.3-11.1,8.7c-2,1.3-4.2,2.2-6.3,3.3
										l-3.3,1.4l-1.6,0.7l-1.7,0.6c-8.9,3.1-18.3,5-27.6,6.1c-1.3,0.2-2.5,0.3-3.8,0.5l-3.8,0.3l-3.8,0.3l-3.8,0.2"/>
									<g>
										<path class="st6" d="M421.6,201.1l6.1-0.3l0-0.2c0.8-0.2,1.6-0.4,2.4-0.6c0.8-0.3,1.6-0.6,2.4-0.9
											c1.6-0.6,3.1-1.4,4.6-2.2c-2,0.4-3.9,0.9-5.9,1.3C428,199.6,424.8,200.5,421.6,201.1L421.6,201.1z"/>
										<path class="st6" d="M427.7,200.8l-6.1,0.3l0,0.1c3.3,0.1,6.5,0.8,9.9,1.7c2.1,0.1,4.1,0.2,6.2,0.3
											c-1.7-0.5-3.4-1-5.1-1.3c-0.8-0.2-1.7-0.3-2.5-0.5c-0.8-0.2-1.6-0.3-2.5-0.4L427.7,200.8z"/>
									</g>
								</g>
							</g>
						</g>
					</g>
				</g>
			</g>
		</g>
	</g>
</g>
<g>
	<g>
		<g>
			<g>
				<g>
					<g>
						<g>
							<g>
								<g>
									<g>
										<path class="st6" d="M494.2,54.7c-1-0.3-2-0.5-3-0.7c-1-0.1-2-0.3-3-0.4l-0.1,0.6c-3.4,1.2-6.5,2.7-9.6,3.7l2.9,0.4
											c1,0.1,1.9,0.2,2.8,0.4c1.5-0.6,3.1-1.2,4.7-1.8c1.6-0.6,3.3-1.2,5.1-1.6L494.2,54.7z"/>
										<path class="st6" d="M488.2,53.6c1,0.1,2,0.3,3,0.4c1,0.2,2,0.4,3,0.7l0.1-0.5c-1.4-1.2-2.9-2.4-4.5-3.4
											c-0.8-0.6-1.6-1-2.4-1.5c-0.8-0.5-1.7-0.9-2.5-1.3l-1.6,0l-1.6,0.1c-1.1,0.1-2.2,0.2-3.2,0.4c3.4,0.9,6.8,2.5,9.9,4.5
											L488.2,53.6z"/>
									</g>
									<g>
										<path class="st6" d="M488.2,53.6c-2-0.2-4.1-0.4-6.1-0.4l0,0.5c-3.3,1.4-6.3,2.8-9.4,3.2c2,0.4,4,0.6,5.9,0.9
											c3.1-1,6.2-2.5,9.6-3.7L488.2,53.6z"/>
										<path class="st6" d="M482.1,53.2c2,0,4.1,0.2,6.1,0.4l0.1-0.6c-3.1-2-6.5-3.7-9.9-4.5c-2.1,0.3-4.2,0.9-6.3,1.5
											c3.4,0,6.8,1,10,2.6L482.1,53.2z"/>
									</g>
									<g>
										<path class="st6" d="M482.1,53.2c-2-0.1-4.1,0-6.1,0.1l0,0.4c-3.2,1.4-6.2,2.4-9.5,2c2.1,0.5,4.1,0.9,6.1,1.3
											c3.1-0.4,6.2-1.9,9.4-3.2L482.1,53.2z"/>
										<path class="st6" d="M476,53.3c2-0.1,4.1-0.1,6.1-0.1l0-0.5c-3.2-1.6-6.7-2.6-10-2.6c-2,0.7-4.1,1.5-6,2.6
											c1.6-0.6,3.2-0.8,4.9-0.7c1.7,0,3.3,0.5,5,1L476,53.3z"/>
									</g>
									<path class="st6" d="M493.1,54.4c0.9,0.2,1.7,0.5,2.6,0.7c0.4,0.1,0.8,0.3,1.3,0.4c0.4,0.2,0.9,0.3,1.3,0.5
										c2.5,1,4.9,2.4,6.9,4.2c2,1.8,3.6,4.1,4.7,6.6c1.1,2.5,1.8,5.1,2.5,7.8c0.3,1.3,0.9,2.6,1.5,3.8c0.7,1.2,1.4,2.3,2.3,3.3
										c0.9,1,2,1.9,3.2,2.4c1.3,0.5,2.7,0.6,4,0.3c2.7-0.4,5.3-1.7,6.9-3.9c1.7-2.2,2.4-4.9,2.9-7.5c0.5-2.7,0.7-5.4,1.5-8
										c0.4-1.2,0.8-2.4,1.6-3.4c0.8-1,1.9-1.8,3.1-2.1c2.4-0.8,5.1-0.5,7.5,0.4"/>
									<g>
										<path class="st6" d="M551.2,62.1c-1.7-1.1-3.5-2.1-5.5-2.6l-0.1,0.3c-1.7,0-3.3,0.6-4.4,1.6c-0.6,0.5-1,1.1-1.1,1.6
											c-0.1,0.6,0,1.1,0.3,1.6c0-0.3,0-0.5,0.3-0.8c0.1-0.1,0.1-0.2,0.3-0.2c0.1-0.1,0.2-0.2,0.3-0.2c0.3-0.1,0.6-0.3,0.9-0.4
											c1-1,2.6-1.6,4.2-1.7C548,61.1,549.7,61.4,551.2,62.1L551.2,62.1z"/>
										<path class="st6" d="M545.7,59.5c2,0.6,3.8,1.5,5.5,2.6l0-0.1c-1.3-1.1-2.4-2.3-3.9-3.5c-1.4-1.2-3.1-2.5-5.3-3.4
											c-0.7-0.1-1.4-0.2-2.1-0.2c-0.4,0-0.8,0-1.1,0.1c-0.4,0-0.8,0.1-1.2,0.2c-1.6,0.3-3.4,1.2-4.7,2.4
											c1.4-0.7,2.9-1.1,4.2-1.2c1.3-0.1,2.5,0.1,3.5,0.4c2.1,0.6,3.7,1.5,5.2,2.4L545.7,59.5z"/>
									</g>
								</g>
							</g>
						</g>
					</g>
				</g>
			</g>
		</g>
	</g>
</g>
</svg>
