<?xml version="1.0" encoding="utf-8"?>
<!-- Generator: Adobe Illustrator 21.0.2, SVG Export Plug-In . SVG Version: 6.00 Build 0)  -->
<svg version="1.1" id="Layer_1" xmlns="http://www.w3.org/2000/svg" xmlns:xlink="http://www.w3.org/1999/xlink" x="0px" y="0px"
	 viewBox="0 0 541 250" style="enable-background:new 0 0 541 250;" xml:space="preserve">
<style type="text/css">
	.st0{fill:#3797A4;}
	.st1{fill:none;stroke:#000000;stroke-miterlimit:10;}
	.st2{fill:none;stroke:#98C9D0;stroke-width:0.75;stroke-miterlimit:10;}
	.st3{fill:none;stroke:#98C9D0;stroke-width:0.6;stroke-miterlimit:10;}
	.st4{fill:none;stroke:#98C9D0;stroke-width:0.75;stroke-linecap:round;stroke-miterlimit:10;}
	.st5{fill-rule:evenodd;clip-rule:evenodd;fill:none;stroke:#50A4B0;stroke-width:1.2856;}
	.st6{fill-rule:evenodd;clip-rule:evenodd;fill:none;stroke:#50A4B0;stroke-width:1.1158;}
</style>
<title>logo</title>
<ellipse class="st0" cx="180" cy="54.4" rx="11.3" ry="11.3"/>
<path class="st0" d="M96.2,9.6c-0.4-5.1-13.4-14-19.6-7C58.3,25,122,60.8,150.6,73c12,5.1,20.9,6.8,19.5,14.5
	c-2.4,13.6-16.7,36.1-21.4,49.5c-5.2,14.9-3.3,49.9,13.4,77.3S180,250,180,250"/>
<path class="st0" d="M149.5,231.3c-5.6-64.3-5.6-74.4-1.2-96.6s28.6-48.1-1.7-62.7C119.7,59,113.2,59,89,35.5"/>
<path class="st0" d="M165.6,83l-2.8-3.5"/>
<ellipse class="st0" cx="11.3" cy="54.4" rx="11.3" ry="11.3"/>
<path class="st0" d="M95.1,9.6c0.4-5.1,13.4-14,19.6-7C133,25,69.3,60.8,40.7,73c-12,5.1-20.9,6.8-19.5,14.5
	c2.3,13.6,16.7,36.1,21.4,49.5c5.2,14.9,3.3,49.9-13.4,77.3S11.3,250,11.3,250"/>
<path class="st0" d="M41.8,231.3c5.6-64.3,5.6-74.4,1.2-96.6S14.4,86.6,44.6,72c26.9-13,33.5-13,57.6-36.5"/>
<path class="st0" d="M25.7,83l2.8-3.5"/>
<g>
	<g>
		<path class="st1" d="M442,251"/>
	</g>
</g>
<g>
	<path class="st2" d="M222,110.8"/>
</g>
<g>
	<path class="st3" d="M332,100.7"/>
</g>
<g>
	<path class="st4" d="M361.7,33.7"/>
</g>
<g>
	<g>
		<g>
			<g>
				<g>
					<g>
						<g>
							<g>
								<g>
									<g>
										<path class="st5" d="M258.4,97.8c0,2.2,0,4.4-0.1,6.6l0.5,0c1.1,3.6,1.8,7.2,1.9,11c0.6-2.2,1.1-4.5,1.4-6.7
											c-0.6-3.7-1.7-7.3-3.2-10.8L258.4,97.8z"/>
										<path class="st5" d="M258.3,104.4c0.1-2.2,0.1-4.4,0.1-6.6l-0.5,0c-1.4,3.5-2.7,6.9-3.8,10.2c0.1,2.1,0.1,4.3,0,6.4
											c1-3.3,2.3-6.6,3.7-10.1L258.3,104.4z"/>
									</g>
									<g>
										<path class="st5" d="M258.3,104.3c-0.1,2.2-0.2,4.4-0.4,6.6l0.4,0c0.7,3.6,0.9,7.3,0.2,11c0.9-2.2,1.6-4.4,2.2-6.6
											c0-3.7-0.8-7.4-1.9-11L258.3,104.3z"/>
										<path class="st5" d="M257.9,110.9c0.2-2.2,0.4-4.4,0.4-6.6l-0.4,0c-1.4,3.5-2.7,6.8-3.7,10.1c0,2.1-0.1,4.3-0.3,6.4
											c1-3.2,2.2-6.5,3.6-9.8L257.9,110.9z"/>
									</g>
									<g>
										<path class="st5" d="M257.9,110.9c-0.2,2.2-0.5,4.4-0.9,6.5l0.3,0.1c0.1,1.8,0,3.6-0.4,5.4c-0.4,1.8-1,3.6-2.2,5.1
											c1.7-1.8,2.8-4,3.7-6.1c0.8-3.6,0.6-7.3-0.2-11L257.9,110.9z"/>
										<path class="st5" d="M257,117.5c0.4-2.2,0.7-4.4,0.9-6.5l-0.4,0c-1.4,3.4-2.7,6.7-3.6,9.8c-0.2,2.1-0.5,4.2-1.1,6.1
											c1.3-2.9,2.4-6.2,3.9-9.4L257,117.5z"/>
									</g>
									<path class="st5" d="M258.4,99c0-1.4,0-2.8-0.1-4.3l0-1.1l-0.1-2c-0.1-1.9-0.3-3.8-0.4-5.7c-0.4-3.8-0.9-7.5-1.8-11.2
										c-0.4-1.8-1-3.7-1.7-5.5c-0.7-1.8-1.5-3.5-2.7-5c-0.6-0.7-1.3-1.4-2.2-1.8c-0.9-0.4-1.9-0.4-2.8-0.3
										c-1.9,0.4-3.6,1.4-5,2.6c-2.9,2.5-5.2,5.6-7.1,8.8c-1.9,3.3-3.5,6.8-4.6,10.4c-0.5,1.8-1,3.7-1,5.6c0,0.9,0,1.9,0.3,2.8
										c0.3,0.9,0.9,1.8,1.8,2.1c0.9,0.3,1.9,0.3,2.8-0.1c0.9-0.4,1.4-1.3,1.5-2.3c0.3-1.9-0.2-3.8-0.7-5.6
										c-1.1-3.6-2.9-7-4.9-10.3c-2-3.2-4.3-6.3-7-9c-1.4-1.3-2.8-2.6-4.5-3.5c-0.8-0.4-1.7-0.8-2.7-0.9c-0.9-0.1-1.9,0.1-2.7,0.7
										c-1.6,1.1-2.8,2.6-3.7,4.3c-0.9,1.7-1.6,3.4-2.2,5.3c-1.1,3.6-1.7,7.4-2,11.2c-0.7,7.6-0.4,15.2,0.3,22.8
										c0.3,2.7,0.6,5.5,1,8.2c0.4,2.7,1,5.4,1.7,8.1"/>
									<g>
										<path class="st5" d="M209.8,128.5c-0.7-0.8-1.1-1.9-1.4-2.9c-0.4-1-0.6-2.1-0.9-3.2l-0.2,0.1c-1.6-3.3-3.5-6.5-5.6-9.9
											c0.6,2.2,1.3,4.4,2.1,6.6c1.1,1.6,2.1,3.3,3,4.9l1.4,2.4C208.6,127.1,209.1,127.9,209.8,128.5L209.8,128.5z"/>
										<path class="st5" d="M207.4,122.4c0.3,1.1,0.6,2.1,0.9,3.2c0.4,1,0.7,2.1,1.4,2.9l0.1-0.1c-0.5-0.7-0.7-1.6-0.9-2.4
											c-0.1-0.9-0.2-1.7-0.2-2.6c0-1.8,0.3-3.6,0.7-5.4c0-2.2,0-4.3,0-6.5c-1.2,3.6-2,7.3-1.9,10.8L207.4,122.4z"/>
									</g>
								</g>
							</g>
						</g>
					</g>
				</g>
			</g>
		</g>
	</g>
</g>
<g>
	<g>
		<g>
			<g>
				<g>
					<g>
						<g>
							<g>
								<g>
									<g>
										<path class="st6" d="M277.5,120.6c-0.9,0-1.9-0.1-2.8-0.5c-0.8-0.4-1.6-1-2.2-1.8l-0.2,0.2c-0.2-0.3-1.1-0.2-1.4-0.6
											c-0.4-0.3-0.7-0.6-1.1-0.9c-0.6-0.7-1.3-1.4-1.7-2.2c-0.5-0.8-1-1.6-1.3-2.4c-0.4-0.8-0.7-1.7-0.9-2.5
											c-0.1,1-0.1,2.2-0.1,3.3c0,0.5,0.1,1.2,0.2,1.7c0.1,0.6,0.1,1.2,0.3,1.8c0.3,0.4,0.6,0.9,0.9,1.3c0.4,0.4,0.8,0.9,1.2,1.2
											c0.1,0.1,0.2,0.2,0.5,0.2c0.2,0,0.6-0.1,0.9-0.1c0.3,0,0.7-0.1,0.9-0.2c0.2,0,0.4,0,0.5,0.1l0.6,0.4l0.6,0.4
											c1.7,0.9,3.6,1,5.1,0.7L277.5,120.6z"/>
										<path class="st6" d="M272.5,118.2c0.5,0.8,1.3,1.4,2.2,1.8c0.9,0.4,1.8,0.5,2.8,0.5l0-0.2c-1.5-0.2-2.8-1.1-3.3-2.3
											l-0.2-0.4l-0.1-0.5c0-0.1,0-0.2,0.1-0.4c0.1-0.2,0.4-0.4,0.6-0.6l0.3-0.3l0.2-0.2l0.1-0.1c0.2-0.2,0.2-0.2,0.2-0.3
											l0.1-0.8l0.2-0.9c-0.2-0.2-0.3-0.6-0.4-1c-0.1-0.4-0.3-0.7-0.4-1.1c-0.2-0.8-0.5-1.5-0.7-2.4c-0.2,0.7-0.3,1.4-0.4,2.1
											c-0.2,0.7-0.3,1.4-0.5,2.1c-0.2,0.8-0.2,1.4-0.4,2.2c0,0.4,0,0.7,0,1.1c0,0.2-0.1,0.5-0.2,0.7c-0.1,0.2-0.1,0.5,0,0.6
											L272.5,118.2z"/>
									</g>
									<g>
										<path class="st6" d="M272.5,118.3c-1.1-1.5-1.7-3.4-2.1-5.3l-0.5,0.1c-1.9-2.8-2.9-6.1-3.1-9.3c-0.5,2-0.9,4-1,6.1
											c0.2,0.8,0.6,1.7,0.9,2.5c0.3,0.8,0.8,1.6,1.3,2.4c0.4,0.8,1.1,1.5,1.7,2.2c0.3,0.3,0.7,0.6,1.1,0.9
											c0.2,0.2,0.4,0.2,0.7,0.3c0.3,0.1,0.5,0.1,0.7,0.3L272.5,118.3z"/>
										<path class="st6" d="M270.5,113c0.4,1.9,0.9,3.7,2.1,5.3l0.2-0.2c-0.1-0.2-0.1-0.4,0-0.6c0-0.2,0.2-0.5,0.2-0.7
											c0-0.4,0-0.8,0-1.1c0.1-0.8,0.2-1.4,0.4-2.2l0.9-4.2c-0.5-1.7-0.8-3.5-1.3-5.3c-0.2,2.9-1.2,5.8-2,8.9L270.5,113z"/>
									</g>
									<g>
										<path class="st6" d="M270.5,113c-0.2-0.9-0.3-1.9-0.4-2.8c-0.1-1-0.1-1.9-0.2-2.9l-0.4,0c-0.5-1.5-1-3.1-1-4.6
											c-0.1-0.8-0.1-1.6,0-2.3c0.1-0.8,0.2-1.5,0.5-2.3c-0.9,1.9-1.5,3.8-2,5.8c0.1,3.2,1.2,6.5,3.1,9.3L270.5,113z"/>
										<path class="st6" d="M269.9,107.3c0,1,0.1,1.9,0.2,2.9c0.1,0.9,0.2,1.9,0.4,2.8l0.5-0.1c0.8-3.2,1.8-6,2-8.9
											c-0.4-1.9-0.8-3.7-1.3-5.7c0.3,3.1-0.3,6-1.4,9L269.9,107.3z"/>
									</g>
									<path class="st6" d="M276.4,120.5c0.4,0,0.8,0.1,1.3,0c0.4,0,0.8,0,1.3-0.1c0.8-0.1,1.6-0.4,2.3-0.9c1-0.6,1.8-1.5,2.5-2.5
										c0.7-1,1.3-2,1.7-3.1c0.9-2.1,1.6-4.4,1.8-6.8c0.1-1.2,0.1-2.4-0.3-3.5c-0.2-0.5-0.6-1.1-1.2-1.2c-0.6-0.1-1.2,0-1.7,0.1
										c-0.5,0.2-1,0.7-1.2,1.3c-0.2,0.6-0.2,1.2-0.2,1.7c0.1,1.2,0.4,2.3,0.8,3.4c0.8,2.2,2,4.2,3.5,6.1c1.4,1.8,3.1,3.6,5.3,4.5
										c0.3,0.1,0.6,0.2,0.8,0.2c0.3,0,0.6,0.1,0.9,0.1l0.9,0l0.9-0.1c1.2-0.1,2.3-0.5,3.2-1.2c1-0.7,1.4-1.9,1.7-3
										c0.3-1.1,0.3-2.3,0.3-3.5c0-0.6-0.1-1.2-0.1-1.8l-0.3-1.8c-0.2-1.2-0.5-2.3-0.7-3.5l-0.9-3.4l-1.1-3.4"/>
									<g>
										<path class="st6" d="M296.4,94c0.6,1.8,1.3,3.6,1.9,5.4l0.3-0.1c0.5,0.7,1,1.3,1.5,1.9c0.5,0.7,1.1,1.3,1.7,2
											c1.2,1.3,2.4,2.7,3.7,4.2c-0.4-1-0.8-2-1.2-3c-0.4-1-0.9-1.9-1.4-2.8c-1.3-1.3-2.6-2.5-3.6-3.8
											C298.2,96.6,297.2,95.3,296.4,94L296.4,94z"/>
										<path class="st6" d="M298.3,99.4c-0.6-1.8-1.3-3.6-1.9-5.4l-0.1,0c0.3,1.5,0.4,3.1,0.3,4.7c-0.2,1.6-0.4,3.3-0.9,5
											c0,0.9,0.1,1.9,0.1,2.8l0,2.6c0.7-1.5,1.3-3.1,1.7-4.8c0.2-0.8,0.3-1.6,0.4-2.4c0.1-0.8,0.1-1.6,0.1-2.4L298.3,99.4z"/>
									</g>
								</g>
							</g>
						</g>
					</g>
				</g>
			</g>
		</g>
	</g>
</g>
<g>
	<path class="st0" d="M332.2,103.6c-0.8-1.3-1.5-2.7-2.4-3.8c-0.9-1.2-2.1-2.1-3.4-2.5c-1.4-0.3-2.9-0.4-4.3,0.1
		c-1.3,0.4-2.5,1.3-3.5,2.4c-2,2.2-3.4,4.9-4.2,7.8c-0.4,1.4-0.7,2.9-0.7,4.4c0,0.7,0.1,1.5,0.3,2.2c0.2,0.7,0.7,1.3,1.3,1.5
		c0.7,0.2,1.4,0.3,2.1,0.3c0.7,0,1.4-0.2,2.1-0.5c1.4-0.5,2.6-1.4,3.6-2.4c2.1-2.1,3.3-4.9,4.9-7.5c0.4-0.6,0.9-1.3,1.6-1.8
		c0.7-0.5,1.7-0.9,2.6-0.5c0.5,0.2,0.8,0.5,1.1,0.8c0.3,0.3,0.5,0.7,0.6,1.1c0.3,0.7,0.6,1.4,0.9,2.2c1,2.9,1.7,5.8,2.5,8.7
		c0,0,0,0.1,0,0.1c0,0-0.1,0-0.1,0c-1.1-2.8-2.1-5.7-3.1-8.5c-0.3-0.7-0.6-1.4-0.9-2c-0.3-0.6-0.8-1.2-1.3-1.4
		c-0.5-0.1-1.2,0-1.6,0.4c-0.5,0.4-0.9,1-1.3,1.6c-1.6,2.5-2.9,5.4-5.1,7.6c-1.1,1.1-2.5,2-4,2.5c-0.7,0.2-1.5,0.5-2.3,0.4
		c-0.8,0-1.6-0.2-2.3-0.4c-0.8-0.3-1.3-1.1-1.5-1.9c-0.2-0.8-0.3-1.5-0.3-2.3c0-1.5,0.3-3,0.7-4.5c0.8-2.9,1.9-5.8,3.9-8.3
		c1-1.2,2.3-2.3,3.8-2.7c1.6-0.4,3.2-0.4,4.7,0c1.6,0.4,2.8,1.6,3.7,2.9C331.1,100.8,331.6,102.2,332.2,103.6L332.2,103.6
		C332.3,103.6,332.2,103.6,332.2,103.6C332.2,103.6,332.2,103.6,332.2,103.6z"/>
</g>
<g>
	<g>
		<g>
			<g>
				<g>
					<g>
						<g>
							<g>
								<g>
									<g>
										<path class="st6" d="M396,120.2c0.5,0.2,0.9,0.2,1.4,0.2c0.5,0,1,0,1.4,0c1-0.1,1.9-0.3,2.7-0.9l-0.1-0.1
											c1-1.1,1.5-2.5,1.9-3.9c0.4-1.4,0.8-2.9,1.3-4.4c-0.8,1.8-1.5,3.6-2.4,5.1c-0.5,1.3-1,2.4-2.1,3.1
											c-1.1,0.6-2.7,0.9-4.1,0.8L396,120.2z"/>
										<path class="st6" d="M401.5,119.5c-0.8,0.6-1.7,0.9-2.7,0.9c-0.5,0-1,0-1.4,0c-0.5,0-1-0.1-1.4-0.2l-0.1,0.2
											c0.8,0.4,1.5,0.5,2.3,0.6c0.8,0.1,1.7,0.1,2.6-0.1c0.9-0.2,1.8-0.7,2.4-1.4c0.7-0.6,1.2-1.4,1.6-2.1
											c0.8-1.9,1.3-3.7,2-5.5c-0.7,1.3-1.3,2.7-2.1,4.1c-0.8,1.3-1.7,2.8-3.2,3.6L401.5,119.5z"/>
									</g>
									<g>
										<path class="st6" d="M401.5,119.6c0.8-0.6,1.3-1.4,1.8-2.2c0.5-0.8,0.8-1.7,1.2-2.6l-0.1-0.1c0.7-3,1.6-6,3-8.8
											c-1,1.7-1.9,3.4-2.8,5.2c-0.5,1.5-0.9,3-1.3,4.4c-0.4,1.4-0.8,2.9-1.9,3.9L401.5,119.6z"/>
										<path class="st6" d="M404.4,114.8c-0.4,0.9-0.7,1.8-1.2,2.6c-0.5,0.8-1,1.6-1.8,2.2l0.1,0.1c1.5-0.8,2.4-2.2,3.2-3.6
											c0.8-1.4,1.4-2.7,2.1-4.1c0.6-1.8,1.3-3.5,2.2-5.2c-1.6,2.5-3,5.2-4.5,7.9L404.4,114.8z"/>
									</g>
									<g>
										<path class="st6" d="M404.4,114.8c0.7-1.8,1.4-3.6,2.2-5.3l-0.1-0.1c1-2.9,2.4-5.7,4.2-8.2c-1.3,1.5-2.4,3.1-3.4,4.7
											c-1.4,2.8-2.3,5.8-3,8.8L404.4,114.8z"/>
										<path class="st6" d="M406.6,109.5c-0.8,1.7-1.5,3.5-2.2,5.3l0.1,0.1c1.5-2.7,2.9-5.4,4.5-7.9c0.8-1.7,1.8-3.3,2.8-4.9
											c-1.9,2.4-3.6,4.8-5.1,7.5L406.6,109.5z"/>
									</g>
									<path class="st6" d="M397,120.4c-0.8,0-1.5-0.3-2.1-0.8c-0.6-0.5-1.1-1.1-1.5-1.8l-0.1-0.2l-0.1-0.1l-0.2-0.4
										c-0.1-0.2-0.2-0.4-0.3-0.6c-0.7-1.6-1.2-3.3-1.9-5c-0.6-1.7-1.3-3.3-2.3-4.8c-1-1.5-2.3-2.8-4-3.4
										c-1.7-0.7-3.5-0.8-5.3-0.5c-1.8,0.2-3.5,0.9-5,1.8c-3.1,1.8-5.5,4.6-7.8,7.2c-2.3,2.7-4.5,5.5-7.1,8
										c-2.6,2.4-5.6,4.6-9.2,5.2c-1.8,0.3-3.6,0.2-5.3-0.5c-1.7-0.7-3-2-3.9-3.5c-0.9-1.5-1.5-3.3-1.8-5
										c-0.3-1.8-0.4-3.6-0.3-5.3c0.1-1.8,0.3-3.6,0.8-5.3c0.4-1.7,1.1-3.4,2-5c0.4-0.8,1-1.5,1.6-2.1c0.6-0.6,1.4-1.1,2.2-1.5
										c1.7-0.6,3.4-1,5.2-1c1.8,0,3.6,0.4,5.1,1.2c1.6,0.8,2.9,2.1,4,3.5c2.2,2.8,3.8,6.1,5.1,9.4c2.6,6.6,4.1,13.7,5,20.8
										c0.9,7.1,1,14.3,0.5,21.4c-0.5,7.1-1.7,14.2-3.6,21.1c-1.9,6.9-4.6,13.5-8.2,19.7c-3.6,6.1-8.3,11.7-13.9,16.2
										c-5.6,4.4-12.2,7.6-19,9.6c-6.9,2-14,3-21.1,3.2c-7.1,0.1-14.3-0.5-21.3-1.9c-7-1.4-13.9-3.6-20.3-6.6
										c-3.2-1.5-6.4-3.3-9.3-5.3c-2.9-2-5.7-4.4-7.9-7.1c-2.3-2.7-4-6-4.4-9.6c-0.4-3.5,0.7-7.3,3.2-9.9c2.5-2.5,5.7-4.3,9-5.7
										c3.3-1.3,6.8-2.3,10.3-3c7-1.3,14.2-1.6,21.3-1.2c7.1,0.4,14.2,1.5,21.2,3.1c7,1.6,13.8,3.8,20.4,6.4
										c3.4,1.2,6.6,2.7,9.9,4.1c3.2,1.5,6.5,3,9.6,4.7c6.4,3.2,12.5,6.9,18.5,10.7l4.5,3l2.2,1.5l2.2,1.6l5.1,3.6l3.6,2.8
										l3.6,2.8l3.6,2.9"/>
									<g>
										<path class="st6" d="M393.4,221.4l-4.4-3.6l-0.1,0.1c-2.6-1.7-5.4-3.1-8.2-4.3l4.8,3.1
											C388.2,218.1,390.8,219.7,393.4,221.4L393.4,221.4z"/>
										<path class="st6" d="M388.9,217.8l4.4,3.6l0,0c-2.2-2.1-4.3-4.4-6.3-6.8l-4.3-3.8C384.8,213.2,386.9,215.5,388.9,217.8
											L388.9,217.8z"/>
									</g>
								</g>
							</g>
						</g>
					</g>
				</g>
			</g>
		</g>
	</g>
</g>
<g>
	<g>
		<g>
			<g>
				<g>
					<g>
						<g>
							<g>
								<g>
									<g>
										<path class="st6" d="M411,76.2c0.3-1.9,0.6-3.8,0.9-5.7l-0.5-0.1c-1-3.3-1.8-6.7-1.9-10c-0.8,1.8-1.4,3.7-1.9,5.7
											c0.6,3.4,2.1,6.9,3,10.1L411,76.2z"/>
										<path class="st6" d="M411.9,70.6c-0.4,1.9-0.7,3.8-0.9,5.7l0.4,0.1c1.7-2.8,4.3-5.4,6.2-8c0.3-1.8,0.6-3.6,0.8-5.5
											c-1.7,2.6-3.9,5.1-6,7.8L411.9,70.6z"/>
									</g>
									<g>
										<path class="st6" d="M411.9,70.6c0.4-1.9,0.8-3.7,1.2-5.6l-0.5-0.1c-0.7-3.3-1.1-6.7-0.4-9.8c-1.1,1.7-2,3.5-2.8,5.3
											c0.1,3.3,0.9,6.7,1.9,10L411.9,70.6z"/>
										<path class="st6" d="M413.1,65c-0.4,1.9-0.9,3.7-1.2,5.6l0.5,0.1c2.1-2.7,4.3-5.2,6-7.8c0.2-1.8,0.4-3.7,0.5-5.6
											c-1.2,2.7-3.1,5.3-5.3,7.9L413.1,65z"/>
									</g>
									<g>
										<path class="st6" d="M413.1,65c0.5-1.9,0.9-3.7,1.5-5.5l-0.4-0.1c-0.3-3.3,0-6.5,1.8-9.1c-0.7,0.8-1.4,1.6-2,2.4
											c-0.6,0.8-1.2,1.7-1.7,2.5c-0.7,3.1-0.3,6.4,0.4,9.8L413.1,65z"/>
										<path class="st6" d="M414.6,59.5c-0.5,1.8-1,3.7-1.5,5.5l0.5,0.1c2.2-2.6,4.1-5.1,5.3-7.9c0.1-1.9,0.1-3.9,0-5.9
											c-0.1,1.6-0.6,3-1.3,4.3c-0.7,1.4-1.6,2.7-2.6,4L414.6,59.5z"/>
									</g>
									<path class="st6" d="M411.1,75.1c-0.1,0.8-0.2,1.7-0.3,2.5l-0.3,2.5c-0.4,4.1-0.5,8.2-0.3,12.3c0.2,4.1,0.8,8.2,1.9,12.2
										c1.1,4,2.8,7.8,5.3,11.1c2.5,3.3,5.9,5.9,9.9,7.1c1.1,0.4,2.3,0.7,3.5,0.8c0.6,0.1,1.2,0.2,1.8,0.2c0.6,0.1,1.2,0.1,1.8,0
										c1.2,0,2.4-0.1,3.5-0.3c1.2-0.2,2.3-0.5,3.5-0.9"/>
									<g>
										<path class="st6" d="M445.6,120.8c-1.7,0.9-3.5,1.6-5.3,2.2l0.1,0.3c-2.7,1.8-5.7,4-9.8,5.5c2.4,0,4.7-0.5,6.9-1.2
											C440.8,125.2,443.2,122.7,445.6,120.8L445.6,120.8z"/>
										<path class="st6" d="M440.3,123c1.8-0.5,3.6-1.3,5.3-2.2l0-0.1c-2.9,1.1-6.4,0.7-9.1-0.9c-1.6-0.2-3.1-0.6-4.5-1.1
											c2,2.3,5.2,3.9,8.3,4L440.3,123z"/>
									</g>
								</g>
							</g>
						</g>
					</g>
				</g>
			</g>
		</g>
	</g>
</g>
<g>
	<path class="st3" d="M475.5,100.7"/>
</g>
<g>
	<path class="st0" d="M461.3,107.8c-0.8-1.3-1.5-2.7-2.4-3.8c-0.9-1.2-2.1-2.1-3.4-2.5c-1.4-0.3-2.9-0.4-4.3,0.1
		c-1.3,0.4-2.5,1.3-3.5,2.4c-2,2.2-3.4,4.9-4.2,7.8c-0.4,1.4-0.7,2.9-0.7,4.4c0,0.7,0.1,1.5,0.3,2.2c0.2,0.7,0.7,1.3,1.3,1.5
		c0.7,0.2,1.4,0.3,2.1,0.3c0.7,0,1.4-0.2,2.1-0.5c1.4-0.5,2.6-1.4,3.6-2.4c2.1-2.1,3.3-4.9,4.9-7.5c0.4-0.6,0.9-1.3,1.6-1.8
		c0.7-0.5,1.7-0.9,2.6-0.5c0.5,0.2,0.8,0.5,1.1,0.8c0.3,0.3,0.5,0.7,0.6,1.1c0.3,0.7,0.6,1.4,0.9,2.2c1,2.9,1.7,5.8,2.5,8.7
		c0,0,0,0.1,0,0.1c0,0-0.1,0-0.1,0c-1.1-2.8-2.1-5.7-3.1-8.5c-0.3-0.7-0.6-1.4-0.9-2c-0.3-0.6-0.8-1.2-1.3-1.4
		c-0.5-0.1-1.2,0-1.6,0.4c-0.5,0.4-0.9,1-1.3,1.6c-1.6,2.5-2.9,5.4-5.1,7.6c-1.1,1.1-2.5,2-4,2.5c-0.7,0.2-1.5,0.5-2.3,0.4
		c-0.8,0-1.6-0.2-2.3-0.4c-0.8-0.3-1.3-1.1-1.5-1.9c-0.2-0.8-0.3-1.5-0.3-2.3c0-1.5,0.3-3,0.7-4.5c0.8-2.9,1.9-5.8,3.9-8.3
		c1-1.2,2.3-2.3,3.8-2.7c1.6-0.4,3.2-0.4,4.7,0c1.6,0.4,2.8,1.6,3.7,2.9C460.2,104.9,460.8,106.3,461.3,107.8L461.3,107.8
		C461.4,107.7,461.3,107.8,461.3,107.8C461.3,107.8,461.3,107.8,461.3,107.8z"/>
</g>
<g>
	<g>
		<g>
			<g>
				<g>
					<g>
						<g>
							<g>
								<g>
									<g>
										<path class="st6" d="M472.3,72.5c0.8-1.7,2.1-3.2,3.7-4.3l-0.2-0.3c1.9-2.8,5-4.8,8.6-5.6c-2.3-0.1-4.5,0.2-6.8,1
											c-1.6,1.1-2.9,2.5-3.9,4c-1,1.6-1.6,3.4-1.7,5L472.3,72.5z"/>
										<path class="st6" d="M476,68.1c-1.6,1.1-2.8,2.6-3.7,4.3l0.4,0.2c1.2-1.1,2.6-1.7,3.8-2.2c0.7-0.2,1.3-0.4,1.9-0.5
											c0.3-0.1,0.6-0.2,0.9-0.2l0.9-0.1c1.3-0.8,2.8-1.4,4.3-1.7c-1.3-0.1-2.6-0.3-4-0.1c-0.7,0-1.4,0.1-2.2,0.2
											c-0.4,0-0.7,0.1-1.1,0.2c-0.4,0.1-0.8,0.1-1.1,0.3L476,68.1z"/>
									</g>
									<g>
										<path class="st6" d="M475.9,68.2c1.5-1.1,3.3-2,5.1-2.5l-0.1-0.3c0.7-0.4,1.4-0.8,2.2-1.1c0.4-0.1,0.8-0.3,1.2-0.4
											c0.4-0.1,0.8-0.2,1.2-0.2c0.8-0.2,1.7-0.1,2.6-0.2c0.4,0,0.9,0.1,1.3,0.2l0.7,0.1l0.6,0.2c-2-1-4.3-1.6-6.5-1.7
											c-3.5,0.7-6.7,2.8-8.6,5.6L475.9,68.2z"/>
										<path class="st6" d="M481.1,65.7c-1.8,0.5-3.6,1.4-5.1,2.5l0.2,0.3c0.4-0.1,0.8-0.2,1.1-0.3c0.4-0.1,0.7-0.2,1.1-0.2
											c0.8-0.1,1.4-0.2,2.2-0.2c1.4-0.1,2.8,0.1,4,0.1c1.6-0.3,3.2-0.4,4.8-0.2l-0.4-0.2l-0.5-0.1c-0.3-0.1-0.6-0.2-0.9-0.3
											c-0.6-0.1-1.3-0.4-2-0.5l-1.1-0.2l-1.1-0.1c-0.7-0.1-1.5-0.1-2.3-0.2L481.1,65.7z"/>
									</g>
									<g>
										<path class="st6" d="M481.1,65.7c1.8-0.5,3.8-0.7,5.7-0.5l0-0.3c0.4,0,0.8-0.1,1.2-0.1c0.4,0,0.8,0,1.2,0.1l0.6,0.1
											l0.6,0.1c0.4,0.1,0.8,0.2,1.2,0.3c0.7,0.4,1.6,0.7,2.2,1.3c0.3,0.3,0.7,0.5,0.9,0.9c0.3,0.3,0.5,0.7,0.8,1
											c-0.9-2-2.7-3.5-4.7-4.6l-0.6-0.2l-0.7-0.1c-0.4-0.1-0.9-0.1-1.3-0.2c-0.9,0-1.7,0-2.6,0.2c-0.4,0.1-0.8,0.2-1.2,0.2
											c-0.4,0.1-0.8,0.3-1.2,0.4c-0.8,0.2-1.5,0.7-2.2,1.1L481.1,65.7z"/>
										<path class="st6" d="M486.7,65.1c-1.9-0.2-3.8,0-5.7,0.5l0.1,0.3c0.8,0.1,1.5,0.1,2.3,0.2l1.1,0.1l1.1,0.2
											c0.7,0.1,1.3,0.4,2,0.5c0.3,0.1,0.6,0.2,0.9,0.3l0.5,0.1l0.4,0.2c1.6,0.2,3.2,0.8,4.5,2c-0.3-0.2-0.5-0.5-0.7-0.7
											c-0.2-0.2-0.5-0.4-0.8-0.6c-0.5-0.5-1.1-0.8-1.7-1.2l-0.9-0.5l-0.5-0.3l-0.5-0.2l-1-0.5l-1.1-0.4L486.7,65.1z"/>
									</g>
									<path class="st6" d="M472.8,71.5l-1.7,3.3c-0.2,0.3-0.3,0.6-0.4,0.8l-0.8,2.1c-0.5,1-0.7,2.1-1,3.2l-0.5,1.6
										c-0.1,0.5-0.2,1.1-0.3,1.6c-0.9,4.3-1.2,8.8-1,13.2c0.2,4.4,0.7,8.9,1.5,13.2c3.3,17.5,9.7,34.2,13.4,51.6
										c1,4.3,1.7,8.7,2.1,13.1c0.1,1.1,0.2,2.2,0.3,3.3l0.1,3.3c-0.1,2.2-0.1,4.4-0.4,6.6c-0.5,4.4-1.5,8.8-3.3,12.9
										c-1,2-1.9,4-3.2,5.9c-0.6,0.9-1.3,1.8-1.9,2.7c-0.7,0.9-1.5,1.7-2.2,2.5c-3,3.2-6.6,5.9-10.5,8.2c-1.9,1.2-3.9,2.1-5.9,3.1
										l-3.1,1.3l-1.5,0.6l-1.6,0.5c-8.4,2.9-17.2,4.7-26,5.7c-1.2,0.1-2.4,0.3-3.5,0.4l-3.6,0.3l-3.6,0.3l-3.6,0.2"/>
									<g>
										<path class="st6" d="M406.1,233.4l5.7-0.3l0-0.2c0.8-0.2,1.5-0.4,2.3-0.6c0.7-0.3,1.5-0.5,2.2-0.8c1.5-0.6,2.9-1.3,4.4-2
											c-1.9,0.4-3.7,0.8-5.6,1.2C412.2,232,409.1,232.8,406.1,233.4L406.1,233.4z"/>
										<path class="st6" d="M411.8,233.1l-5.7,0.3l0,0.1c3.1,0.1,6.1,0.8,9.3,1.6c1.9,0.1,3.9,0.2,5.8,0.3
											c-1.6-0.5-3.2-0.9-4.8-1.3c-0.8-0.2-1.6-0.3-2.3-0.4c-0.8-0.1-1.6-0.3-2.3-0.4L411.8,233.1z"/>
									</g>
								</g>
							</g>
						</g>
					</g>
				</g>
			</g>
		</g>
	</g>
</g>
<g>
	<g>
		<g>
			<g>
				<g>
					<g>
						<g>
							<g>
								<g>
									<g>
										<path class="st6" d="M474.4,95.9c-0.9-0.2-1.9-0.4-2.8-0.6c-0.9-0.1-1.9-0.3-2.8-0.4l-0.1,0.5c-3.2,1.2-6.1,2.6-9,3.5
											l2.7,0.4c0.9,0.1,1.8,0.2,2.6,0.3c1.4-0.6,2.9-1.2,4.4-1.7c1.5-0.6,3.1-1.1,4.8-1.5L474.4,95.9z"/>
										<path class="st6" d="M468.7,94.9c1,0.1,1.9,0.3,2.8,0.4c0.9,0.2,1.9,0.4,2.8,0.6l0.1-0.5c-1.3-1.1-2.7-2.2-4.2-3.2
											c-1.5-1-3.1-1.9-4.7-2.6l-1.5,0l-1.5,0.1c-1,0.1-2,0.2-3,0.4c3.2,0.8,6.4,2.3,9.3,4.2L468.7,94.9z"/>
									</g>
									<g>
										<path class="st6" d="M468.8,94.9c-1.9-0.2-3.8-0.3-5.7-0.4l0,0.5c-3.1,1.3-5.9,2.6-8.9,3.1c1.9,0.4,3.7,0.6,5.6,0.9
											c2.9-0.9,5.8-2.3,9-3.5L468.8,94.9z"/>
										<path class="st6" d="M463,94.5c1.9,0,3.8,0.2,5.7,0.4l0.1-0.5c-2.9-1.9-6.1-3.5-9.3-4.3c-2,0.3-4,0.8-5.9,1.4
											c3.2,0,6.4,1,9.4,2.5L463,94.5z"/>
									</g>
									<g>
										<path class="st6" d="M463,94.5c-1.9-0.1-3.8,0-5.7,0.1l0,0.4c-3,1.3-5.9,2.2-8.9,1.9c2,0.5,3.9,0.9,5.8,1.2
											c2.9-0.4,5.8-1.8,8.9-3.1L463,94.5z"/>
										<path class="st6" d="M457.3,94.6c1.9-0.1,3.8-0.1,5.7-0.1l0-0.5c-3-1.5-6.3-2.5-9.4-2.5c-1.9,0.7-3.8,1.4-5.6,2.4
											c1.5-0.6,3-0.7,4.6-0.7c1.6,0,3.1,0.4,4.7,0.9L457.3,94.6z"/>
									</g>
									<path class="st6" d="M473.3,95.7c0.8,0.2,1.6,0.4,2.4,0.6c0.4,0.1,0.8,0.3,1.2,0.4c0.4,0.1,0.8,0.3,1.2,0.4
										c2.4,0.9,4.6,2.3,6.5,4c1.9,1.7,3.4,3.9,4.4,6.2c1.1,2.3,1.7,4.8,2.3,7.3c0.3,1.2,0.8,2.4,1.4,3.5c0.6,1.1,1.3,2.2,2.2,3.1
										c0.9,0.9,1.9,1.8,3,2.3c1.2,0.5,2.5,0.6,3.7,0.3c2.5-0.4,5-1.6,6.5-3.7c1.6-2,2.3-4.6,2.7-7.1c0.5-2.5,0.7-5.1,1.4-7.5
										c0.3-1.1,0.8-2.3,1.5-3.2c0.7-0.9,1.8-1.6,2.9-2c2.3-0.7,4.8-0.4,7,0.4"/>
									<g>
										<path class="st6" d="M528.1,102.9c-1.6-1.1-3.3-1.9-5.2-2.5l-0.1,0.3c-1.6,0-3.1,0.5-4.2,1.5c-0.6,0.4-0.9,1-1.1,1.5
											c-0.1,0.6,0,1.1,0.3,1.5c0-0.3,0-0.5,0.3-0.8c0.1-0.1,0.1-0.2,0.3-0.2c0.1-0.1,0.2-0.2,0.3-0.2c0.3-0.1,0.6-0.3,0.9-0.4
											c1-0.9,2.4-1.5,4-1.6C525.1,101.9,526.6,102.3,528.1,102.9L528.1,102.9z"/>
										<path class="st6" d="M522.9,100.4c1.8,0.5,3.6,1.4,5.2,2.5l0-0.1c-1.2-1-2.3-2.1-3.6-3.3c-1.3-1.2-2.9-2.3-5-3.2
											c-0.6-0.1-1.3-0.2-2-0.2c-0.3,0-0.7,0-1.1,0.1c-0.4,0-0.7,0.1-1.1,0.2c-1.5,0.3-3.2,1.1-4.5,2.3c1.3-0.7,2.7-1,3.9-1.2
											c1.3-0.1,2.4,0.1,3.3,0.4c1.9,0.5,3.5,1.4,4.9,2.2L522.9,100.4z"/>
									</g>
								</g>
							</g>
						</g>
					</g>
				</g>
			</g>
		</g>
	</g>
</g>
</svg>
