<svg id="Layer_1" data-name="Layer 1" xmlns="http://www.w3.org/2000/svg" xmlns:xlink="http://www.w3.org/1999/xlink" viewBox="0 0 191.3 250"><defs><style>.cls-1{fill:url(#radial-gradient);}.cls-2{fill:url(#linear-gradient);}.cls-3{fill:url(#linear-gradient-2);}.cls-4{fill:url(#linear-gradient-3);}.cls-5{fill:url(#radial-gradient-2);}.cls-6{fill:url(#linear-gradient-4);}.cls-7{fill:url(#linear-gradient-5);}.cls-8{fill:url(#linear-gradient-6);}</style><radialGradient id="radial-gradient" cx="179.99" cy="54.37" r="11.31" gradientUnits="userSpaceOnUse"><stop offset="0" stop-color="#fbb03b"/><stop offset="1" stop-color="#f7931e"/></radialGradient><linearGradient id="linear-gradient" x1="100.77" y1="124.79" x2="207.35" y2="124.79" gradientUnits="userSpaceOnUse"><stop offset="0" stop-color="#fbb03b"/><stop offset="0.82" stop-color="#f9a12c" stop-opacity="0.8"/><stop offset="1" stop-color="#f7931e"/></linearGradient><linearGradient id="linear-gradient-2" x1="116.36" y1="133.19" x2="188.96" y2="133.19" xlink:href="#radial-gradient"/><linearGradient id="linear-gradient-3" x1="190.16" y1="81.08" x2="192.97" y2="81.08" gradientUnits="userSpaceOnUse"><stop offset="0" stop-color="#fbb03b"/><stop offset="0.83" stop-color="#f9a12c" stop-opacity="0.6"/><stop offset="1" stop-color="#f7931e"/></linearGradient><radialGradient id="radial-gradient-2" cx="2319.35" cy="54.16" r="11.31" gradientTransform="matrix(-1, 0, 0, 1, 2330.67, 0.21)" xlink:href="#radial-gradient"/><linearGradient id="linear-gradient-4" x1="2212.77" y1="124.79" x2="2319.35" y2="124.79" gradientTransform="matrix(-1, 0, 0, 1, 2358.03, 0)" xlink:href="#linear-gradient"/><linearGradient id="linear-gradient-5" x1="2228.36" y1="133.19" x2="2300.96" y2="133.19" gradientTransform="matrix(-1, 0, 0, 1, 2358.03, 0)" xlink:href="#radial-gradient"/><linearGradient id="linear-gradient-6" x1="2302.16" y1="81.08" x2="2304.97" y2="81.08" gradientTransform="matrix(-1, 0, 0, 1, 2358.03, 0)" xlink:href="#linear-gradient-3"/></defs><title>logo</title><ellipse class="cls-1" cx="179.99" cy="54.37" rx="11.32" ry="11.3"/><path class="cls-2" d="M123.61,9.36c-.41-5.14-13.37-14-19.55-7-18.41,22.4,45.3,58.25,73.87,70.4,12,5.12,20.88,6.76,19.54,14.47-2.35,13.55-16.68,36.13-21.4,49.52-5.25,14.9-3.29,49.94,13.37,77.27s17.9,35.76,17.9,35.76" transform="translate(-27.36 0.21)"/><path class="cls-3" d="M176.9,231.09c-5.56-64.32-5.56-74.39-1.23-96.58S204.24,86.43,174,71.83c-26.95-13-33.47-13-57.65-36.53" transform="translate(-27.36 0.21)"/><path class="cls-4" d="M193,82.82l-2.81-3.47" transform="translate(-27.36 0.21)"/><ellipse class="cls-5" cx="11.32" cy="54.37" rx="11.32" ry="11.3"/><path class="cls-6" d="M122.42,9.36c.41-5.14,13.37-14,19.55-7,18.41,22.4-45.3,58.25-73.87,70.4-12,5.12-20.88,6.76-19.54,14.47,2.35,13.55,16.68,36.13,21.4,49.52,5.25,14.9,3.29,49.94-13.37,77.27s-17.9,35.76-17.9,35.76" transform="translate(-27.36 0.21)"/><path class="cls-7" d="M69.13,231.09c5.56-64.32,5.56-74.39,1.23-96.58S41.79,86.43,72,71.83c26.95-13,33.47-13,57.65-36.53" transform="translate(-27.36 0.21)"/><path class="cls-8" d="M53.06,82.82l2.81-3.47" transform="translate(-27.36 0.21)"/></svg>