<svg xmlns="http://www.w3.org/2000/svg" viewBox="0 0 2440.74 718.72"><defs><style>.cls-1{isolation:isolate;}.cls-10,.cls-11,.cls-12,.cls-2,.cls-4,.cls-5,.cls-6,.cls-8,.cls-9{fill:#2c2d2d;}.cls-3{fill:none;}.cls-4{opacity:0.4;}.cls-4,.cls-5,.cls-6{mix-blend-mode:soft-light;}.cls-5{opacity:0.2;}.cls-6{opacity:0.3;}.cls-7{font-size:300px;font-family:Montserrat-Medium, Montserrat;}.cls-10,.cls-8,.cls-9{opacity:0.7;}.cls-10,.cls-13,.cls-9{font-size:250px;}.cls-9{letter-spacing:0em;}.cls-10,.cls-11,.cls-12,.cls-13{font-family:Montserrat-Thin, Montserrat;}.cls-11,.cls-12{font-size:240px;}.cls-11{letter-spacing:-0.02em;}</style></defs><title>mumbi logo</title><g class="cls-1"><g id="Layer_1" data-name="Layer 1"><path class="cls-2" d="M988.87,540A362,362,0,0,1,987,576.41a356.92,356.92,0,0,1-49.25,148.37A360.21,360.21,0,0,1,712.62,889.69a354.13,354.13,0,0,1-34.89,6.45,222.75,222.75,0,0,1-40.61-251.26s0,0,0,0a222.86,222.86,0,0,1,59.19-48.77A221.23,221.23,0,0,1,734.38,579l2.74-.91c1.64-.53,3.29-1.05,4.95-1.54,2-.6,4.06-1.18,6.1-1.72.73-.2,1.46-.4,2.19-.58l2.8-.7c.79-.2,1.57-.38,2.36-.56l3.24-.73,2.53-.52,2.16-.43.9-.17c.82-.16,1.65-.31,2.47-.45q4.17-.73,8.4-1.32L778,569a138.37,138.37,0,0,0-31.89-30.52,136.83,136.83,0,0,0-77.93-24.2,138.8,138.8,0,0,0-22.48,1.83c-1.08.17-2.16.37-3.23.57-.8.15-1.61.31-2.4.48l-.8.17h0a360.51,360.51,0,0,0-367.7,54.83q-1.42-15.9-1.43-32.18c0-198.47,160.89-359.36,359.36-359.36S988.87,341.53,988.87,540Z" transform="translate(-270.16 -180.64)"/><path class="cls-3" d="M654.47,626.18l1.26-.54a223.67,223.67,0,0,0-18.6,19.23s0,0,0,0a221.17,221.17,0,0,0-51.74,116.8q-.83,6.63-1.26,13.36c-.3,4.75-.46,9.55-.46,14.37A221,221,0,0,0,612.52,899l-.76,0-1.9-.09c-1-.05-2-.11-2.95-.18l-2.79-.18-2.79-.2-2.78-.23c-1.8-.16-3.6-.32-5.4-.5q-6.37-.64-12.68-1.5l-1.69-.24-2.71-.39-2.7-.41q-8.09-1.26-16.06-2.9c-1.7-.35-3.39-.7-5.08-1.07l-.22,0c-1.71-.38-3.41-.76-5.1-1.16l-.27-.06q-5.12-1.22-10.17-2.56l-.62-.17c-1.48-.39-2.95-.8-4.41-1.22l-.54-.15q-2.48-.7-4.94-1.44a222.93,222.93,0,0,1,128.51-258Z" transform="translate(-270.16 -180.64)"/><path class="cls-3" d="M639.31,517.36l-.79.17.77-.18.82-.16Z" transform="translate(-270.16 -180.64)"/><path class="cls-3" d="M778,569l-2.82.37q-4.23.58-8.4,1.32c-.83.14-1.65.29-2.47.45l-.9.17-2.16.43-2.53.52-3.24.73-2.36.56-2.8.7c-.73.18-1.46.38-2.19.58-2,.54-4.08,1.12-6.1,1.72-1.66.49-3.31,1-4.95,1.54l-2.74.91a221.23,221.23,0,0,0-38.06,17.07,223.61,223.61,0,0,0-40.59,29.54l-1.26.54A222.93,222.93,0,0,0,526,884.21,359.86,359.86,0,0,1,346.73,761.77a222.74,222.74,0,0,1-3.32-38.47c0-122.66,99.44-222.1,222.1-222.1A137,137,0,0,1,633,518.86c1-.27,2.09-.54,3.14-.79.8-.19,1.59-.37,2.39-.54l.79-.17.8-.17,2.4-.48c1.07-.2,2.15-.39,3.23-.57a138.8,138.8,0,0,1,22.48-1.83,136.83,136.83,0,0,1,77.93,24.2A138.37,138.37,0,0,1,778,569Z" transform="translate(-270.16 -180.64)"/><path class="cls-4" d="M677.73,896.14a360,360,0,0,1-48.21,3.22q-8.55,0-17-.41l-.76,0h0a222.67,222.67,0,0,1,42.71-272.73l1.26-.54a223.67,223.67,0,0,0-18.6,19.23s0,0,0,0a222.75,222.75,0,0,0,40.61,251.26Z" transform="translate(-270.16 -180.64)"/><path class="cls-5" d="M677.73,896.14a360,360,0,0,1-48.21,3.22q-8.55,0-17-.41l-.76,0-1.9-.1c-1-.05-2-.11-2.95-.18l-2.79-.18-2.79-.2-2.78-.23c-1.8-.16-3.6-.32-5.4-.5q-6.37-.64-12.68-1.5l-1.69-.24-2.71-.39-2.7-.41q-8.09-1.27-16.06-2.9c-1.7-.35-3.39-.7-5.08-1.07l-.22,0c-1.71-.38-3.41-.76-5.1-1.16l-.27-.06q-5.12-1.22-10.17-2.56l-.62-.17c-1.48-.39-2.95-.8-4.41-1.22l-.54-.15q-2.48-.7-4.94-1.44a222.93,222.93,0,0,1,128.51-258l1.26-.54a223.67,223.67,0,0,0-18.6,19.23s0,0,0,0a222.75,222.75,0,0,0,40.61,251.26Z" transform="translate(-270.16 -180.64)"/><path class="cls-6" d="M639.31,517.36l-.79.17c-.8.17-1.59.35-2.39.54-1.05.25-2.1.52-3.14.79a137,137,0,0,0-67.48-17.66c-122.66,0-222.1,99.44-222.1,222.1a222.74,222.74,0,0,0,3.32,38.47,357.57,357.57,0,0,1-75.14-189.59,360.51,360.51,0,0,1,367.7-54.83Z" transform="translate(-270.16 -180.64)"/><text class="cls-7" transform="translate(1061.47 473)"><tspan class="cls-8">M</tspan><tspan class="cls-9" x="286.5" y="0">umbi</tspan><tspan class="cls-10" x="960.24" y="0"> </tspan><tspan class="cls-11" x="1022.74" y="0">C</tspan><tspan class="cls-12" x="1187.38" y="0">o</tspan><tspan class="cls-13" x="1333.77" y="0">.</tspan></text></g></g></svg>