<svg xmlns="http://www.w3.org/2000/svg" viewBox="0 0 454.32 321.61"><defs><style>.cls-1{opacity:0.7;}.cls-2{fill:#fff;}.cls-3,.cls-4{fill:none;stroke:#fff;}.cls-3{stroke-width:0;}.cls-4{stroke-miterlimit:10;}</style></defs><title>side divider</title><g id="Layer_2" data-name="Layer 2"><g id="Layer_5" data-name="Layer 5"><g class="cls-1"><path class="cls-2" d="M130,48.84c-4-3.61-8.08-7.35-12.07-10.78C113.64,34.41,110,30.71,106,27.27a72,72,0,0,0-13-9.35c-6.13-3.38-12.25-6.63-18.67-9.49A97.36,97.36,0,0,0,54.1,1.77,74.69,74.69,0,0,0,33.68.16a43.94,43.94,0,0,0-10.37,2,31,31,0,0,0-9.51,5,29.7,29.7,0,0,0-7.1,8,42.36,42.36,0,0,0-4.26,9.56A55.22,55.22,0,0,0,.15,45.14,44.08,44.08,0,0,0,5.78,63.65a41.94,41.94,0,0,0,2.7,4.08,39.6,39.6,0,0,0,3.26,3.65,38.41,38.41,0,0,0,7.71,5.89,50.62,50.62,0,0,0,17.94,5.9,76.75,76.75,0,0,0,18.42.29,125.19,125.19,0,0,0,17.88-3.07A166.22,166.22,0,0,0,90.93,75c5.63-2.13,11.16-4.53,16.64-7.06s10.85-5.29,16.23-8.09c12.5-6.53,25.36-14.12,38.39-21.26s26.31-13.69,39.5-18a102.6,102.6,0,0,1,17.76-4.28,99.78,99.78,0,0,1,10.59-1,74.9,74.9,0,0,1,10.84.24,61.33,61.33,0,0,1,19.51,5,48.62,48.62,0,0,1,12.76,8.34c-7.35-7.72-18.13-12.28-29.55-13.92a78.61,78.61,0,0,0-8.66-.78c-2.9-.14-5.85,0-8.77.11a118.71,118.71,0,0,0-17.27,2.45,106.54,106.54,0,0,1,18.72-3.14,76,76,0,0,1,18.84.72,54.55,54.55,0,0,1,17.45,5.93,40.31,40.31,0,0,1,13.41,11.91,33,33,0,0,1,6.21,16.35l.08,2.17-.13,2.16c0,.36,0,.72-.06,1.08l-.19,1.07c-.13.71-.22,1.43-.38,2.14a32.43,32.43,0,0,1-1.35,4.17c-.3.67-.5,1.38-.86,2l-1,2a37.65,37.65,0,0,1-5.33,7.22A41.86,41.86,0,0,1,271,75.61c-.54.53-1.18,1-1.77,1.45s-1.17,1-1.82,1.39a50.15,50.15,0,0,1-16.49,7.76,48.87,48.87,0,0,0,15.51-7,42.74,42.74,0,0,0,11.93-11.7l1.14-1.72,1-1.81a33,33,0,0,0,1.65-3.71c.26-.62.39-1.29.6-1.92l.29-1,.14-.48.08-.49a26.48,26.48,0,0,0,.55-4,29.86,29.86,0,0,0-3.12-15.59A39.68,39.68,0,0,0,270.57,24a47.42,47.42,0,0,0-14.49-8.15,65.38,65.38,0,0,0-16.67-3.52,90.76,90.76,0,0,0-17.31.26A109.84,109.84,0,0,0,205,15.72a147.39,147.39,0,0,0-16.64,5.41q-8.17,3.18-16.08,7c-5.28,2.51-10.49,5.17-15.63,7.9C136,46.87,116,58.71,95.19,66.49c12-5,23.9-11.44,36-18.27S155.7,34.1,168.68,27.55s26.69-12.29,41.15-15.44a108.16,108.16,0,0,1,22-2.52,75.15,75.15,0,0,1,21.77,2.9,50.23,50.23,0,0,1,19,10.15A40.46,40.46,0,0,1,284.4,40.11a32.71,32.71,0,0,1,1.69,10.29,34.29,34.29,0,0,1-1.79,10.2,40.19,40.19,0,0,1-4.88,9.17,48.72,48.72,0,0,1-7.12,7.63,52.39,52.39,0,0,1-18.11,10c-1.63.58-3.31.9-5,1.32-.84.17-1.7.3-2.54.45l-1.27.22-1.28.15a73.76,73.76,0,0,1-10.25.54,100.34,100.34,0,0,1-10.16-.72c-3.35-.45-6.68-1-9.94-1.65-6.55-1.31-12.9-3.08-19.11-4.88-7.51-2.2-15.86-4.74-22.16-7,6.09,2.33,12.34,4.32,18.69,6.24s12.83,3.8,19.49,5.3a120.45,120.45,0,0,0,20.43,3,86.21,86.21,0,0,0,10.44-.14c.87-.07,1.74-.19,2.61-.28l1.3-.15,1.29-.22c.86-.15,1.73-.27,2.59-.45l2.55-.6a51.28,51.28,0,0,0,9.86-3.65l1.19-.57c.39-.2.77-.43,1.15-.64l2.3-1.31c1.46-1,3-1.9,4.34-3,.69-.56,1.43-1,2.07-1.66l2-1.77c.65-.6,1.23-1.27,1.85-1.9l.92-1,.83-1a36.86,36.86,0,0,0,5.58-9,31.91,31.91,0,0,0,1.79-20.75A40,40,0,0,0,275,23.84,48.63,48.63,0,0,0,256.54,12.5a71.89,71.89,0,0,0-21.63-3.89c-14.76-.43-29.5,2.5-43.22,7.5S165,27.68,152.61,34.47s-24.28,13.83-36.07,20A231.59,231.59,0,0,1,83.28,69.3,136.58,136.58,0,0,1,65.92,74c-1.46.3-2.94.49-4.41.74-.74.11-1.47.26-2.21.34l-2.22.24a76.42,76.42,0,0,1-8.81.58,57.7,57.7,0,0,1-17-2.21,33.4,33.4,0,0,1-14-7.93c-.45-.48-1-.9-1.37-1.42l-1.28-1.51L13.5,61.16c-.4-.53-.7-1.14-1.06-1.7A35.24,35.24,0,0,1,9.2,52a42.45,42.45,0,0,1-1.46-16.5,38.52,38.52,0,0,1,5.83-16.73,20.65,20.65,0,0,1,5.7-5.7,23.88,23.88,0,0,1,7.56-3.25c5.71-1.43,12.22-1.23,18.65-.2,1.62.26,3.21.56,4.86.94l2.46.56,2.45.63q4.89,1.28,9.66,3A126,126,0,0,1,100.25,34c4.74,3.6,10.08,8.52,15.9,13.84s12.21,10.93,19.14,15.36,14.21,7.45,20.52,8.57,11.36.53,13.76-.51a48.9,48.9,0,0,1-12.76-1.42,47.36,47.36,0,0,1-11.63-4.6,84,84,0,0,0,9.49,2.92,92.3,92.3,0,0,1-9.33-3.84,21,21,0,0,0,5.9,1.84c-3.63-1.51-8.8-3.74-11.54-5.29-.8-.44-3.1-1.64-5.34-3.07A41.11,41.11,0,0,1,129,53.93c2.63,1.74,5.63,3.67,8.63,5.29A50.27,50.27,0,0,0,146,62.93a56.67,56.67,0,0,1-5.41-3.21c.59.27,1.3.62,2.05,1L145,61.86c.79.34,1.55.67,2.19.91a8.35,8.35,0,0,0,1.52.42A75.25,75.25,0,0,1,142,59.72a60.25,60.25,0,0,1-6.43-4.28c-3.52-2.68-6.49-5.36-9.8-8.06,4,3.19,9.4,7.35,12.6,8.76-1.79-1.45-3.76-2.86-5.66-4.33a1,1,0,0,0,.53.17c-.83-.66-1.84-1.64-2.7-2.33,0-.1-.08-.33.16-.27a1.78,1.78,0,0,0-.19.13"/><path class="cls-2" d="M131.22,59.21a135.11,135.11,0,0,1-13.56-11.95"/><path class="cls-3" d="M121.84,52.7s3.86-2.12,10.69-6.07l12.4-7.21c4.82-2.8,10.31-6,16.44-9.32s12.91-6.85,20.36-10.17a158.51,158.51,0,0,1,24.39-8.69l1.65-.44,1.68-.37,3.38-.74c2.28-.44,4.6-.8,6.93-1.16a114.73,114.73,0,0,1,14.4-.93c9.75.1,19.94,1.78,29.23,6.23a45.52,45.52,0,0,1,21.85,21.49,37.54,37.54,0,0,1,2.6,7.47,36.25,36.25,0,0,1,.89,7.89A34.39,34.39,0,0,1,284.87,66a43.9,43.9,0,0,1-9.6,12.4A53.59,53.59,0,0,1,262.4,87a54.26,54.26,0,0,1-14.57,4.63,74.89,74.89,0,0,1-14.86,1,124.26,124.26,0,0,1-27.79-4.48c-4.34-1.14-8.52-2.39-12.57-3.64s-7.95-2.5-11.74-3.8A150.37,150.37,0,0,1,159.94,72a87.1,87.1,0,0,1-16.2-10.86"/><path class="cls-3" d="M238.77,10.67l1.18.11c.78.06,1.93.2,3.42.38A67,67,0,0,1,255.83,14a48.48,48.48,0,0,1,16.69,9.42,41,41,0,0,1,7.54,8.77A36.59,36.59,0,0,1,285,43.78a34.32,34.32,0,0,1,.76,6.58c0,1.12-.12,2.25-.17,3.39s-.38,2.26-.55,3.41a34.4,34.4,0,0,1-6,13,50.54,50.54,0,0,1-25.15,17.58,62.48,62.48,0,0,1-16,2.7,94.64,94.64,0,0,1-16.51-.83c-11-1.46-21.64-4.39-31.84-7.35"/></g><g class="cls-1"><path class="cls-2" d="M144.9,139.37a1.74,1.74,0,0,0,.24,1.25c.45.86-1.07,1.58-.53,2.41.67,1-.61,2.08-.17,3.17.81,2,1.93,4.07,1.32,6.1-1.14,3.82-1.15,7.3-3,11a13,13,0,0,0-1.59,6.82c.14,1.64-.66,5,1,6.37-.58-1.89,0-3.87.69-5.72.38,4.06.34,8.3,1.85,12.3-2.2-7.49-.35-15.06,5.29-21.94-2.49,8-6.79,18.49-1.15,26.4a9,9,0,0,0,1.67,1.77c-7.24-7.85-2.45-18,.44-26.27a34.62,34.62,0,0,0,2.43-11.47c.19-1.05.31-2.11.4-3.17a29,29,0,0,0-.07-6.51c-.27-1.92-.45-5.34-4.23-6.08-.13.62.33,1.3.07,1.89a5.31,5.31,0,0,1-1-.75c0,.25-.11.53.11.77a1.56,1.56,0,0,0-.82-.47c-.1.3.46.73.69,1s1,.78.89,1a15.83,15.83,0,0,0-2.27-1.47c0,.17,0,.33-.05.49-.34-.2-.48-.59-.93-.69a7.31,7.31,0,0,1,.29,1.2,1.53,1.53,0,0,0,.13,1c-.34-.39-.59-.92-1.22-1.19-.15.18-.06.37,0,.56a.73.73,0,0,0-.21,0c0,.08-.08.19-.05.28a1.69,1.69,0,0,1-.31,0H145"/><path class="cls-2" d="M152.1,138.8a2.48,2.48,0,0,1-.09,1.36"/><path class="cls-3" d="M149.84,163.44s-5.15,21.74,4.92,28.17"/><path class="cls-3" d="M145.67,173.18A18.23,18.23,0,0,0,150,187.9"/></g><g class="cls-1"><path class="cls-2" d="M174.57,183.93a3.37,3.37,0,0,0,1.06-1.41c.54-1.17,2.31-.77,2.79-1.95.61-1.49,2.54-1.5,3.38-2.82,1.56-2.42,3.15-5.14,5.8-6.35A30.12,30.12,0,0,1,191,170c.26-.09.51-.15.76-.22l.3-.05.27,0a3.57,3.57,0,0,1,1,.05,2.19,2.19,0,0,1,1.49,1.08,1.71,1.71,0,0,1,0,1.7c-.07,0-.07.15-.09.29l0,.41c0,.3,0,.57-.07.9,0,.62,0,1.33,0,2.08a19.21,19.21,0,0,0,.83,5.08l.35,1.19.1.36.17.53c.12.36.24.74.4,1.1a14,14,0,0,0,2.49,4.3,9.7,9.7,0,0,0,3.83,2.69,6.66,6.66,0,0,0,2,.42,6.1,6.1,0,0,0,1.66-.15,8.64,8.64,0,0,1-6.41-3.2,10.67,10.67,0,0,1-1.83-3.24,17.7,17.7,0,0,1-.53-1.76,10.23,10.23,0,0,1-.27-1.6c.11.33.35,1,.57,1.5s.47,1.07.76,1.58a11.61,11.61,0,0,0,2,2.77,9.54,9.54,0,0,0,6,2.84,11.32,11.32,0,0,0,7.24-2.09l.4-.27.29-.22c.19-.14.36-.29.52-.43.34-.29.67-.58,1-.89a19.05,19.05,0,0,0,1.76-1.93,20.81,20.81,0,0,1-1.86,1.86c-.33.3-.67.57-1,.85a11.25,11.25,0,0,1-1.24.87,10.55,10.55,0,0,1-7,1.76,8.53,8.53,0,0,1-4-1.68,9,9,0,0,1-2.62-3.4l-.4-1-.31-1c-.09-.34-.16-.69-.23-1s-.08-.57-.11-.85a20.75,20.75,0,0,1,0-3c.1-2,.42-3.77.62-5.67a16.51,16.51,0,0,0,.1-3,9.13,9.13,0,0,0-.9-3.38,10.41,10.41,0,0,1,2.16,5.78c.18,1.89.12,3.75.16,5.65,0,1,.05,1.91.16,2.89a12.47,12.47,0,0,0,.74,3.17,7.07,7.07,0,0,0,1.92,2.84,6.37,6.37,0,0,0,3.14,1.44,8.15,8.15,0,0,0,5-1c.38-.2.77-.43,1.1-.65s.59-.42.88-.63a16.51,16.51,0,0,0,1.6-1.39,14.42,14.42,0,0,0,4-6.89,8.15,8.15,0,0,0,.16-2.91,13,13,0,0,1-3.49,8.46,16.37,16.37,0,0,1-3.8,3.08,7.88,7.88,0,0,1-5.3,1.18,5.69,5.69,0,0,1-2.5-1.17,5.81,5.81,0,0,1-1.59-2.21,13.16,13.16,0,0,1-.77-5c0-1.64.1-3.28.11-5a25.81,25.81,0,0,0-.1-2.58c0-.44-.1-.89-.19-1.35a6.24,6.24,0,0,0-.15-.7c-.08-.28-.16-.56-.25-.81a11.11,11.11,0,0,0-1.36-2.71,9.49,9.49,0,0,0-2.22-2.21,9.6,9.6,0,0,0-6.26-1.68,13,13,0,0,0-3.41.71,18.47,18.47,0,0,0-2.54,1.06,22.62,22.62,0,0,0-2.15,1.26c-.67.44-1.21.83-1.8,1.28a46.73,46.73,0,0,0-4,2.63,42.71,42.71,0,0,0-7.25,6.55c-1.91,2.16-5.31,6.07-3.16,9.38.69-.57,1-1.62,1.79-2.07a6.25,6.25,0,0,1,0,1.46c.23-.28.6-.49.67-.88a1.54,1.54,0,0,0,.15,1.05c.36-.25.38-1.08.45-1.49,0-.24,0-1.53.33-1.62a14.53,14.53,0,0,0,.19,3.09c.18-.15.3-.36.51-.47.05.44-.22.93,0,1.34a12.12,12.12,0,0,1,.95-1.43,3.06,3.06,0,0,0,.87-1.09,4.2,4.2,0,0,0-.29,2.05c.28-.08.4-.34.53-.58a.56.56,0,0,0,.11.19c.07-.09.25-.14.31-.24a1.22,1.22,0,0,1,.23.21l-.16-.16"/><path class="cls-2" d="M168.82,179.52a5.17,5.17,0,0,1,1.47-1.38"/><path class="cls-3" d="M201.33,169.55a16.28,16.28,0,0,1,.42,1.71c.22,1.07.42,2.56.61,4.3.1.87.2,1.8.35,2.78a20.44,20.44,0,0,0,.63,2.94,7.23,7.23,0,0,0,1.44,2.72,4.31,4.31,0,0,0,2.88,1.36,5.5,5.5,0,0,0,2.76-.62,12.54,12.54,0,0,0,2.41-1.61,17.36,17.36,0,0,0,3.87-4.35c2-3.16,2.38-6.57,1.17-9.15"/><path class="cls-3" d="M202,185.15a6.1,6.1,0,0,0,1,1.35,6.58,6.58,0,0,0,4,1.89,8,8,0,0,0,4.54-1,11.36,11.36,0,0,0,1.11-.67l.53-.38.43-.35a18.53,18.53,0,0,0,1.61-1.56,14.56,14.56,0,0,0,3.84-8.38"/></g><g class="cls-1"><path class="cls-2" d="M253.26,140a17.59,17.59,0,0,0-1.27-3.26c-.28-.51-.57-1-.86-1.51l-1.19-1.7c-.9-1.14-1.7-2.3-2.6-3.3a11.08,11.08,0,0,0-2.9-2.66,5.54,5.54,0,0,0-3.74-.85,5.33,5.33,0,0,0-3.33,2,12.71,12.71,0,0,0-1.49,2.27c-.45.83-.92,1.63-1.4,2.42l-.7,1.23-.56.94-1,1.69a42.18,42.18,0,0,0-3.81,7.16,105.42,105.42,0,0,0-6.95,30.5,75.59,75.59,0,0,0,.46,14.4c.53,4.65,1.28,9.15,1.91,13.56.31,2.21.61,4.4.8,6.57l.28,3.25L225,216a77.64,77.64,0,0,1-.68,13,122.66,122.66,0,0,1-3.12,15.41A90.5,90.5,0,0,1,215.9,259a49.29,49.29,0,0,1-8.08,11.82c-3.54,3.94-7.59,7.27-9.83,9.71,6.88-5.17,13.35-11.08,18.06-18.18-4.28,8.25-11.09,15.08-19.19,20.28s-17.35,8.93-26.59,12.09a133.19,133.19,0,0,0,24.81-10.47,75.39,75.39,0,0,0,10.7-7.47c.8-.72,1.67-1.38,2.43-2.14l2.31-2.26c1.42-1.61,2.91-3.17,4.17-4.92a63,63,0,0,0,6.84-11,82.55,82.55,0,0,0,4.86-12.22,124.91,124.91,0,0,0,5-26,95.67,95.67,0,0,1-4.8,31.75,69.11,69.11,0,0,1-7.23,15.12,59.21,59.21,0,0,1-10.94,12.65c-8.43,7.36-18.67,12.21-28.86,15.94-5.11,1.88-10.24,3.5-15.27,5L156.78,301c-2.47.71-4.84,1.56-7.33,2.14a42,42,0,0,1-9.4,1.18,32.55,32.55,0,0,0,8-.63c1.3-.26,2.59-.55,3.85-.92l3.75-1.12c5-1.49,10.16-3,15.33-4.59,10.32-3.24,20.87-7,30.33-13a64.43,64.43,0,0,0,12.93-10.68,62.5,62.5,0,0,0,9.64-13.85,77.27,77.27,0,0,0,5.95-15.64,95.81,95.81,0,0,0,2.69-16,104,104,0,0,0,.24-14.61c-.25-4.89-.84-9.78-1.53-14.49-1.36-9.44-2.86-18.52-2.08-27.08a62.19,62.19,0,0,1,3.62-13.82,136.47,136.47,0,0,1,6.44-14l1.83-3.52.47-.88.1-.2,0-.06.11-.25a1.88,1.88,0,0,1,.29-.53.5.5,0,0,1,.56-.13,1.48,1.48,0,0,1,.49.35l.26.27.18.24.09.12.21.38a25.47,25.47,0,0,1,1.57,3.27,30.08,30.08,0,0,1,1.11,3.51c1.29,4.74,1,9.2,2.11,11.48,1.14-2.68,1.26-5.91,1.45-8.65a12.94,12.94,0,0,1,.76,3.61c.06-.61.19-1.25.2-1.88a6.3,6.3,0,0,0-.08-1.83,6.72,6.72,0,0,0,.75,2.33,12.25,12.25,0,0,0-.74-4.78c-.11-.33-.47-1.25-.87-2.14a12.84,12.84,0,0,1-.87-2.23,41.53,41.53,0,0,1,3.25,6.79c0-.85-.1-1.68-.08-2.5a12.13,12.13,0,0,1,.55,1.93,4.78,4.78,0,0,0,.51,1.61,34.66,34.66,0,0,0-.82-6.26,16.46,16.46,0,0,0-1.56-4.91c1.1,1.78,2,4.45,2.82,5.82a6.07,6.07,0,0,0-.2-1.51,10.65,10.65,0,0,0-.44-1.48.42.42,0,0,0,.26.16c-.13-.44-.19-1-.36-1.49.1,0,.16-.17.29-.12l-.22,0"/><path class="cls-2" d="M247,144.59a49.85,49.85,0,0,0-1.79-5.41"/><path class="cls-3" d="M231.46,230s0,.43-.12,1.24l-.37,3.54a98.55,98.55,0,0,1-2.45,12.68,73.55,73.55,0,0,1-7,17.38,61.46,61.46,0,0,1-14.44,17l-2.32,1.83c-.79.59-1.62,1.13-2.43,1.71l-1.22.85-1.27.78c-.85.52-1.69,1.06-2.56,1.56a106.93,106.93,0,0,1-10.75,5.3,192.69,192.69,0,0,1-22,7.49l-10.31,2.87a50.45,50.45,0,0,1-5.12,1.23,40.35,40.35,0,0,1-5.16.62,30,30,0,0,1-5.18-.16,19.53,19.53,0,0,1-5.28-1.45,14.71,14.71,0,0,1-1.3-.69,8.06,8.06,0,0,1-1.26-.82q-.61-.47-1.2-1c-.37-.37-.72-.75-1.07-1.14a7.68,7.68,0,0,1-.95-1.21c-.28-.42-.56-.85-.82-1.29a26,26,0,0,1-1.17-2.6"/><path class="cls-3" d="M211.9,273.23a3.69,3.69,0,0,1-.31.32l-.93.91-1.47,1.47c-.57.58-1.31,1.16-2.08,1.86a77.91,77.91,0,0,1-14,9.59c-.74.44-1.55.82-2.35,1.23s-1.61.84-2.45,1.23c-1.69.77-3.41,1.61-5.22,2.35-3.59,1.56-7.42,3-11.35,4.4s-8,2.73-12,4.09l-6,2a48.75,48.75,0,0,1-6.22,1.77"/></g><g class="cls-1"><path class="cls-2" d="M265,181.39c-.12.17,0,.35.22.53.43.37-1.1.61-.57,1s-.62.86-.19,1.32c.82.84,1.95,1.64,1.38,2.49-1.06,1.63-1,3.05-2.63,4.85-1,1.05-1.47,2.24-1.11,3.19.26.68-.22,2.31,1.54,2.53-.76-.67-.37-1.66.16-2.56.69,1.63,1.09,3.44,3,4.63-3-2.39-1.85-6.35,3.47-9.53-1.07,1.63-2.47,3.71-2.74,5.68s.58,3.77,3.74,4.35a8.34,8.34,0,0,0,1.8.1c-3.9-.21-5-1.91-4.81-3.82s1.8-4,3.05-5.72,2.15-3,2.08-4.3a5.76,5.76,0,0,0,.37-1.11,3.87,3.87,0,0,0,0-2.25c-.25-.68-.35-1.85-4.1-2.45-.15.22.29.51,0,.72a7.39,7.39,0,0,1-1-.35c0,.1-.12.2.09.3a2.8,2.8,0,0,0-.81-.24c-.1.11.44.32.66.42s1,.36.86.42c-.71-.22-1.37-.5-2.22-.71,0,.06,0,.13-.07.19a4.75,4.75,0,0,0-.91-.34c0,.17.28.33.26.5s-.09.26.11.4a4,4,0,0,0-1.19-.55c-.15.07-.07.15,0,.23l-.21,0s-.09.07-.06.11l-.31,0h.22"/><path class="cls-2" d="M272.22,181.57c0,.15.09.36-.12.48"/><path class="cls-3" d="M270.3,190.69a8.55,8.55,0,0,0-.45,1.4,7.64,7.64,0,0,0-.07,3.21c.48,2.36,2.53,4.71,7.64,4"/><path class="cls-3" d="M266.84,195.15a2.88,2.88,0,0,0,.39,2c.61,1,2.09,2.24,5.3,2.46"/></g><path class="cls-4" d="M273.84,154.4"/><g class="cls-1"><path class="cls-2" d="M272,153.92c.09,0,0-.07-.14-.21-.3-.3.82.43.45.1s.49.21.22-.1c-.5-.58-1.1-1.51-.59-1.25s.72.36,1,.57a4.28,4.28,0,0,1,1.12,1.28,10.93,10.93,0,0,1,.75,1.33c0-.14.15.64-.22-1,.11.57,0,0-.34-.59a16.68,16.68,0,0,0,.21-2c-.26,2.3-.17.29-4.1-3.76a9.76,9.76,0,0,1,1.77,1.23c.53.44,1,.87,1.27,1.11.66.48.75.1,1.29-2.74l.32-1.67c-.82,3.62-.86,4.28-1.56,3.8a23.74,23.74,0,0,0-3.3-2.77c-1.26-.76-2.7-1-3.35-.29a2,2,0,0,0-.8.33,1.77,1.77,0,0,0-.88,1.45c0,.57-.25,1.56,3.12,3.43.15,0-.22-.37,0-.34l.84.61s.12,0-.06-.17a6.58,6.58,0,0,0,.69.47c.1,0-.36-.32-.55-.48s-.86-.66-.72-.61c.58.45,1.21.93,1.81,1.33,0,0,0-.05.05,0,.25.17.34.28.68.48,0-.06-.21-.21-.19-.25s.07,0-.07-.16a7,7,0,0,0,.87.67c.11.05.05,0,0-.05l.15.1s.06,0,0,0l.23.14-.17-.1"/><path class="cls-2" d="M266.11,150.38c0-.11,0-.27.21-.23"/><path class="cls-3" d="M270.73,148.23a6.66,6.66,0,0,0,.79.26,2.48,2.48,0,0,0,1.37.09c.44-.15.83-.54,1.25-1.53.22-.48.43-1.13.71-1.95s.65-1.82,1-3.05"/><path class="cls-3" d="M273.47,151.37s.27.31.43-.1a45.63,45.63,0,0,0,.82-4.54"/></g><g class="cls-1"><path class="cls-2" d="M290.65,184.62a1.75,1.75,0,0,0,.28-1.25c-.07-1,1.61-1,1.44-2a1.24,1.24,0,0,1,.13-.8.85.85,0,0,1,.35-.33c.27-.17.53-.25.46-.65a11.29,11.29,0,0,1-.16-2.26,4,4,0,0,1,.52-2.13.7.7,0,0,1,.47-.29,2.83,2.83,0,0,1,1.73.38,3.67,3.67,0,0,1,1.3,1.38,4.16,4.16,0,0,1,.13,3.82,3.57,3.57,0,0,1-1,1.32c-.06,0-.12.07-.16.11s0,.25.05.41l.13.57a11,11,0,0,0,.37,1.19l.15.38.18.43c.12.25.25.5.39.75a21.15,21.15,0,0,0,1.56,2.5,11.81,11.81,0,0,0,2.49,2.46c1.93,1.42,4.39,1.85,5.79,1.18a7.44,7.44,0,0,1-4.92-1.71,9.37,9.37,0,0,1-2.9-4.25,11.35,11.35,0,0,0,3.79,3.57,10,10,0,0,0,5,1.3,10.84,10.84,0,0,0,4.92-1.2,9.36,9.36,0,0,0,3.26-2.83,9.72,9.72,0,0,1-3,2.49,10.21,10.21,0,0,1-4.3,1.1,8.83,8.83,0,0,1-4.28-1,8.15,8.15,0,0,1-3.08-3,9,9,0,0,1-1.22-3.88,10.59,10.59,0,0,1,.06-1.65c.09-.43.23-.77.35-1.24a29.72,29.72,0,0,0,.76-3.33,13.31,13.31,0,0,0,0-4.21c2.54,5.37-1.35,10.92,3.91,14.91a6.7,6.7,0,0,0,4.1,1.07,7.71,7.71,0,0,0,4-1.35,7.29,7.29,0,0,0,3.07-6.31,7,7,0,0,0-.48-2.32,7.74,7.74,0,0,1-1.28,6.8,6.69,6.69,0,0,1-3.08,2.12,6.86,6.86,0,0,1-3.92.15,5.44,5.44,0,0,1-3.07-2.15,6.27,6.27,0,0,1-1-3.32c-.05-1.79.41-5.51-.34-8.44a10.83,10.83,0,0,0-4.73-6.7,7.42,7.42,0,0,0-4-1,7,7,0,0,0-3.73,1.27l-.2.1a9.13,9.13,0,0,0-3.07,2.78,29,29,0,0,0-2.65,5.26l-.59,1.41-.29.71-.14.38q-.27.77-.49,1.56c-.51,1.88-1.7,5.1,1.49,7.26.36-.52.21-1.32.68-1.77a5.31,5.31,0,0,1,.62,1.08c.08-.24.31-.45.2-.75a1.56,1.56,0,0,0,.57.76c.21-.24-.13-.86-.25-1.17s-.64-1.13-.43-1.24a15.84,15.84,0,0,0,1.5,2.25c.09-.14.1-.31.24-.43.23.32.21.73.58,1a7.33,7.33,0,0,1,.21-1.22,1.53,1.53,0,0,0,.27-1,3.43,3.43,0,0,0,.65,1.58c.21-.11.2-.32.21-.52a.75.75,0,0,0,.17.12c0-.08.15-.15.16-.24a1.69,1.69,0,0,1,.29.12l-.2-.09"/><path class="cls-2" d="M283.8,182.32a2.49,2.49,0,0,1,.62-1.22"/><path class="cls-3" d="M302.92,174.48s.11.44.24,1.22.27,1.92.43,3.22l.13,1c0,.28.08.56.14.85a8.44,8.44,0,0,0,.5,1.7,4.76,4.76,0,0,0,2.79,2.74,5.44,5.44,0,0,0,4.18-.36,6.07,6.07,0,0,0,2.82-3,9.08,9.08,0,0,0-.56-8"/><path class="cls-3" d="M303.93,186.64a4.55,4.55,0,0,0,.35.34,6.39,6.39,0,0,0,1.13.76,7.09,7.09,0,0,0,4.63.6,7.81,7.81,0,0,0,2.77-1.13,7.12,7.12,0,0,0,2.08-2.12,7.9,7.9,0,0,0,.95-5.78"/></g><g class="cls-1"><path class="cls-2" d="M323.78,171.5c-.07.22.1.39.34.55.51.37-1,.89-.39,1.24s-.57,1.07-.13,1.62c.79,1.07,1.8,2.4,1.08,3.54a21.94,21.94,0,0,0-1.58,3.27,20.7,20.7,0,0,1-2,3.64,4.41,4.41,0,0,0-.38.63c-.11.26-.2.53-.29.8a6.76,6.76,0,0,0-.32,1.68,6.07,6.07,0,0,0,.07,1.65,5.29,5.29,0,0,0,.46,1.51,27.27,27.27,0,0,0,1.14,2.77,4.83,4.83,0,0,0,1,1.26,2.31,2.31,0,0,0,1.39.54c-1.52-1-1.85-3-1.77-4.63a17.19,17.19,0,0,0,3,4.23,8.16,8.16,0,0,0,4.84,2.45,7.48,7.48,0,0,1-6-6.47,7.45,7.45,0,0,1,.82-4.38,9.07,9.07,0,0,1,3.36-3.35,13.5,13.5,0,0,0-1.77,3.78,8.57,8.57,0,0,0,.16,4.65,6,6,0,0,0,3,3.62l.56.24c.21.05.41.1.62.13a5.88,5.88,0,0,0,.61.07,5.48,5.48,0,0,0,.63-.06,4.51,4.51,0,0,0,.6-.13,4.61,4.61,0,0,0,.58-.27,2.53,2.53,0,0,0,.95-.83,2.68,2.68,0,0,0,.4-.75,3.76,3.76,0,0,0,.18-1,3,3,0,0,1-.44,1.26,2.65,2.65,0,0,1-.86.88,3.17,3.17,0,0,1-2.29.44,4.71,4.71,0,0,1-3.4-2.87,7.41,7.41,0,0,1-.39-4.48,8.8,8.8,0,0,1,.71-2c.31-.62.67-1.06,1-1.65,1.32-2,2.71-3.9,2.94-6.39a11.55,11.55,0,0,0,.57-2.09,10.74,10.74,0,0,0-.15-4.95,9.33,9.33,0,0,0-.44-1.33,4.25,4.25,0,0,0-.88-1.39,3.65,3.65,0,0,0-3.87-.79c0,.44.62.73.5,1.2a9.22,9.22,0,0,1-1.11-.16c.07.15,0,.35.26.43a1.73,1.73,0,0,0-.87,0c0,.19.56.29.83.38s1.13.23,1,.4a9.78,9.78,0,0,0-2.42-.3c0,.1.08.17,0,.28-.36,0-.54-.18-1-.1.11.19.4.31.44.53s0,.35.25.49a2.61,2.61,0,0,0-1.33-.32c-.12.12,0,.19.09.26l-.21,0s-.05.11,0,.14l-.3.07.22,0"/><path class="cls-2" d="M330.7,169.51a1.4,1.4,0,0,1,.14,1.07"/><path class="cls-3" d="M328.25,185.37a5.07,5.07,0,0,0-.18.51,5.69,5.69,0,0,0-.27,1.38,7.49,7.49,0,0,0,1.09,4.49,5.8,5.8,0,0,0,1.92,1.9,3.15,3.15,0,0,0,2.42.43,1.92,1.92,0,0,0,.95-.58,2.15,2.15,0,0,0,.45-1.08,3.64,3.64,0,0,0-.13-1.39c0-.12-.08-.28-.11-.37l-.06-.14a1.74,1.74,0,0,0-.12-.23"/><path class="cls-3" d="M325.8,192.11a5.79,5.79,0,0,0,.36.93,6,6,0,0,0,3.07,2.88,5.12,5.12,0,0,0,1.91.36,3.51,3.51,0,0,0,3.41-2.25"/></g><g class="cls-1"><path class="cls-2" d="M329.69,148.83c.05.12.14,0,.22-.2.17-.43.16,1.11.34.59s.32.65.52.22c.36-.8.56-1.9.9-1.31.7,1.1,1.23,1.06,2.4,2.72.7,1,1.47,1.43,1.86,1.08s1.32.16.82-1.44c-.07.7-.74.35-1.33-.16.56-.61,1.35-1,1.07-2.62.11,1.25-.56,1.71-1.49,1.11s-2.12-2.23-3-4.88a6.75,6.75,0,0,0,2.56,3c.86.37,1.44-.4,0-2.87a14,14,0,0,0-.94-1.39c2.11,3,1.72,4,.91,3.64s-2-2-2.64-3.29-.82-2.31-.89-2.29l-.08-.39c0-.18-.05-.23-.11.06s-.1.42-.83,3.93c0,.14.16-.28.17,0s-.15.71-.21.92c0,0,0,.12.09-.08,0,.19-.1.4-.17.77,0,.1.15-.42.2-.63s.21-1,.2-.82c-.13.68-.27,1.28-.45,2.14,0,0,0,0,.05.07-.07.33-.14.46-.22.9.06,0,.15-.28.2-.25s.08.1.15-.1a11.81,11.81,0,0,0-.32,1.17c0,.15,0,.07.09,0l0,.2s0,.09,0,.06l0,.31,0-.22"/><path class="cls-2" d="M330.52,141.84s.05-.1,0,.1"/><path class="cls-3" d="M332.17,144a3.06,3.06,0,0,0,.48.54,1.08,1.08,0,0,0,1,.34c.57-.2.68-1.87-2.85-5.49"/><path class="cls-3" d="M334.65,147.53a.47.47,0,0,0,.68-.26c.2-.49.12-1.75-1.53-4.25"/></g><path class="cls-4" d="M372.58,128.64"/><g class="cls-1"><path class="cls-2" d="M369.74,135.19a3.46,3.46,0,0,0,.21,1.81c.43,1.24-1.1,2.26-.58,3.47.65,1.52-.65,3-.23,4.57.77,2.9,1.85,5.89,1.21,8.8-1.21,5.49-1.29,10.5-3.26,15.78a25.66,25.66,0,0,0-1.72,9.8c.06,1.19-.16,3.11,0,5.29s.85,4.54,2.1,5.65a11.76,11.76,0,0,1-1.14-5.33,19.13,19.13,0,0,1,.7-4.64c.08,1.52.16,3.17.39,4.93a20.83,20.83,0,0,0,1.46,5.5,14.13,14.13,0,0,0,1.57,2.74,12.64,12.64,0,0,0,2.16,2.29,10.61,10.61,0,0,0,5.8,2.48,10.5,10.5,0,0,1-5.31-2.34,12.3,12.3,0,0,1-3.43-4.44,16.89,16.89,0,0,1-1.09-9.49,33,33,0,0,1,.88-4q.54-2,1.27-3.89a48.93,48.93,0,0,1,3.62-7.55c-.66,2.89-1.44,6-2.15,9.2-.35,1.61-.69,3.23-1,4.88a25.53,25.53,0,0,0-.44,5.17,13.31,13.31,0,0,0,1.24,5.39,9.85,9.85,0,0,0,3.85,4.18,6.86,6.86,0,0,0,5.39.79,4.29,4.29,0,0,0,3.07-3.37,2.54,2.54,0,0,0-.65-2.29,3.23,3.23,0,0,1-.24,3.75,3.9,3.9,0,0,1-1.88,1.44A5.58,5.58,0,0,1,379,196a7.73,7.73,0,0,1-4.68-2.54,9.83,9.83,0,0,1-2.36-4.81c-.68-3.51.15-6.82.91-10s1.67-6.34,2.44-9.3a69.25,69.25,0,0,0,2.66-16.49c.21-1.51.35-3,.46-4.55a60.21,60.21,0,0,0,.06-9.38c-.23-2.77-.35-7.71-4.11-8.81-.14.89.3,1.87,0,2.72a6,6,0,0,1-1-1.09c0,.36-.12.77.1,1.11a1.56,1.56,0,0,0-.81-.69c-.1.44.44,1.06.67,1.41s1,1.14.87,1.41a16.68,16.68,0,0,0-2.24-2.15,3.07,3.07,0,0,1-.06.7c-.34-.29-.47-.85-.92-1a14.39,14.39,0,0,1,.27,1.73,3.09,3.09,0,0,0,.11,1.42,4.5,4.5,0,0,0-1.19-1.74,1,1,0,0,0,0,.81.54.54,0,0,0-.21-.06c0,.12-.09.28-.06.4a1.16,1.16,0,0,1-.31,0h.22"/><path class="cls-2" d="M376.95,134.46a5.07,5.07,0,0,1-.12,2"/><path class="cls-3" d="M374.21,169.92s-.35,2-.72,5c-.18,1.54-.37,3.36-.52,5.35a25.37,25.37,0,0,0,.16,6.28A9.52,9.52,0,0,0,376,192.2c1.54,1.43,3.69,2,5.13,1.36a2.39,2.39,0,0,0,1.25-3,1,1,0,0,0-.53-.46.51.51,0,0,0-.15,0l.21,0a2,2,0,0,0,.34,0c.4,0,.36-.1.21,0"/><path class="cls-3" d="M370,184.07a13.14,13.14,0,0,0,.06,2.19,12.75,12.75,0,0,0,1.88,5.61,10,10,0,0,0,2.76,2.84,8,8,0,0,0,4,1.43,5.12,5.12,0,0,0,3.84-1.22,3.65,3.65,0,0,0,1.09-3.18"/></g><g class="cls-1"><path class="cls-2" d="M350.6,167.45a2,2,0,0,0,1.36-.2c.94-.42,1.68,1.12,2.6.6,1.15-.65,2.24.66,3.44.24,2.19-.78,4.43-1.87,6.62-1.26,4.14,1.15,7.9,1.14,11.94,3a14.83,14.83,0,0,0,7.47,1.4c1.78-.19,5.44.47,6.9-1.26-2,.68-4.22.17-6.25-.45,4.4-.52,9-.69,13.26-2.46-8,2.67-16.39,1.09-23.85-4.45,4.33,1.19,9.36,2.76,14.37,3.24s10-.13,14-3.23a9.15,9.15,0,0,0,1.78-1.8c-3.95,3.91-8.81,4.81-13.75,4.37s-10-2.21-14.41-3.58a42.46,42.46,0,0,0-12.28-2.36c-1.12-.2-2.25-.32-3.37-.43a35.29,35.29,0,0,0-6.94-.06c-2.06.22-5.7.28-6.63,4,.66.15,1.4-.28,2,0a5.33,5.33,0,0,1-.84,1c.27,0,.57.13.83-.08a1.54,1.54,0,0,0-.53.8c.32.11.81-.43,1.07-.65s.88-1,1.07-.85a16.1,16.1,0,0,0-1.65,2.21c.18,0,.35,0,.53.07-.23.33-.65.46-.77.9a8.45,8.45,0,0,1,1.3-.25,1.75,1.75,0,0,0,1.07-.1c-.44.33-1,.56-1.33,1.18.19.15.4.07.61,0a.69.69,0,0,0-.05.21c.09,0,.21.09.3.06a1.56,1.56,0,0,1,0,.31v-.22"/><path class="cls-2" d="M350.2,160.23a2.87,2.87,0,0,1,1.45.13"/><path class="cls-3" d="M376.58,162.67a59,59,0,0,0,12.59.94c6.71-.24,14.24-2,17.26-7.25"/><path class="cls-3" d="M387.21,166.53a19.81,19.81,0,0,0,5.32-.17,18.85,18.85,0,0,0,10.29-5"/></g><path class="cls-4" d="M409.79,164.42"/><g class="cls-1"><path class="cls-2" d="M426.69,182.54a13.56,13.56,0,0,0,2.69-5.12,12.41,12.41,0,0,0,0-5.94l-5.69.54.08,2.07c.32,7.75-1,14.33.13,21.9.38,2.36.6,4.72.88,7.08l.71,7.11c.21,2.38.56,4.76.89,7.17s.83,4.81,1.47,7.21a252.07,252.07,0,0,0,8.43,26.27c1.65,4.3,3.4,8.63,5.12,12.84a78.28,78.28,0,0,1,4.13,12.75,34.09,34.09,0,0,1,.73,11.78,18,18,0,0,1-4.49,9.69c-4.93,5.23-12.81,8.19-20,10.85l-2.77.93c-.46.15-.92.32-1.39.45l-1.42.35-5.67,1.39-5.76.93-1.44.23c-.48.06-1,.09-1.46.13l-2.91.24a96.56,96.56,0,0,1-23.46-1,150.45,150.45,0,0,1-27.9-7.4A169.62,169.62,0,0,1,321,292.4a127.07,127.07,0,0,1-10.69-7c-1.93-1.47-4-2.92-6-4.55l-3-2.45c-1-.81-2-1.63-3-2.51-8-6.76-15.32-14-20-18,5.74,5.93,11.78,11.81,18,17.43a205.57,205.57,0,0,0,19.22,15.58c-15-9.4-28.53-21.73-40.75-35.17s-23.1-28.17-33.35-42.72c4.74,6.86,9.55,13.66,14.55,20.3s10.18,13.11,15.54,19.38,11,12.26,16.85,18c1.49,1.4,2.92,2.87,4.44,4.23l4.54,4.09c3.11,2.62,6.18,5.29,9.42,7.72a161.13,161.13,0,0,0,20,13.48c.87.49,1.72,1,2.61,1.49l2.67,1.38c1.79.9,3.53,1.91,5.37,2.69l5.45,2.49,5.56,2.21a139.35,139.35,0,0,0,46.3,9.46c-2.3,0-4.61.11-6.94,0l-7-.4-7.08-.85c-2.37-.33-4.72-.84-7.1-1.26a142.32,142.32,0,0,1-28.12-9,151.36,151.36,0,0,1-26.4-14.83,198.6,198.6,0,0,1-23.62-19.53c-14.79-14.18-27.55-30.26-39.1-46.3-5.78-8-11.26-16.06-16.55-23.93-2.66-3.92-5.25-7.8-7.47-11.83a49.61,49.61,0,0,1-5.11-12.67,31.14,31.14,0,0,1-.87-8.59,29.8,29.8,0,0,1,1.61-8.1,29.11,29.11,0,0,0-1.72,7.05,27.59,27.59,0,0,0,.25,7.2,44.14,44.14,0,0,0,4.57,13.35,121.89,121.89,0,0,0,7.37,12.19l8.12,12.06c11,16.16,22.81,32.62,36.37,47.77s28.94,28.93,46.26,39.27a149.41,149.41,0,0,0,27,12.63,134.79,134.79,0,0,0,28.17,6.5l3.24.4,3.26.19,3.27.19c.55,0,1.09.08,1.64.08l1.64,0c2.19,0,4.38,0,6.58-.11l6.59-.55a103.16,103.16,0,0,0,25.86-6.46l6.2-2.69a54,54,0,0,0,6.15-3.45,32.06,32.06,0,0,0,5.85-4.88,25.59,25.59,0,0,0,2.51-3.18,26.59,26.59,0,0,0,1.95-3.58,26,26,0,0,0,2.12-7.74,35.77,35.77,0,0,0,0-7.64,63.61,63.61,0,0,0-3.32-13.77c-1.53-4.7-3.34-9.18-4.87-13.45-.79-2.16-1.5-4.36-2.24-6.54s-1.42-4.38-2-6.6a231.66,231.66,0,0,1-6.27-27.66,241.35,241.35,0,0,1-3-28.2c-.2-3.75-.25-8.16-.25-12.84l-11,1.05A4.12,4.12,0,0,1,421,176a7.9,7.9,0,0,1-2.25,3c-.27.19-.54.39-.8.6l-.42.24c-.1.06-.12.1-.19.14a4.2,4.2,0,0,1-.79.39,3.68,3.68,0,0,1-2,.13l-.14,0h-.07v0l-.06-.2-.12-.42-.27-.93-.15-.51a1.36,1.36,0,0,1,0-.24l0-.3-.08-.59c-.11-.78-.23-1.52-.35-2.22a20.9,20.9,0,0,0-1.83-6.26c-.06,2.76,0,5.66.1,8.54l.07,3.47q0,.8,0,1.58v.59s0,.07,0,.1l.08,0,.66.36-.66-.12a2.28,2.28,0,0,1-.33-.07l-.07-.26c-.09-.35-.18-.74-.27-1.16-.18-.84-.34-1.82-.46-2.89,0,1,0,2.12,0,3.19,0,.54,0,1.06,0,1.56v.19a.35.35,0,0,0,0,.09l.09,0,.36.14.72.24-1.21-.34a8.82,8.82,0,0,1-.22-.95,4,4,0,0,0-.48-1.36c0,.7,0,1.45,0,2.2l0,.56a.21.21,0,0,0,0,.07l.07,0,.14.05.29.1c.39.13.77.28,1.16.37a9.41,9.41,0,0,0,2.28.16,8.65,8.65,0,0,0,1.81-.24,10.56,10.56,0,0,0,3.43-1.53c.3-.23.69-.43,1-.7l.89-.72c.51-.5,1-.89,1.25-1.12-.28.39-.62.76-1,1.17s-.77.72-1.17,1.1-.88.65-1.32.94-1,.56-1.48.77a11.29,11.29,0,0,1-3.35.91,11.9,11.9,0,0,1-3.3-.13,11.2,11.2,0,0,0,4.66.79,6.51,6.51,0,0,1-1.83.19l-1.06,0c-.35,0-.7-.14-1-.2a13,13,0,0,1-1.92-.52l-.79-.22c-.1-.15-.13-.31-.2-.39l0,.39v.1l.09,0,.19.08.75.33.74.32.76.22a11.23,11.23,0,0,0,3.1.48,14.48,14.48,0,0,0,6.31-1.55,13.48,13.48,0,0,0,6.7-6.85,14.67,14.67,0,0,1-3.63,5.31,10.29,10.29,0,0,1-1.21,1.06,11.34,11.34,0,0,1-1.23.91c-.39.25-.88.59-1.3.82s-.86.43-1.24.63c.53-.14,1.09-.27,1.62-.48l.78-.37.68-.34a14.45,14.45,0,0,0,1.26-.83,8.9,8.9,0,0,0,1.16-.94.82.82,0,0,0-.21.44c.34-.29.75-.6,1.16-.93s.76-.74,1.07-1.09c.09.05.31,0,.27.17a1.85,1.85,0,0,0-.13-.19"/><path class="cls-2" d="M418.35,180.38a10.27,10.27,0,0,0,3.08-2.91,7.24,7.24,0,0,0,1.26-3.3"/><path class="cls-3" d="M373.49,319.35a21.63,21.63,0,0,1-2.21-.33L365,317.94a150.91,150.91,0,0,1-22.18-6.38,152.62,152.62,0,0,1-29.88-15.15,203.48,203.48,0,0,1-31-25.31l-3.72-3.74c-1.24-1.25-2.42-2.57-3.64-3.86-2.46-2.56-4.76-5.28-7.14-8-4.62-5.45-9.19-11-13.46-16.7-8.67-11.33-16.52-23-23.84-34-3.64-5.51-7.18-11-9.67-16.94a44.72,44.72,0,0,1-2.8-9.13,38.22,38.22,0,0,1-.56-4.69c0-.8,0-1.62,0-2.42l.21-2.37a29.3,29.3,0,0,1,7.44-16,24,24,0,0,1,6.89-5.18,23.72,23.72,0,0,1,8.06-2.16"/><path class="cls-3" d="M296.57,280.59l-2.41-2.17-2.87-2.57c-1.12-1-2.35-2.24-3.76-3.56a291.88,291.88,0,0,1-21.37-22.94c-8.25-9.71-17-21.39-25.76-33.65l-6.54-9.3c-2.18-3.12-4.39-6.23-6.45-9.42a75.66,75.66,0,0,1-5.58-10,41,41,0,0,1-3.34-11.07"/></g></g></g></svg>